<?xml version="1.0" encoding="utf-8"?>
<!-- Generator: Adobe Illustrator 21.0.0, SVG Export Plug-In . SVG Version: 6.00 Build 0)  -->
<!DOCTYPE svg PUBLIC "-//W3C//DTD SVG 1.1//EN" "http://www.w3.org/Graphics/SVG/1.1/DTD/svg11.dtd">
<svg version="1.1" id="Flat" xmlns="http://www.w3.org/2000/svg" xmlns:xlink="http://www.w3.org/1999/xlink" x="0px" y="0px"
	 viewBox="0 0 814 214.1" style="enable-background:new 0 0 814 214.1;" xml:space="preserve">
<style type="text/css">
	.st0{fill:#FFFFFF;}
	.st1{fill:none;}
</style>
<g id="Text">
	<path class="st0" d="M446,88.2c-9.4,0-16.6,4-21.4,10.2c-4.1-6.6-11.3-10.2-19.7-10.2c-7.8,0-13.7,2.8-17.8,7.3V90H368v60.2h19.2
		v-29.5c0-10.1,4.6-15.2,11.5-15.2c5.8,0,10.2,4.3,10.2,11.2v33.6h19.2v-29.5c0-10.1,4.7-15.2,11.8-15.2c5.6,0,10.1,4.3,10.1,11.2
		v33.6h19.1v-37.7C469.1,97.9,458.9,88.2,446,88.2"/>
	<path class="st0" d="M493.9,113.3c1.8-6.1,7.3-9.5,12.7-9.5c5.5,0,10.3,3,12.1,9.5H493.9z M493.6,125h44.2v-4.9
		c-0.4-19.7-14-31.9-31.1-31.9c-17.5,0-31.9,13-31.9,31.9c0,19.1,14.4,31.9,31.8,31.9c13.2,0,23.8-5.6,29.2-17.3l-17.3-3.6
		c-3.2,4.6-7.9,5.5-11.9,5.5C500.1,136.7,495.1,132.2,493.6,125"/>
	<path class="st0" d="M99,132.5c-2.5,1.4-6.1,2.4-8.8,2.4c-5,0-8-2.5-8-8.8v-20.9H100V90H82.2V72.2H63V128c0,15.8,9,24,24,24
		c6.8,0,11.8-1.9,16.4-4.4L99,132.5z"/>
	<path class="st0" d="M186.6,135.7c-8.4,0-14.5-6.2-14.5-15.6c0-9.2,6.1-15.6,14.5-15.6c7.8,0,14.8,6.4,14.8,15.6
		C201.3,129.5,194.4,135.7,186.6,135.7 M220.5,90h-19.2v4.8c-4.7-4.2-10.9-6.6-18.7-6.6c-16,0-29.4,13-29.4,31.9
		c0,19.1,13.4,31.9,29.4,31.9c7.8,0,14-2.4,18.7-6.6v4.8h19.2V90z"/>
	<path class="st0" d="M259.6,135.7c-8.4,0-14.5-6.2-14.5-15.6c0-9.2,6.1-15.6,14.5-15.6c7.8,0,14.8,6.4,14.8,15.6
		C274.4,129.5,267.4,135.7,259.6,135.7 M293.6,63.8h-19.2v31c-4.7-4.2-10.9-6.6-18.7-6.6c-16,0-29.4,13-29.4,31.9
		c0,19.1,13.4,31.9,29.4,31.9c7.8,0,14-2.4,18.7-6.6v4.8h19.2V63.8z"/>
	<path class="st0" d="M318.6,113.3c1.8-6.1,7.3-9.5,12.7-9.5c5.5,0,10.3,3,12.1,9.5H318.6z M318.2,125h44.2v-4.9
		c-0.4-19.7-14-31.9-31.1-31.9c-17.5,0-31.9,13-31.9,31.9c0,19.1,14.4,31.9,31.8,31.9c13.2,0,23.8-5.6,29.2-17.3l-17.3-3.6
		c-3.2,4.6-7.9,5.5-11.9,5.5C324.7,136.7,319.8,132.2,318.2,125"/>
	<path class="st0" d="M150.3,89.2c-0.2,0-0.4,0-0.6,0c-9.8,0-16.4,5.2-20.8,12.4V90h-19.2v60.2H129v-18.8c0-15.5,7.2-22.5,20.5-22.6
		L150.3,89.2z"/>
</g>
<g id="Kiwi">
	<path class="st0" d="M686.4,134.4c-6.2-1-12.5-1-18.7,0l-0.3,0.1c-6.3,1.1-12.3,3.1-18,6.1c-10,4.5-3.1,15.9,4.8,11.4
		c9.2-5.3,19.3-8.7,30.6-8.1C692.2,144.4,692.5,135.2,686.4,134.4"/>
	<path class="st0" d="M565.1,151c4.2-4.7,7.7-9.9,10.2-15.6l0.1-0.3c2.6-5.8,4.2-12,4.8-18.4c1.7-10.9-11.6-11.3-12.2-2.3
		c-0.6,10.7-3.3,20.9-10,30C553.5,150.2,561.1,155.6,565.1,151"/>
	<g>
		<g>
			<g>
				<g>
					<path class="st1" d="M695,82.1c-6-1.7-12.4,1.8-14.1,7.8s1.8,12.4,7.8,14.1c6,1.7,12.4-1.8,14.1-7.8
						C704.5,90.2,701,83.8,695,82.1z"/>
					<path class="st0" d="M754.4,92.8c-0.1,0-0.1,0-0.2,0c0,0-1-0.2-2.6-0.6c-1.7-0.4-4.1-0.9-7-1.4c-1.5-0.3-3-0.6-4.7-0.8
						c-1.7-0.3-3.5-0.5-5.3-0.8c-1.8-0.2-3.8-0.5-5.7-0.7c-1.9-0.2-3.9-0.4-5.9-0.5c-2-0.1-4-0.2-6-0.3c-2-0.1-3.9-0.1-5.8-0.1
						c-0.1,0-0.3,0-0.4,0c0,0,0-0.1,0-0.1c-1.9-6.3-7-11.6-14.4-14c-28.2-8.9-65.9-10.2-90.3,0.7c-10.1,4.5-18.6,12.9-21.9,24.4
						c-5.8,20.1,5.8,41,25.8,46.8c12.7,3.7,25.7,0.5,35.1-7.6c12-10.4,21.7-21.8,46.6-24c10-0.9,16.5-6.2,19-14.8
						c0.3-0.9,0.4-1.8,0.5-2.6c0.2-0.1,0.4-0.2,0.5-0.2c1.8-0.1,3.6-0.2,5.5-0.3s3.8-0.1,5.6-0.1c1.9,0,3.8,0,5.7,0.1
						s3.7,0.2,5.5,0.3c1.8,0.1,3.5,0.3,5.1,0.5s3.2,0.3,4.6,0.5c2.8,0.4,5.2,0.7,6.9,1s2.6,0.4,2.6,0.4h0.1c1.6,0.3,3.1-0.7,3.5-2.3
						C757,94.8,756,93.2,754.4,92.8z M702.8,96.2c-1.7,6-8.1,9.5-14.1,7.8c-6-1.7-9.5-8.1-7.8-14.1s8.1-9.5,14.1-7.8
						S704.5,90.2,702.8,96.2z"/>
				</g>
				<path class="st0" d="M699.7,90.1c0,0.1,0,0.2,0,0.3c0,1.6-1.3,2.9-2.9,2.9s-2.9-1.3-2.9-2.9c0-1.5,1.2-2.8,2.7-2.9
					c-0.1,0-0.2-0.1-0.4-0.1c-3.1-0.9-6.4,0.9-7.3,4s0.9,6.4,4,7.3s6.4-0.9,7.3-4C700.8,93.1,700.5,91.4,699.7,90.1z"/>
				<path class="st0" d="M716.7,62.9c-0.3-0.1-0.7-0.1-0.9,0.2s-0.2,0.7,0.2,0.9c6.1,3.7,7.3,13.1,0,16.4c0-0.1,0-0.2,0.1-0.3
					c0.1-0.8,0.2-1.6,0.2-2.5c0-1-0.1-1.9-0.4-2.9c-0.2-0.9-0.6-1.9-1.1-3c-1-1.9-2.5-3.7-4.4-5.1c-0.8-0.6-1.7-1.2-2.8-1.8
					c-1.1-0.6-2.2-1-3-1.3c-1.1-0.4-2.1-0.6-2.9-0.7c-0.8-0.2-1.7-0.2-2.7-0.3c-0.8,0-1.5,0-2.3,0.1c-0.7,0.1-1.3,0.2-1.8,0.3
					c-0.4,0.1-0.6,0.1-0.8,0.2c-0.1,0-0.2,0-0.3,0.1l-0.4,0.1c-0.4,0.1-0.6,0.5-0.6,0.9c0,0.2,0.2,0.4,0.3,0.5
					c0.2,0.1,0.4,0.2,0.6,0.1l0.4-0.1c0.1,0,0.2,0,0.3-0.1c0.2,0,0.5-0.1,0.8-0.1c0.4-0.1,0.9-0.1,1.6-0.2c0.7,0,1.4,0,2.1,0
					c0.9,0.1,1.7,0.2,2.4,0.4c0.8,0.2,1.6,0.4,2.6,0.8c0.7,0.3,1.7,0.7,2.6,1.3c1,0.6,1.8,1.2,2.4,1.7c1.5,1.3,2.7,2.9,3.4,4.5
					c0.4,0.9,0.7,1.7,0.8,2.4c0.1,0.7,0.2,1.5,0.2,2.2c0,0.6-0.1,1.3-0.2,1.9c-0.1,0.5-0.3,1-0.4,1.4c-0.1,0.2-0.2,0.5-0.3,0.6
					c0,0.1-0.1,0.2-0.1,0.3l-0.2,0.4c0,0,0,0,0,0.1l0,0c0,0.1,0,0.1-0.1,0.3c0,0,0,0,0,0.1s0,0.2,0,0.3c0,0.2,0,0.3,0.1,0.4
					c0.2,0.7,0.9,1.2,1.6,1.2c0.2,0,0.4,0,0.5-0.1C727.5,80.4,724.3,66.2,716.7,62.9"/>
			</g>
		</g>
	</g>
</g>
</svg>
