<svg id="Layer_1" data-name="Layer 1" xmlns="http://www.w3.org/2000/svg" xmlns:xlink="http://www.w3.org/1999/xlink" viewBox="0 0 242.36 242.36"><defs><style>.cls-1{fill:none;}.cls-2{fill:#ffae5f;}.cls-3{clip-path:url(#clip-path);}.cls-4,.cls-6{fill:#e6e6e6;}.cls-4,.cls-5{mix-blend-mode:multiply;}.cls-7{fill:#fff;}</style><clipPath id="clip-path"><path class="cls-1" d="M.69,108.76h0L37.1,20.86A94.83,94.83,0,0,0,.69,13.64v95.12Z"/></clipPath><symbol id="Slice" data-name="Slice" viewBox="0 0 37.69 108.76"><path class="cls-2" d="M.69,108.76h0L37.1,20.86A94.83,94.83,0,0,0,.69,13.64v95.12Z"/><g class="cls-3"><path class="cls-4" d="M.6,51.08a51.75,51.75,0,0,1,22.17,4.46l7.29-17.71A74.16,74.16,0,0,0,.6,32Z"/><g class="cls-5"><path class="cls-6" d="M12.64,23,9.28,27.3,7.51,22.4l-2.75,4L2.94,22.14,0,27c2.88-.06,5,.1,5,.1a41.86,41.86,0,0,1,4.23.4l5.21.82Z"/><path class="cls-6" d="M14,28.18c2.81.39,5.81,1.13,5.81,1.13L18,24Z"/><path class="cls-6" d="M33,33.56l-.44-5.41-3.6,3.05-.62-4.6-4,3.73-1-5.13-4,4a47.93,47.93,0,0,1,4.88,1.21h0c1.82.45,3.31,1,4.12,1.25Z"/></g></g><circle class="cls-2" cx="13.59" cy="43.42" r="4.78"/><g class="cls-5"><polygon class="cls-6" points="0.98 52.83 3.56 59.12 4.35 59.16 1.06 51.66 0.98 52.83"/><polygon class="cls-6" points="1.44 51.58 4.69 59.16 5.35 59.2 2.06 51.62 1.44 51.58"/><polygon class="cls-6" points="5.35 58.33 11.35 52.62 10.6 52.45 5.1 57.79 5.35 58.33"/><polygon class="cls-6" points="5.02 57.33 4.73 56.62 9.44 52.16 10.06 52.33 5.02 57.33"/><polygon class="cls-6" points="11.19 53 12.52 60.12 11.98 60.08 10.81 53.62 11.19 53"/><polygon class="cls-6" points="10.48 54 11.56 59.87 10.9 59.66 10.06 54.41 10.48 54"/><polygon class="cls-6" points="12.77 59.83 18.52 54.45 17.81 54.16 12.81 59 12.77 59.83"/><polygon class="cls-6" points="12.73 58.41 17.4 54.04 16.56 53.79 12.6 57.83 12.73 58.41"/><polygon class="cls-6" points="18.48 54.83 17.73 61.75 17.15 61.58 17.85 55.66 18.48 54.83"/><polygon class="cls-6" points="17.44 56.12 16.81 61.37 16.27 61.12 16.94 56.66 17.44 56.12"/><path class="cls-6" d="M18.06,61.5c.08-.12,4-4.83,4-4.83l.25-.87-4.21,4.88Z"/><polygon class="cls-6" points="18.19 60.04 21.98 55.66 21.52 55.33 18.35 59.04 18.19 60.04"/><polygon class="cls-6" points="20.67 60.5 20.27 61.52 18.9 60.95 19.56 60.14 20.67 60.5"/><polygon class="cls-6" points="16.31 59.89 13.94 59.16 14.88 58.25 16.31 58.7 16.31 59.89"/><path class="cls-6" d="M.69,57.29H2.48l-.6-1.44L.65,56Z"/><polygon class="cls-6" points="6.73 57.31 10.17 58.08 10.06 56.6 8 56.25 6.73 57.31"/><polygon class="cls-6" points="0.67 55.43 1.63 55.37 1.08 54.08 0.69 54.08 0.67 55.43"/><polygon class="cls-6" points="3.29 53.87 4.02 55.29 5.48 55.48 6.67 54.23 3.29 53.87"/><polygon class="cls-6" points="4.21 55.77 4.44 56.27 5.02 55.77 4.21 55.77"/><path class="cls-6" d="M9.42,55.16a8.41,8.41,0,0,0-.9.71c.08,0,1.5.38,1.46.31S9.42,55.16,9.42,55.16Z"/><path class="cls-6" d="M12,55.22a11.6,11.6,0,0,0,.4,1.63c.06-.08,1.56-1.31,1.56-1.31Z"/><path class="cls-6" d="M16.31,57.12a9.7,9.7,0,0,0-1,.79c.08,0,.94.38.94.29S16.31,57.12,16.31,57.12Z"/><polygon class="cls-6" points="18.56 57.25 18.48 58.14 19.15 57.33 18.56 57.25"/><polygon class="cls-6" points="21.02 58.43 20.1 59.54 20.96 59.81 21.44 58.64 21.02 58.43"/></g><path class="cls-4" d="M.67,59.64a47.16,47.16,0,0,1,18.81,3.75l-.17.4S12.81,59.93.67,60Z"/><g class="cls-5"><path class="cls-6" d="M12,45.74l-1.18-.27L12,40.37l1.18.27-.1.41-.71-.16-1,4.27.71.16Z"/><path class="cls-6" d="M15,46.42l-1.21-.28.09-.41.74.17,1-4.26-.74-.17.09-.41,1.21.28Z"/></g><g class="cls-5"><path class="cls-6" d="M.65,60.7.68,75,6.3,61A27.94,27.94,0,0,0,.65,60.7Z"/><path class="cls-6" d="M13.58,77.64A24,24,0,0,0,10.3,76.2l8.81-11.84Z"/><path class="cls-6" d="M17.21,63.67,9.12,75.89a61,61,0,0,0-7-1L8.52,61.14S15.18,62.3,17.21,63.67Z"/></g><path class="cls-4" d="M.68,75.39v1.16A32.12,32.12,0,0,1,13,79.08l.5-1.19A30.88,30.88,0,0,0,.68,75.39Z"/><g class="cls-5"><path class="cls-6" d="M.68,77.15V87.42a13.76,13.76,0,0,1,2.56.16Z"/><path class="cls-6" d="M1.87,77.3,4.06,87.68a18.17,18.17,0,0,1,3.28.88L5.78,77.68A20.93,20.93,0,0,0,1.87,77.3Z"/><path class="cls-6" d="M7.61,78,8,88.71l.91.38,3.86-9.43A23.23,23.23,0,0,0,7.61,78Z"/></g><path class="cls-4" d="M.64,88a18.78,18.78,0,0,1,7.91,1.69l-.37.94A15.76,15.76,0,0,0,.64,89Z"/><path class="cls-4" d="M1.36,89.72,1.2,97.44l2.22-2.16,1.16,2.94,2.94-7.37A12.76,12.76,0,0,0,1.36,89.72Z"/><polygon class="cls-4" points="3.11 96.69 2.26 97.62 3.48 97.91 3.11 96.69"/><path class="cls-4" d="M1.3,98.59A6.19,6.19,0,0,1,4,99.22l-2.72,6.62Z"/><path class="cls-4" d="M4.84,24.32,3.71,21.57s2.38-4.12,1.88-5.67c0,0,2.08,3,1.46,5.33Z"/><path class="cls-4" d="M14.71,26l-1.25-3.62S17.59,20,17.3,17.74c0,0,2.08,3.13.46,5.13Z"/><polygon class="cls-4" points="9.51 24.7 9.05 22.87 10.59 21.7 10.92 23.57 9.51 24.7"/><path class="cls-4" d="M25,28l-.25-2.29a2.75,2.75,0,0,0,1.92-2.08s1.71,1.46.5,2.5Z"/><path class="cls-2" d="M15,8,11.29,12.7l-2-5.46L6.24,11.72,4.21,7,.94,12.32c3.21-.07,5.6.11,5.6.11a46.68,46.68,0,0,1,4.72.45l5.81.91Z"/><path class="cls-2" d="M16.52,13.69c3.14.43,6.48,1.25,6.48,1.25L21,9Z"/><path class="cls-2" d="M37.69,19.69l-.49-6-4,3.4-.69-5.13-4.41,4.16L27,10.35l-4.47,4.49A53.45,53.45,0,0,1,28,16.19h0c2,.51,3.69,1.07,4.6,1.4Z"/><path class="cls-2" d="M6.33,9.39,5.08,6.32S7.73,1.72,7.17,0c0,0,2.32,3.39,1.63,5.95Z"/><path class="cls-2" d="M17.35,11.29,16,7.25S20.55,4.6,20.23,2c0,0,2.32,3.48.51,5.72Z"/><polygon class="cls-2" points="11.54 9.8 11.03 7.76 12.75 6.46 13.12 8.55 11.54 9.8"/><path class="cls-2" d="M28.82,13.47l-.28-2.56A3.07,3.07,0,0,0,30.68,8.6s1.91,1.63.56,2.79Z"/><path class="cls-2" d="M9.88,68.51a3.82,3.82,0,0,1,.92,1.63,2.1,2.1,0,0,1-.18,1.37,2.4,2.4,0,0,1-1.17,1.18,2.63,2.63,0,0,1-1.7.14l-.33.68-.61-.3.3-.6,0,0a4,4,0,0,1-1.49-1.21l.54-.65A4.1,4.1,0,0,0,7.4,71.83l.06,0L9,68.8a3.82,3.82,0,0,1-1-1.67A1.93,1.93,0,0,1,8.16,66a2,2,0,0,1,1.08-1,2.54,2.54,0,0,1,1.63,0l.27-.56.61.3-.25.51a5.11,5.11,0,0,1,1.31.93l-.56.64a4.11,4.11,0,0,0-1.11-.83Zm-.47-.59,1.09-2.21A1.21,1.21,0,0,0,9,66.36Q8.7,67,9.41,67.92ZM8.12,72.07a1.46,1.46,0,0,0,1.6-.87,1.4,1.4,0,0,0,.15-.86,2.38,2.38,0,0,0-.43-.94Z"/><polygon class="cls-2" points="4.19 34.34 4.57 36.28 2.32 37.83 4.8 37.89 5.44 40.7 6.53 37.7 8.94 37.55 6.76 36.2 7.69 34.14 5.71 35.55 4.19 34.34"/><polygon class="cls-2" points="10.1 32.05 11.43 35.26 13.76 31.75 10.1 32.05"/><polygon class="cls-2" points="12.72 52.42 14.72 50.46 15.1 53.67 12.72 52.42"/><polygon class="cls-2" points="6.76 51.71 5.3 49.92 4.1 51.55 6.76 51.71"/><polygon class="cls-2" points="20.43 34.05 21.64 36.92 24.39 35.09 20.43 34.05"/><path class="cls-2" d="M26.76,36c0,.13.54,1.83.54,1.83l1.58-1.08Z"/><polygon class="cls-2" points="14.85 35.13 14.22 36.51 15.6 36.26 14.85 35.13"/><polygon class="cls-2" points="20.35 48.96 18.26 51.42 21.3 51.55 20.35 48.96"/><polygon class="cls-2" points="22.47 43.55 21.64 45.38 24.18 45.34 22.47 43.55"/><polygon class="cls-2" points="6.05 45.51 5.72 46.51 7.26 46.3 6.05 45.51"/><polygon class="cls-2" points="1.89 41.38 1.97 43.51 3.35 42.8 1.89 41.38"/></symbol></defs><title>buy-tickets</title><use id="Slice-3" data-name="Slice" width="37.69" height="108.76" transform="translate(120.55 12.47)" xlink:href="#Slice"/><use id="Slice-6" data-name="Slice" width="37.69" height="108.76" transform="translate(162.15 20.48) rotate(22.5)" xlink:href="#Slice"/><use id="Slice-9" data-name="Slice" width="37.69" height="108.76" transform="translate(197.66 43.85) rotate(45)" xlink:href="#Slice"/><use id="Slice-12" data-name="Slice" width="37.69" height="108.76" transform="matrix(0.38, 0.92, -0.92, 0.38, 221.41, 78.94)" xlink:href="#Slice"/><use id="Slice-15" data-name="Slice" width="37.69" height="108.76" transform="translate(229.83 120.47) rotate(90)" xlink:href="#Slice"/><use id="Slice-18" data-name="Slice" width="37.69" height="108.76" transform="translate(221.82 162.08) rotate(112.5)" xlink:href="#Slice"/><use id="Slice-21" data-name="Slice" width="37.69" height="108.76" transform="translate(198.45 197.58) rotate(135)" xlink:href="#Slice"/><use id="Slice-24" data-name="Slice" width="37.69" height="108.76" transform="matrix(-0.92, 0.38, -0.38, -0.92, 163.36, 221.34)" xlink:href="#Slice"/><use id="Slice-27" data-name="Slice" width="37.69" height="108.76" transform="translate(121.82 229.9) rotate(180)" xlink:href="#Slice"/><use id="Slice-30" data-name="Slice" width="37.69" height="108.76" transform="translate(80.21 221.88) rotate(-157.5)" xlink:href="#Slice"/><use id="Slice-33" data-name="Slice" width="37.69" height="108.76" transform="translate(44.7 198.51) rotate(-135)" xlink:href="#Slice"/><use id="Slice-36" data-name="Slice" width="37.69" height="108.76" transform="matrix(-0.38, -0.92, 0.92, -0.38, 20.95, 163.42)" xlink:href="#Slice"/><use id="Slice-39" data-name="Slice" width="37.69" height="108.76" transform="translate(12.53 121.89) rotate(-90)" xlink:href="#Slice"/><use id="Slice-42" data-name="Slice" width="37.69" height="108.76" transform="translate(20.54 80.29) rotate(-67.5)" xlink:href="#Slice"/><use id="Slice-45" data-name="Slice" width="37.69" height="108.76" transform="translate(43.91 44.78) rotate(-45)" xlink:href="#Slice"/><use id="Slice-48" data-name="Slice" width="37.69" height="108.76" transform="matrix(0.92, -0.38, 0.38, 0.92, 79, 21.03)" xlink:href="#Slice"/><path class="cls-7" d="M92.06,111.71V80.95h6.34a22.42,22.42,0,0,1,3,.18,10.35,10.35,0,0,1,2.56.7,5.83,5.83,0,0,1,2.07,1.39,6.31,6.31,0,0,1,1.3,2.3,10.47,10.47,0,0,1,.49,3.38,5.81,5.81,0,0,1-1.14,3.79,7.55,7.55,0,0,1-3.53,2.19q5.49,1.33,5.49,7.76,0,4.63-2.22,6.85t-6.79,2.22ZM98.25,93h1.06a2.91,2.91,0,0,0,1.44-.32,2.09,2.09,0,0,0,.88-.95,5,5,0,0,0,.42-1.34,10.39,10.39,0,0,0,.12-1.69,7.24,7.24,0,0,0-.11-1.35,6.75,6.75,0,0,0-.25-1,1.45,1.45,0,0,0-.46-.65,3.5,3.5,0,0,0-.57-.39,2.31,2.31,0,0,0-.75-.19q-.5-.06-.81-.07h-1Zm0,14.27h.58a5.71,5.71,0,0,0,2-.28,2.15,2.15,0,0,0,1.14-1,4.33,4.33,0,0,0,.52-1.55,16.44,16.44,0,0,0,.13-2.32,7,7,0,0,0-.85-3.74,3.14,3.14,0,0,0-2.88-1.33h-.62Z"/><path class="cls-7" d="M111.41,100.28V80.95h6.22v19.15q0,1.64,0,2.38t.08,1.81a5.49,5.49,0,0,0,.24,1.5,6.49,6.49,0,0,0,.47.92,1.4,1.4,0,0,0,.78.65,4.47,4.47,0,0,0,2.33,0,1.41,1.41,0,0,0,.78-.64,6.13,6.13,0,0,0,.47-.91,5.42,5.42,0,0,0,.24-1.48q.07-1.05.08-1.78t0-2.35V80.95h6.22v19.33q0,1.47-.08,2.67a22.33,22.33,0,0,1-.33,2.48,11.3,11.3,0,0,1-.65,2.27,8.52,8.52,0,0,1-1.09,1.88,6,6,0,0,1-1.62,1.48,8.07,8.07,0,0,1-2.25.92,13,13,0,0,1-5.92,0,7.94,7.94,0,0,1-2.24-.92,6.08,6.08,0,0,1-1.61-1.48,8.48,8.48,0,0,1-1.09-1.88,11.61,11.61,0,0,1-.66-2.27,20.89,20.89,0,0,1-.33-2.48Q111.41,101.75,111.41,100.28Z"/><path class="cls-7" d="M136.82,111.71V101.54L131,80.95h5.86l2.87,13.52q.53-2.22,1.59-6.76t1.57-6.76h5.69l-5.79,20.6v10.17Z"/><path class="cls-7" d="M67.21,153.72V127.61H62.7V123H77.86v4.65H73.43v26.12Z"/><path class="cls-7" d="M79.93,153.72V123h6.22v30.77Z"/><path class="cls-7" d="M89.41,143.45V133.26q0-10.91,8.92-10.91a10.22,10.22,0,0,1,3.34.5,6.76,6.76,0,0,1,4.09,3.58,10.75,10.75,0,0,1,.92,2.82,18.39,18.39,0,0,1,.28,3.35v2.65h-6.12v-2.84q0-.84,0-1.44a11.18,11.18,0,0,0-.18-1.38,4.78,4.78,0,0,0-.39-1.26,2.25,2.25,0,0,0-.74-.83,2,2,0,0,0-1.17-.34q-2.7,0-2.7,4.55V145q0,4.53,2.7,4.53a2,2,0,0,0,1.35-.46,2.56,2.56,0,0,0,.79-1.31,9.91,9.91,0,0,0,.33-1.66,18,18,0,0,0,.09-1.85v-3.16H107v2.6a21.73,21.73,0,0,1-.29,3.25,12.4,12.4,0,0,1-.87,2.89,7.82,7.82,0,0,1-1.56,2.37,6.93,6.93,0,0,1-2.45,1.56,9.41,9.41,0,0,1-3.45.59,10.19,10.19,0,0,1-3.55-.57,7.21,7.21,0,0,1-2.55-1.54,7.79,7.79,0,0,1-1.65-2.38,11.73,11.73,0,0,1-.91-3A20.4,20.4,0,0,1,89.41,143.45Z"/><path class="cls-7" d="M109.88,153.72V123h6.22v11.68L120.92,123h7l-6.27,12.6,6.73,18.17h-6.46l-4.65-14.07-1.13,2.91v11.16Z"/><path class="cls-7" d="M129.52,153.72V123h12.84v4.27h-6.62v8.38h4.68V140h-4.68v9.47h6.62v4.27Z"/><path class="cls-7" d="M147.5,153.72V127.61H143V123h15.16v4.65h-4.43v26.12Z"/><path class="cls-7" d="M159.16,144.92l6.31-1.21q0,.94,0,1.66a12.88,12.88,0,0,0,.18,1.56,5.64,5.64,0,0,0,.39,1.38,2.48,2.48,0,0,0,.7.91,1.64,1.64,0,0,0,1.07.37q1.85,0,1.85-2.36,0-3.23-3.64-6.43l-1.93-1.64q-.92-.77-1.47-1.28a17.62,17.62,0,0,1-1.29-1.38,8.92,8.92,0,0,1-1.16-1.68,9.93,9.93,0,0,1-1-4.38,7.64,7.64,0,0,1,2.38-5.92,9,9,0,0,1,6.31-2.18,7.51,7.51,0,0,1,5.56,2.32,7.7,7.7,0,0,1,2.29,5.61l0,.22V131l-6.43.89c0-.13,0-.32,0-.59s0-.49,0-.66a7.91,7.91,0,0,0-.08-1.18,6.35,6.35,0,0,0-.28-1.13,2,2,0,0,0-.61-.9,1.52,1.52,0,0,0-1-.33,1.7,1.7,0,0,0-1.54.8,3.45,3.45,0,0,0-.51,1.9,5.3,5.3,0,0,0,.3,1.79,5.1,5.1,0,0,0,.91,1.56,13.42,13.42,0,0,0,1.12,1.21q.51.48,1.37,1.17t1.21,1a26.38,26.38,0,0,1,2.22,2.18,17.12,17.12,0,0,1,1.71,2.3,10.16,10.16,0,0,1,1.21,2.77,12.3,12.3,0,0,1,.4,3.21,6.77,6.77,0,0,1-2.31,5.29,8.12,8.12,0,0,1-5.61,2.06,8.76,8.76,0,0,1-3.79-.79,7.06,7.06,0,0,1-2.67-2.14,10.42,10.42,0,0,1-1.56-3A13,13,0,0,1,159.16,144.92Z"/></svg>