<svg id="Layer_1" data-name="Layer 1" xmlns="http://www.w3.org/2000/svg" viewBox="0 0 662.57 259.58"><defs><style>.cls-1{fill:#218649;}.cls-2{fill:#ffae5f;}.cls-3{fill:#05ce7c;}</style></defs><title>clouds3</title><path class="cls-1" d="M619.37,256.81s65.78-46,5.11-49.23c0,0-4-11.89-21.5-7.05,0,0-3.17-1.5-6-.33,0,0-2.83-15.33-19.33-10.17,0,0-10.33-11.83-23.17-9.67,0,0-5.33-16.17-21.17-15.67,0,0-8-1-14.33,6.67,0,0-6.33-2.5-12.5-1.17,0,0-14-37.33-58.83-36,0,0-6-16.5-19.5-24.17,0,0,5.17-25.67-11.33-42s-51.5-6.33-51.5-6.33S344,68.53,327.48,85.36c0,0-25.83-24.33-74.33-4.83,0,0,30.83-16.83,20.67-35,0,0-10-17.67-45.17-14.33s-61,9.83-94.33,24.5c0,0,24.67-12,8-33.33S91,14.36,89,29c0,0-37.33-25.33-86.67-8.67v237S618.54,257.65,619.37,256.81Z"/><path class="cls-2" d="M422.4,112.69c11.74,4.85,19,22.75,19,22.75,46.19-1.79,63.59,36.22,63.59,36.22,4.34-1.28,13.27.77,13.27.77s6.69-11.08,20.47-6.48,14.49,15.67,14.49,15.67c13.78-2,23.74,10.21,23.74,10.21,2.81-1.79,7.91-1.28,7.91-1.28,10.21,1.28,10.72,11.48,10.72,11.48,3.06-1.53,6.89.26,6.89.26s4.34-3.57,13-1a13,13,0,0,1,8.24,6.56,12.51,12.51,0,0,0-9.09-9.14c-8.5-2.5-12.75,1-12.75,1s-3.19-1.87-6.19-.37c0,0-1.06-9.87-11.06-11.12,0,0-5-.5-7.75,1.25,0,0-9.75-12-23.25-10,0,0-1.25-10-14.75-14.5s-20.5,5.44-20.5,5.44-7.75-1.94-12-.69c0,0-12.75-37.25-58-35.5,0,0-8.25-19.25-19.75-24,0,0,6.5-34.5-18.75-47-7.74-3.83-14.83-3.94-20.67-4.25,5.07.71,11,.9,17.24,4C432.25,75.7,422.4,112.69,422.4,112.69Z"/><path class="cls-2" d="M326.73,85.61s-7.83,10.33-9.83,15.17l2.75-13.33s-19-26.25-66.58-6.83C253.06,80.61,294.56,58.94,326.73,85.61Z"/><path class="cls-3" d="M270.4,65.61s17-24.17-19.67-30.33c-23.56-4-51-1.17-79.33,6.67,0,0,39.39-15.44,78.67-9.67C290.9,38.28,270.4,65.61,270.4,65.61Z"/><path class="cls-2" d="M427.73,114.11s-11.83-3.67-35.33,12.33c0,0,12.5-13.17,34.33-16.17Z"/><path class="cls-3" d="M269.43,93.34C281.5,95.79,290,104.55,289,113.23c.09-.32.18-.65.25-1,1.82-9-6.87-18.35-19.41-20.88s-24.18,2.7-26,11.7c-.07.33-.12.66-.15,1C246.11,95.67,257.35,90.9,269.43,93.34Z"/><path class="cls-3" d="M256.61,68.22c-2.47-7.75-11.68-11.74-20.62-9a7.17,7.17,0,0,0-1.93-4.72c-3.26-3.39-9.48-2.7-13.89,1.54h0A16.08,16.08,0,0,0,216,49.76c-5.06-5.27-12.4-6.43-16.4-2.59-.15.14-.29.29-.42.44,4.08-3.34,11.06-2.08,15.94,3a19.88,19.88,0,0,1,4.24,6.27l.48-.47c4.35-3.7,10.12-4.17,13.22-.94a6.92,6.92,0,0,1,1.65,4.27l.83-.25c8.43-1.89,16.74,2.06,19.07,9.37,2.4,7.51-2.4,15.8-10.78,19,.33-.09.66-.18,1-.29C253.83,84.66,259.1,76,256.61,68.22Z"/><path class="cls-3" d="M299.88,114.28c-6.49-5.4-19.38-3.32-28.87,4.62a6.37,6.37,0,0,0-4.46-3c-5.46-1-12.63,3.39-16,9.87h0c-1.86-1.62-4.63-2.49-7.83-3.1-8.48-1.6-17.83,1.86-20.9,7.72-.11.22-.21.43-.31.65,3.39-5.47,12.37-8.63,20.53-7.09,2.87.54,6.14,1.61,7.94,3l.36-.71c3.56-6,10.29-9.91,15.48-8.93a6,6,0,0,1,3.92,2.8l.88-.73c9.28-6.84,21.07-8.4,27.18-3.32,6.29,5.23,4.28,15.55-4.37,23.5.36-.28.72-.57,1.07-.86C304,130.63,306.4,119.7,299.88,114.28Z"/><path class="cls-3" d="M248.81,95.69s0-11-20.58-14.67c0,0,19.5,3.67,18.67,16.42Z"/><path class="cls-3" d="M288.15,104.94s33.5-12.5,53.25,10.25l1-1.25s-15.75-23.75-55.5-10.5Z"/><path class="cls-3" d="M326.65,125.44c5.5-9.62,18.75-15.75,29.75-11.5C356.4,113.94,340.4,110.69,326.65,125.44Z"/><path class="cls-3" d="M225.4,79.44s-2.5-21.25-26.25-14.25C199.15,65.19,219.4,59.69,225.4,79.44Z"/></svg>