<svg id="Layer_1" data-name="Layer 1" xmlns="http://www.w3.org/2000/svg" viewBox="0 0 927 305.95"><defs><style>.cls-1{fill:#218649;}.cls-2{fill:#05ce7c;}.cls-3{fill:#ffae5f;}</style></defs><title>clouds4</title><path class="cls-1" d="M833.18,171.28s77,24.5,87.51-15.17S857.68,87.27,790,98.94c0,0,2.33-31.5-31.5-36.17s-44.34,14-44.34,14S657-1.4,486.64,35.93c0,0-182-78.18-320.87,12.83,0,0-109.68-54.84-164.69-28V292s423.53,33.45,336-45.89c0,0,111,24.35,66.7,9.19l2.33-9.33s79.34,64.17,147,8.17c0,0,157.52,35,190.19-61.84C743.33,192.29,811,218,833.18,171.28Z"/><path class="cls-2" d="M552.85,106.82s30,28,62.42,7.58c0,0,9.33,28.59-31.5,52.21l-13.42-11.67S558.69,116.15,552.85,106.82Z"/><path class="cls-3" d="M904.65,124.76c-21-20.57-74.38-28.88-113.76-23.63l-4.38.88s1.31-39.23-38.07-37.92c0,0-22.75-1.17-32.82,14.15l3.21,4.08S724.66,68,748.29,68.46s33,13.42,32.52,35.3c0,0,.88,12.69-3.5,19.69,0,0,9.37,3.91,13.13-.44,2.55-1.63-11.38-10.94-3.5-16.19s86.29-7.54,114.2,19.25c21.88,21,12.69,38.07,12.69,38.07S925.65,145.32,904.65,124.76Z"/><path class="cls-3" d="M487.22,39.43S662.24-3,720.44,94.13c0,0,9.63,17.5,11.81,28,0,0-9.86-3.09-18.81-24.5C672.89.64,487.22,39.43,487.22,39.43Z"/><path class="cls-2" d="M569.77,147.36S534.77,8.22,374.91,18.72c0,0,143.52-17.5,191.07,129.52,0,0,22.17,78.18-30,110.85C535.93,259.09,589.61,231.67,569.77,147.36Z"/><path class="cls-2" d="M717.15,111s6.56,12.69,17.72,17.28c0,0,26.69,66.51-23.19,102.61,0,0,41.57-29.32,23.85-88.17C720.44,125.2,717.15,111,717.15,111Z"/><path class="cls-2" d="M776.88,125.2s11.16,5.47,17.06-.66c0,0,39.82,9.63,42.88,31.07,0,0,.66,2.84-12.91,5.47,0,0,10.66-5.5,7.22-11.6C815.82,122.35,787.82,142.7,776.88,125.2Z"/><path class="cls-2" d="M532.14,80s35.3-38.5,71.18-11.08c0,0-27.13-23.63-69.72,14.59Z"/><path class="cls-2" d="M741,130.45s8.75,18.38,4.38,55.57c0,0,55.57,26.69,87.51-20.13,0,0-40.69,27.13-77.88-3.5C755,162.39,782.57,129.13,741,130.45Z"/><path class="cls-2" d="M821.07,134.38s22.32,10.5,17.06,29.75c0,0,37.63,16.19,56.88,4.81,0,0-35.88,0-49.44-18.81S821.07,134.38,821.07,134.38Z"/><path class="cls-2" d="M723.94,88.88s11.81,18.81,14,31.07C737.94,119.94,754.13,105.07,723.94,88.88Z"/><path class="cls-2" d="M555.91,248.15s29.75-21,15.31-97.57c0,0,33.69,29.75,30.19,77.45s107.2,5.25,107.2,5.25S654.36,271.34,555.91,248.15Z"/><path class="cls-2" d="M409.33,240.71s18.38-55.57-2.19-109c0,0,87.95-47.69,46.82,95.82,0,0-15.31,52.07,71.76,37.19C525.72,264.78,467.53,290.59,409.33,240.71Z"/><path class="cls-2" d="M299.83,118.7c5.8-10.57,16.74-18.88,37.31-25.44,0,0-29.75-3.06-57.76,13.56,0,0-25.82-3.5-46.82,5.69,0,0,47.26-4.38,76.72,36.61,0,0,15.46-39.82,65.34-45.51C374.62,103.61,342.26,98,299.83,118.7Z"/></svg>