<svg id="Layer_1" data-name="Layer 1" xmlns="http://www.w3.org/2000/svg" viewBox="0 0 1405 318"><defs><style>.cls-1{fill:#218649;}.cls-2{fill:#ffae5f;}.cls-3{fill:#05ce7c;}</style></defs><title>clouds1</title><path class="cls-1" d="M754.32,249.73s-68.49-45.89-129.16-49.11c0,0-4-11.89-21.5-7.05,0,0-3.17-1.5-6-.33,0,0-2.83-15.33-19.33-10.17,0,0-10.33-11.83-23.17-9.67,0,0-5.33-16.17-21.17-15.67,0,0-8-1-14.33,6.67,0,0-6.33-2.5-12.5-1.17,0,0-14-37.33-58.83-36,0,0-6-16.5-19.5-24.17,0,0,5.17-25.67-11.33-42S366,54.73,366,54.73s-21.33,6.83-37.83,23.67c0,0-25.83-24.33-74.33-4.83,0,0,30.83-16.83,20.67-35,0,0-10-17.67-45.17-14.33s-61,9.83-94.33,24.5c0,0,24.67-12,8-33.33s-51.33-8-53.33,6.67c0,0-37.33-25.33-86.67-8.67v237S753.49,250.56,754.32,249.73Z"/><path class="cls-2" d="M423.07,105.73c11.74,4.85,19,22.75,19,22.75,46.19-1.79,63.59,36.22,63.59,36.22,4.34-1.28,13.27.77,13.27.77s6.69-11.08,20.47-6.48,14.49,15.67,14.49,15.67c13.78-2,23.74,10.21,23.74,10.21,2.81-1.79,7.91-1.28,7.91-1.28,10.21,1.28,10.72,11.48,10.72,11.48,3.06-1.53,6.89.26,6.89.26s4.34-3.57,13-1a13,13,0,0,1,8.24,6.56,12.51,12.51,0,0,0-9.09-9.14c-8.5-2.5-12.75,1-12.75,1s-3.19-1.87-6.19-.37c0,0-1.06-9.87-11.06-11.12,0,0-5-.5-7.75,1.25,0,0-9.75-12-23.25-10,0,0-1.25-10-14.75-14.5s-20.5,5.44-20.5,5.44-7.75-1.94-12-.69c0,0-12.75-37.25-58-35.5,0,0-8.25-19.25-19.75-24,0,0,6.5-34.5-18.75-47-7.74-3.83-14.83-3.94-20.67-4.25,5.07.71,11,.9,17.24,4C432.92,68.73,423.07,105.73,423.07,105.73Z"/><path class="cls-2" d="M327.4,78.64S319.57,89,317.57,93.81l2.75-13.33s-19-26.25-66.58-6.83C253.74,73.64,295.24,52,327.4,78.64Z"/><path class="cls-3" d="M271.07,58.64s17-24.17-19.67-30.33c-23.56-4-51-1.17-79.33,6.67,0,0,39.39-15.44,78.67-9.67C291.57,31.31,271.07,58.64,271.07,58.64Z"/><path class="cls-2" d="M428.4,107.14s-11.83-3.67-35.33,12.33c0,0,12.5-13.17,34.33-16.17Z"/><path class="cls-3" d="M270.1,86.38c12.08,2.44,20.58,11.2,19.56,19.88.09-.32.18-.65.25-1,1.82-9-6.87-18.35-19.41-20.88s-24.18,2.7-26,11.7c-.07.33-.12.66-.15,1C246.79,88.7,258,83.93,270.1,86.38Z"/><path class="cls-3" d="M257.28,61.25c-2.47-7.75-11.68-11.74-20.62-9a7.17,7.17,0,0,0-1.93-4.72c-3.26-3.39-9.48-2.7-13.89,1.54h0a16.08,16.08,0,0,0-4.13-6.31c-5.06-5.27-12.4-6.43-16.4-2.59-.15.14-.29.29-.42.44,4.08-3.34,11.06-2.08,15.94,3a19.88,19.88,0,0,1,4.24,6.27l.48-.47c4.35-3.7,10.12-4.17,13.22-.94a6.92,6.92,0,0,1,1.65,4.27l.83-.25c8.43-1.89,16.74,2.06,19.07,9.37,2.4,7.51-2.4,15.8-10.78,19,.33-.09.66-.18,1-.29C254.51,77.69,259.77,69,257.28,61.25Z"/><path class="cls-3" d="M300.55,107.31c-6.49-5.4-19.38-3.32-28.87,4.62a6.37,6.37,0,0,0-4.46-3c-5.46-1-12.63,3.39-16,9.87h0c-1.86-1.62-4.63-2.49-7.83-3.1-8.48-1.6-17.83,1.86-20.9,7.72-.11.22-.21.43-.31.65,3.39-5.47,12.37-8.63,20.53-7.09,2.87.54,6.14,1.61,7.94,3l.36-.71c3.56-6,10.29-9.91,15.48-8.93a6,6,0,0,1,3.92,2.8l.88-.73c9.28-6.84,21.07-8.4,27.18-3.32,6.29,5.23,4.28,15.55-4.37,23.5.36-.28.72-.57,1.07-.86C304.66,123.66,307.08,112.74,300.55,107.31Z"/><path class="cls-3" d="M249.49,88.73s0-11-20.58-14.67c0,0,19.5,3.67,18.67,16.42Z"/><path class="cls-3" d="M288.82,98s33.5-12.5,53.25,10.25l1-1.25s-15.75-23.75-55.5-10.5Z"/><path class="cls-3" d="M327.32,118.48c5.5-9.62,18.75-15.75,29.75-11.5C357.07,107,341.07,103.73,327.32,118.48Z"/><path class="cls-3" d="M226.07,72.48s-2.5-21.25-26.25-14.25C199.82,58.23,220.07,52.73,226.07,72.48Z"/><path class="cls-1" d="M595.89,318.41s73.9-49.52,139.36-53c0,0,4.32-12.82,23.2-7.61,0,0,3.42-1.62,6.47-.36,0,0,3.06-16.54,20.86-11,0,0,11.15-12.77,25-10.43,0,0,5.75-17.44,22.84-16.9,0,0,8.63-1.08,15.46,7.19,0,0,6.83-2.7,13.49-1.26,0,0,15.1-40.28,63.48-38.84,0,0,6.47-17.8,21-26.07,0,0-5.57-27.69,12.23-45.31s55.56-6.83,55.56-6.83,23,7.37,40.82,25.53c0,0,27.87-26.25,80.2-5.21,0,0-33.27-18.16-22.3-37.76,0,0,10.79-19.06,48.73-15.46s65.81,10.61,101.78,26.43c0,0-26.61-12.95-8.63-36S1310.85,57,1313,72.78c0,0,40.28-27.33,93.51-9.35v255.7S596.79,319.31,595.89,318.41Z"/><path class="cls-2" d="M953.28,163.05c-12.67,5.23-20.5,24.55-20.5,24.55-49.84-1.93-68.61,39.08-68.61,39.08-4.68-1.38-14.32.83-14.32.83s-7.22-12-22.09-7-15.63,16.91-15.63,16.91c-14.87-2.2-25.61,11-25.61,11-3-1.93-8.54-1.38-8.54-1.38-11,1.38-11.56,12.39-11.56,12.39-3.3-1.65-7.43.28-7.43.28s-4.68-3.85-14-1.1a14,14,0,0,0-8.89,7.08,13.5,13.5,0,0,1,9.8-9.86c9.17-2.7,13.76,1.08,13.76,1.08s3.44-2,6.68-.4c0,0,1.15-10.65,11.94-12,0,0,5.39-.54,8.36,1.35,0,0,10.52-12.95,25.08-10.79,0,0,1.35-10.79,15.91-15.64s22.12,5.87,22.12,5.87,8.36-2.09,12.95-.74c0,0,13.76-40.19,62.58-38.3,0,0,8.9-20.77,21.31-25.89,0,0-7-37.22,20.23-50.71,8.35-4.13,16-4.25,22.3-4.59-5.47.76-11.85,1-18.6,4.31C942.65,123.14,953.28,163.05,953.28,163.05Z"/><path class="cls-2" d="M1056.49,133.83s8.45,11.15,10.61,16.36l-3-14.39s20.5-28.32,71.84-7.37C1136,128.44,1091.2,105.06,1056.49,133.83Z"/><path class="cls-3" d="M1117.27,112.25s-18.34-26.07,21.22-32.73c25.42-4.28,55-1.26,85.59,7.19,0,0-42.49-16.66-84.87-10.43C1095.16,82.76,1117.27,112.25,1117.27,112.25Z"/><path class="cls-2" d="M947.52,164.58s12.77-4,38.12,13.31c0,0-13.49-14.21-37-17.44Z"/><path class="cls-3" d="M1118.32,142.17c-13,2.64-22.2,12.09-21.11,21.45-.1-.35-.19-.7-.26-1.06-2-9.71,7.41-19.79,20.94-22.53s26.09,2.91,28,12.62c.07.36.12.72.17,1.08C1143.47,144.69,1131.35,139.54,1118.32,142.17Z"/><path class="cls-3" d="M1132.15,115.07c2.67-8.37,12.61-12.67,22.25-9.68a7.74,7.74,0,0,1,2.08-5.09c3.52-3.66,10.23-2.92,15,1.66h0a17.35,17.35,0,0,1,4.46-6.81c5.46-5.68,13.38-6.93,17.69-2.79.16.15.31.31.45.47-4.4-3.61-11.94-2.25-17.2,3.23a21.45,21.45,0,0,0-4.57,6.76l-.51-.5c-4.7-4-10.92-4.49-14.26-1a7.47,7.47,0,0,0-1.78,4.6l-.89-.27c-9.09-2-18.06,2.23-20.57,10.11-2.59,8.1,2.59,17,11.63,20.46-.36-.09-.72-.19-1.07-.31C1135.14,132.8,1129.46,123.48,1132.15,115.07Z"/><path class="cls-3" d="M1085.47,164.76c7-5.82,20.91-3.58,31.15,5a6.87,6.87,0,0,1,4.81-3.26c5.89-1.11,13.62,3.66,17.28,10.65h0c2-1.75,5-2.69,8.45-3.34,9.14-1.73,19.24,2,22.55,8.33.12.23.23.47.33.7-3.66-5.91-13.34-9.31-22.15-7.64-3.1.58-6.62,1.74-8.57,3.23l-.39-.76c-3.84-6.43-11.1-10.69-16.7-9.63a6.52,6.52,0,0,0-4.23,3l-1-.79c-10-7.38-22.73-9.06-29.33-3.58-6.78,5.64-4.61,16.78,4.72,25.36-.39-.3-.77-.61-1.15-.93C1081,182.4,1078.42,170.61,1085.47,164.76Z"/><path class="cls-3" d="M1140.56,144.71s0-11.87,22.21-15.82c0,0-21,4-20.14,17.71Z"/><path class="cls-3" d="M1098.12,154.69s-36.14-13.49-57.45,11.06l-1.08-1.35s17-25.62,59.88-11.33Z"/><path class="cls-3" d="M1056.58,176.81c-5.93-10.38-20.23-17-32.1-12.41C1024.49,164.4,1041.75,160.89,1056.58,176.81Z"/><path class="cls-3" d="M1165.82,127.18s2.7-22.93,28.32-15.37C1194.15,111.8,1172.3,105.87,1165.82,127.18Z"/></svg>