<svg id="Layer_1" data-name="Layer 1" xmlns="http://www.w3.org/2000/svg" viewBox="0 0 171.73 110.83"><defs><style>.cls-1,.cls-5{fill:#23362b;}.cls-2,.cls-6{fill:#05ce7c;}.cls-3{fill:#ffae5f;}.cls-4{fill:#218649;}.cls-5{stroke:#34714f;stroke-width:0.69px;}.cls-5,.cls-6{stroke-miterlimit:10;}.cls-6{stroke:#23362b;stroke-width:1.37px;}</style></defs><title>fuobe2</title><path class="cls-1" d="M102,50.39a11.77,11.77,0,0,1-5.51-12.65c1.16-4.82,6.58-8.21,10.87-10.09a109.34,109.34,0,0,1,12.2-4,96.48,96.48,0,0,0,20.75-9.35c6.2-3.61,12.72-8.12,19.66-10.11,2.33-.67,5.25-.84,6.77,1a5.6,5.6,0,0,1,1,2.66c.74,4.62-1,9.25-2.77,13.57-2.93,7-6.24,13.93-11,19.84S143,52.14,135.6,54c-6.68,1.69-13.7.82-20.53-.07C110.57,53.35,105.92,52.72,102,50.39Z"/><path class="cls-1" d="M110.74,105.07c8.08-1.38,14.77-6.3,16.35-14.83,2.16-11.64-5.2-26.7-12.45-35.48-7.13-8.62-15.45-15.8-25.73-20.5-8.45-3.86-19.37-5.36-28.22-2.12C53.21,34.87,47,40.29,41.92,46.45A32.87,32.87,0,0,0,35.5,57.52c-1.46,4.84-1.14,10-.69,15.06.54,6,3.7,11.75,7.67,16.18,15.86,17.69,46.14,19.69,67.79,16.38Z"/><path class="cls-2" d="M111.33,65.06a8.39,8.39,0,0,1-.68,4.65,3.46,3.46,0,0,1-4,1.81c1.1,2.54-.12,5.63-2.19,7.47a16.53,16.53,0,0,1-7.4,3.36c3.47,5.4-3.4,7-7.53,6.37.66,1.3-.19,3-1.45,3.68a8,8,0,0,1-4.26.68,2.54,2.54,0,0,0-1.5.25,3.52,3.52,0,0,0-.76.85,4.27,4.27,0,0,1-5.29,1c-.46-.4-5.12,3.34-6.57,2.88a11.34,11.34,0,0,0-2.25-.79,6.77,6.77,0,0,0-2.07.34c-6.32,1.4-15.66-6.52-20.48-9.83-6.24-4.28-10.9-11.6-11.48-19.2-.63-8.31,3.48-16.39,9.15-22.5,4.58-4.93,9.62-9.89,15.83-12.48,8.18-3.42,18-3.45,26.64-1.34a35.87,35.87,0,0,1,8,3,31.23,31.23,0,0,1,13.32,12.52A40.78,40.78,0,0,1,111.33,65.06Z"/><path class="cls-1" d="M46,53.86c1.81-2.93,2.72-8.9,0-11.53C42.5,39,35.54,40,31.22,40c-6.79,0-13.67.56-20.35-.93-2.31-.51-5.23-1.05-6.6.87C1.2,44.32,12.94,52.44,15.8,54.52c5.53,4,12.54,7.57,19.56,6.11C39.6,59.75,43.75,57.55,46,53.86Z"/><path class="cls-2" d="M43.9,42.09C40.59,40,36.46,40,32.71,40.61a80.5,80.5,0,0,1-13.22,1l-1.23,0a32,32,0,0,1-4.57-.78c-1.4-.25-2.81-.51-4.2-.8a12.54,12.54,0,0,0-3.55-.71c-.69,0-1.55.83-1,1.23a.93.93,0,0,0,.45.13,48.55,48.55,0,0,1,5.22,1.23c1.8.4,3.6.81,5.4,1.2a40.16,40.16,0,0,0,10.81.51c2.2-.13,4.27-.69,6.45-.9a13.72,13.72,0,0,1,6.45.73,5.24,5.24,0,0,0,3,.71c1-.24,1.62-1.85.68-2.32.39.13.51.15.38.53"/><path class="cls-1" d="M118.93,86.39a16.32,16.32,0,0,1,13.12-6,2.44,2.44,0,0,1,2,.88c.42.62.14,1.68-.6,1.77a4.41,4.41,0,0,1,5,3.44l-1.28.39A6.5,6.5,0,0,1,139.79,90a6.43,6.43,0,0,1,.17,1.44l.12,3a4.79,4.79,0,0,1-.24,2.14,1.64,1.64,0,0,1-1.71,1,8.21,8.21,0,0,1-.37,4.6c-.69,1.4-2.52,2.35-3.86,1.56a1.18,1.18,0,0,1-.88,1.49,3.41,3.41,0,0,1-1.93-.24,2.55,2.55,0,0,1-2.75,1.6,7.44,7.44,0,0,1-3.15-1.35l-.17,1.8a8,8,0,0,1-4.27-1,16,16,0,0,1-1.95-1.35,9.08,9.08,0,0,1-3.43-6.18A16.13,16.13,0,0,1,118.93,86.39Z"/><path class="cls-2" d="M101.83,34.11a13.46,13.46,0,0,0-2.66,4.32c-.3.71-1.16,4-2.16,2-.78-1.52,2.13-6.64,3.17-7.66A19.39,19.39,0,0,1,105.91,29a62.32,62.32,0,0,1,11-3.72,73.31,73.31,0,0,0,16-5.94c3-1.46,6.69-3.29,9.58-5C148.81,10.48,155.1,6,161.17,3.94c-.26,2.19-1.44,3.58-3,5.12-8.26,8.08-19,13.18-29.78,17.24a60.66,60.66,0,0,1-12.14,3.48C111.17,30.56,105.41,30.46,101.83,34.11Z"/><path class="cls-3" d="M39.81,56c4-2.61,2.61-7.88-2.09-8a25.8,25.8,0,0,0-5.25.44,34.59,34.59,0,0,1-5.51.93c-3.7.09-7.12-1.78-10.7-2.71-.71-.18-1.69-.19-1.92.51a1.31,1.31,0,0,0,.08.83c.9,2.53,3.67,3.78,6.17,4.77l6.12,2.41a28.89,28.89,0,0,0,6.52,2A9.72,9.72,0,0,0,39.81,56Z"/><path class="cls-3" d="M90.2,32.77c-6.48-2.5-16.17-1.88-20.7-.12-2.44,1-12,8.44-11.83,11.91-1.57-2.42-3.69-3-6.08-3.28-7.6-.9-11.43,3.91-14.81,10.25-1.14,2.14-1.52,5.68-1.58,8.11-.16,6.69,8.24.78,11,4.25.41.51.54,1-.13,1.5a2,2,0,0,1-1.4.25c-.77-.1-2-1.08-2,.11a6.23,6.23,0,0,0,.67,2.08A12.41,12.41,0,0,0,46,72.2c3.24,3,10.46,4.83,16,3.76,7.71-1.51,17.86-6.39,17.83-15.31A5.48,5.48,0,0,1,76.8,61a1.89,1.89,0,0,1-1.51-2.2c8.17-.52,17.71-6.56,20.57-14.39C98.12,38.26,95.06,34.64,90.2,32.77Z"/><path class="cls-4" d="M58.46,77c-4.89,0-10.18-1.65-13-4.26a12.85,12.85,0,0,1-2.73-4.61l-.15-.36a5.21,5.21,0,0,1-.57-2,1.23,1.23,0,0,1,.49-1.09,1.75,1.75,0,0,1,1.67.11,3.08,3.08,0,0,0,.58.2,1.39,1.39,0,0,0,.92-.14c.14-.1.17-.16.17-.16s0-.1-.19-.34c-1-1.2-3-1-5-.77s-3.93.42-5.16-.71a4,4,0,0,1-1.05-3.21c0-1.67.28-5.84,1.66-8.42,3.74-7,7.8-11.52,15.5-10.61A8.6,8.6,0,0,1,57.34,43c1.78-4.19,9.88-10.22,11.92-11,4.91-1.91,14.82-2.34,21.19.12h0c6,2.32,8.17,6.78,6.05,12.56-2.72,7.45-11.85,14-20.56,14.79a1,1,0,0,0,.08.19,1.52,1.52,0,0,0,.94.71A4.85,4.85,0,0,0,79.53,60l.9-.29v.94c0,9.14-9.88,14.32-18.38,16A18.86,18.86,0,0,1,58.46,77Zm-15-11a5.59,5.59,0,0,0,.44,1.26l.17.39a11.81,11.81,0,0,0,2.4,4.13c3.16,3,10.19,4.6,15.35,3.58,12-2.35,16.73-8.64,17.23-13.7a4.78,4.78,0,0,1-2.37.12,2.91,2.91,0,0,1-1.82-1.38,2.11,2.11,0,0,1-.18-1.71l.15-.44.46,0c8.39-.53,17.35-6.78,20-13.94,1.87-5.11.1-8.75-5.26-10.81h0c-6.08-2.34-15.53-1.94-20.2-.12-2.62,1-11.5,8.35-11.39,11.25L58.45,47,57.1,44.93c-1.35-2.08-3.14-2.68-5.58-3-6.94-.83-10.55,3.18-14.13,9.89-1.27,2.39-1.47,6.58-1.5,7.81a2.77,2.77,0,0,0,.61,2.17c.77.71,2.38.54,4.09.36,2.22-.24,4.74-.51,6.17,1.28a1.81,1.81,0,0,1,.47,1.4A1.6,1.6,0,0,1,46.49,66a2.67,2.67,0,0,1-1.87.37A3.87,3.87,0,0,1,43.7,66Z"/><path class="cls-5" d="M80.91,41.13a11,11,0,0,1,.69,7.59,8.27,8.27,0,0,1-5.09,5.5,6.65,6.65,0,0,1-7.09-1.86C62.53,44.05,75.63,29.54,80.91,41.13Z"/><path class="cls-5" d="M42.63,53.54a17.45,17.45,0,0,1,2.3-6.3c1.44-2.07,5.16-3,6.49-.25a8.88,8.88,0,0,1,1,3.38,16.5,16.5,0,0,1-1.67,6.4,7.57,7.57,0,0,1-1.69,2.59c-1.26,1.1-3.2.86-4.6.18C42.3,58.48,42.15,55.73,42.63,53.54Z"/><path class="cls-5" d="M68.93,65.51c1.52-1.66,1.89-4.87-.54-6C65.23,58.13,60,60,56.87,60.71a10.48,10.48,0,0,0-4.59,1.9C51,63.71,50.33,65.67,51.2,67.1s2.68,1.72,4.3,1.78a30.66,30.66,0,0,0,8.26-.79A9.86,9.86,0,0,0,68.93,65.51Z"/><path class="cls-5" d="M61,53.12a1.81,1.81,0,0,1,.4.13,1,1,0,0,1,.5.75,2.57,2.57,0,0,1-.08.93,7.62,7.62,0,0,1-.68,2,2.52,2.52,0,0,1-2.07,1.55A1.73,1.73,0,0,1,57.69,58a12.78,12.78,0,0,1-1.26-1.3,3.13,3.13,0,0,1-.85-1.49A1.74,1.74,0,0,1,56,53.83a2.52,2.52,0,0,1,1.52-.55c.66-.08,1.32-.17,2-.2A6.17,6.17,0,0,1,61,53.12Z"/><path class="cls-3" d="M59.94,54.29c1.42-.1-.41,2-.67,2.33a.87.87,0,0,1-.4.33.72.72,0,0,1-.51-.08,3.47,3.47,0,0,1-1.27-1.34.64.64,0,0,1-.14-.39c0-.19.2-.32.37-.4a3.6,3.6,0,0,1,.92-.24Q59.09,54.35,59.94,54.29Z"/><path class="cls-3" d="M115.82,49.26c-3-.26-10.71-1.32-8.82-6,1.07-2.65,5.3-3.55,7.68-4.11,4.17-1,8.52-1,12.69-2,7.14-1.71,13.3-6.21,18.72-11.17S156.39,15.5,162.2,11c1.36,1.38.48,3.69-.46,5.38-4.13,7.41-8.31,14.89-14.08,21.1s-13.36,11.13-21.79,12A53.11,53.11,0,0,1,115.82,49.26Z"/><path class="cls-3" d="M63.57,62.28a8.68,8.68,0,0,0-2.85-.15,9.28,9.28,0,0,0-4,1,10.13,10.13,0,0,0-1.86,1.51c-.37.36-.79,1-.36,1.48s1-.09,1.38-.42a8.34,8.34,0,0,1,1.67-1.08,11.33,11.33,0,0,1,4-.78,7.53,7.53,0,0,1,2.56.11c.38.11,1.76.79,1.77-.09S64.21,62.45,63.57,62.28Z"/><path class="cls-2" d="M131.61,81.08a.67.67,0,0,1,.5.23c.32.49-.67.81-.88,1.35s.31.95.8,1a7.16,7.16,0,0,0,1.48-.13,2.6,2.6,0,0,1,2.3,1.17c.08.67-1.43.66-1.29,1.31a.73.73,0,0,0,.24.35,16,16,0,0,1,4.43,8.51c-1.28-3.12-3.89-5.48-6.41-7.72A25.47,25.47,0,0,0,130,85a2.76,2.76,0,0,1-1.39-2.55C128.87,81,130.37,80.92,131.61,81.08Z"/><polygon class="cls-4" points="96.92 49.64 97.6 50.46 99.14 50.33 97.94 51.36 98.89 52.81 97.09 52.26 95.63 53.63 96.19 51.31 94.77 50.41 96.4 50.46 96.92 49.64"/><polygon class="cls-4" points="90.23 64.04 90.14 61.5 87.58 61.4 89.75 59.95 88.5 57.37 91.34 58.64 94 56.68 92.63 60.37 94.77 62.13 92.11 61.73 90.23 64.04"/><polygon class="cls-4" points="55.32 35.82 56.7 36.31 58.03 35.13 57.73 36.89 59.87 38.13 57.38 38.16 56.71 40.23 56.2 38.24 54.42 38.03 55.82 36.96 55.32 35.82"/><polygon class="cls-4" points="37.63 72.36 36.95 71.08 35.2 71.05 36.6 69.98 35.88 67.65 37.7 69.29 39.57 68.24 38.6 70.02 39.75 71.37 38.03 71.2 37.63 72.36"/><path class="cls-3" d="M79.15,40.34A7.81,7.81,0,0,1,79.82,45a7.13,7.13,0,0,1-1.65,4,3.82,3.82,0,0,1-4,1.14c-3.3-1.25-4.32-7.67-2.17-10.25C74,37.52,77.59,37.44,79.15,40.34Z"/><path class="cls-3" d="M50.57,47.51a7.73,7.73,0,0,1,.84,2.74,5.08,5.08,0,0,1-1.11,3.93c-1.06,1.22-3.58,2.19-4.58.4a4.79,4.79,0,0,1-.45-2.24,10,10,0,0,1,.28-3.06,4.16,4.16,0,0,1,1.75-2.45A2.26,2.26,0,0,1,50.57,47.51Z"/><path class="cls-6" d="M70.86,43.4a2,2,0,0,1,3-2.14c1.53.61.81,3-.29,3.6a1.85,1.85,0,0,1-2.43-.53A2.15,2.15,0,0,1,70.86,43.4Z"/><path class="cls-6" d="M45.81,49.89a2.21,2.21,0,0,1,.54-1.25,1.3,1.3,0,0,1,1.31-.23,1.42,1.42,0,0,1,1,1.24,1.94,1.94,0,0,1-.69,1.77,1.39,1.39,0,0,1-1.68.11A1.77,1.77,0,0,1,45.81,49.89Z"/></svg>