<svg xmlns="http://www.w3.org/2000/svg" xmlns:xlink="http://www.w3.org/1999/xlink" viewBox="0 0 809.56 124.59"><defs><style>.cls-1{fill:none;}.cls-2{isolation:isolate;}.cls-3,.cls-9{fill:#fff;}.cls-4{clip-path:url(#clip-path);}.cls-5{fill:#05ce7c;}.cls-6{fill:#e6e6e6;mix-blend-mode:multiply;}.cls-7{clip-path:url(#clip-path-2);}.cls-8{fill:#23362b;stroke:#fff;stroke-miterlimit:10;stroke-width:6.61px;}.cls-9{opacity:0.3;}</style><clipPath id="clip-path"><path class="cls-1" d="M789.66,84.71l-.08,6.7-73.26,4.17-9.78-8.48-30.81-3.47S670.81,103.54,665.4,107l-91.77-28.1-533.74-59-.74,3.61L25.64,21.22,19.9,15.55l7.73-3.16,11.93-1.68.58,3.76L576.2,59l92.92-6S676.94,64,676,72.59l29.44,3.65,12.12-6.35Z"/></clipPath><clipPath id="clip-path-2"><path class="cls-1" d="M19.9,84.71l.08,6.7,73.26,4.17L103,87.1l30.81-3.47s4.92,19.91,10.34,23.32l91.77-28.1,533.74-59,.74,3.61,13.51-2.19,5.73-5.68-7.73-3.16L770,10.71l-.58,3.76L233.37,59l-92.92-6S132.62,64,133.59,72.59l-29.44,3.65L92,69.89Z"/></clipPath></defs><title>lances</title><g class="cls-2"><g id="Layer_1" data-name="Layer 1"><path class="cls-3" d="M789.66,84.71l-.08,6.7-73.26,4.17-9.78-8.48-30.81-3.47S670.81,103.54,665.4,107l-91.77-28.1-533.74-59-.74,3.61L25.64,21.22,19.9,15.55l7.73-3.16,11.93-1.68.58,3.76L576.2,59l92.92-6S676.94,64,676,72.59l29.44,3.65,12.12-6.35Z"/><g class="cls-4"><path class="cls-5" d="M678,54.7s-19,28.72-60.48,51.56l24.08-5.34S678.1,80.54,686.7,57.7Z"/><path class="cls-5" d="M677.78,85.77s-9.43,13.57-33.24,23.13l25.38-.43L681.8,89.35Z"/><path class="cls-5" d="M661.13,49.45s-8.62,31.9-59.7,50.64l-4.11-8.18S642,73.13,639.41,51.7s-.51-1.4-.51-1.4Z"/><path class="cls-5" d="M625.61,52.16S608,86.08,585.14,89.88l-6.69-6.12s31.42-13.91,32.29-30.58Z"/><path class="cls-5" d="M596.56,53.93s-19.3,31.37-28.94,33.64l-9.23-4.39s24.18-21.1,16.42-29.68Z"/><path class="cls-6" d="M798.28,88c-1.5,0-75.5,1-75.5,1s2.5-7.5,0-12c0,0-3,13-6.5,13l-8-6.5L668.78,79s-8,19.5-82.5-3.5l-550.5-59-9,1.5-15-5.5-10,25,36,11.5,712.5,81.5s53-27.5,53-29.5S798.28,88,798.28,88Z"/><path class="cls-5" d="M563,57.19s-.83,16.34-11.66,20.16l-16-1.13s14.22-7.12,16.78-20.92Z"/><path class="cls-5" d="M533,54.66s-.28,15.79-11.1,19.61l-15.71-1.18s13.42-6.54,16-20.34Z"/><path class="cls-5" d="M503,52.12s.28,15.24-10.55,19.06L477,69.95s12.63-6,15.19-19.76Z"/><path class="cls-5" d="M473,49.58s.83,14.7-10,18.51l-15.19-1.27a27.55,27.55,0,0,0,14.39-19.18Z"/><path class="cls-5" d="M442.93,47s1.39,14.15-9.44,18l-14.93-1.32a25.74,25.74,0,0,0,13.6-18.6Z"/><path class="cls-5" d="M412.89,44.5s1.94,13.6-8.88,17.41l-14.66-1.37s10.24-4.21,12.8-18Z"/><path class="cls-5" d="M382.83,42s2.5,13-8.33,16.86l-14.4-1.42s9.45-3.63,12-17.43Z"/><path class="cls-5" d="M352.75,39.43s3.05,12.5-7.77,16.31l-14.14-1.47s8.65-3.05,11.21-16.85Z"/><path class="cls-5" d="M322.65,36.89s3.61,11.95-7.22,15.76l-13.88-1.52s7.85-2.47,10.41-16.27Z"/><path class="cls-5" d="M292.54,34.35s4.16,11.4-6.66,15.21L272.26,48s7.06-1.89,9.62-15.69Z"/><path class="cls-5" d="M262.42,31.81s4.72,10.85-6.11,14.66L243,44.85s6.26-1.31,8.82-15.11Z"/><path class="cls-5" d="M232.28,29.27s5.27,10.3-5.55,14.11l-13.09-1.67s5.47-.73,8-14.53Z"/><path class="cls-5" d="M202.13,26.73s5.83,9.75-5,13.57L184.3,38.58s4.67-.15,7.23-13.95Z"/><path class="cls-5" d="M172,24.2s6.38,9.2-4.44,13L155,35.44s3.88.44,6.44-13.36Z"/><path class="cls-5" d="M141.81,21.66s6.94,8.65-3.89,12.47l-12.31-1.82s3.08,1,5.64-12.78Z"/><path class="cls-5" d="M111.64,19.12s7.49,8.1-3.33,11.92l-12-1.87s2.29,1.6,4.85-12.2Z"/><path class="cls-5" d="M81.45,16.58s8,7.56-2.78,11.37L66.9,26s1.49,2.18,4.05-11.62Z"/><path class="cls-5" d="M51.27,14s8.6,7-2.22,10.82l-11.52-2s.7,2.76,3.25-11Z"/></g><path class="cls-3" d="M19.9,84.71l.08,6.7,73.26,4.17L103,87.1l30.81-3.47s4.92,19.91,10.34,23.32l91.77-28.1,533.74-59,.74,3.61,13.51-2.19,5.73-5.68-7.73-3.16L770,10.71l-.58,3.76L233.37,59l-92.92-6S132.62,64,133.59,72.59l-29.44,3.65L92,69.89Z"/><g class="cls-7"><path class="cls-5" d="M131.58,54.7s19,28.72,60.48,51.56L168,100.92S131.47,80.54,122.86,57.7Z"/><path class="cls-5" d="M131.79,85.77S141.22,99.34,165,108.9l-25.38-.43L127.76,89.35Z"/><path class="cls-5" d="M148.43,49.45s8.62,31.9,59.7,50.64l4.11-8.18S167.53,73.13,170.15,51.7s.51-1.4.51-1.4Z"/><path class="cls-5" d="M184,52.16s17.57,33.92,40.47,37.71l6.69-6.12S199.7,69.85,198.83,53.17Z"/><path class="cls-5" d="M213,53.93s19.3,31.37,28.94,33.64l9.23-4.39S227,62.08,234.76,53.49Z"/><path class="cls-6" d="M11.28,88c1.5,0,75.5,1,75.5,1s-2.5-7.5,0-12c0,0,3,13,6.5,13l8-6.5,39.5-4.5s8,19.5,82.5-3.5l550.5-59,9,1.5,15-5.5,10,25-36,11.5L59.28,130.5s-53-27.5-53-29.5S11.28,88,11.28,88Z"/><path class="cls-5" d="M246.58,57.19s.83,16.34,11.66,20.16l16-1.13S260,69.1,257.44,55.3Z"/><path class="cls-5" d="M276.59,54.66s.28,15.79,11.1,19.61l15.71-1.18s-13.42-6.54-16-20.34Z"/><path class="cls-5" d="M306.59,52.12s-.28,15.24,10.55,19.06l15.45-1.23S320,64,317.41,50.19Z"/><path class="cls-5" d="M336.6,49.58s-.83,14.7,10,18.51l15.19-1.27A27.55,27.55,0,0,1,347.4,47.63Z"/><path class="cls-5" d="M366.63,47s-1.39,14.15,9.44,18L391,63.68a25.74,25.74,0,0,1-13.6-18.6Z"/><path class="cls-5" d="M396.68,44.5s-1.94,13.6,8.88,17.41l14.66-1.37s-10.24-4.21-12.8-18Z"/><path class="cls-5" d="M426.74,42s-2.5,13,8.33,16.86l14.4-1.42S440,53.77,437.47,40Z"/><path class="cls-5" d="M456.82,39.43s-3.05,12.5,7.77,16.31l14.14-1.47s-8.65-3.05-11.21-16.85Z"/><path class="cls-5" d="M486.91,36.89s-3.61,11.95,7.22,15.76L508,51.13s-7.85-2.47-10.41-16.27Z"/><path class="cls-5" d="M517,34.35s-4.16,11.4,6.66,15.21L537.3,48s-7.06-1.89-9.62-15.69Z"/><path class="cls-5" d="M547.15,31.81s-4.72,10.85,6.11,14.66l13.35-1.62s-6.26-1.31-8.82-15.11Z"/><path class="cls-5" d="M577.28,29.27s-5.27,10.3,5.55,14.11l13.09-1.67s-5.47-.73-8-14.53Z"/><path class="cls-5" d="M607.43,26.73s-5.83,9.75,5,13.57l12.83-1.72s-4.67-.15-7.23-13.95Z"/><path class="cls-5" d="M637.59,24.2s-6.38,9.2,4.44,13l12.57-1.77s-3.88.44-6.44-13.36Z"/><path class="cls-5" d="M667.75,21.66s-6.94,8.65,3.89,12.47l12.31-1.82s-3.08,1-5.64-12.78Z"/><path class="cls-5" d="M697.93,19.12s-7.49,8.1,3.33,11.92l12-1.87S711,30.77,708.46,17Z"/><path class="cls-5" d="M728.11,16.58s-8,7.56,2.78,11.37L742.67,26s-1.49,2.18-4.05-11.62Z"/><path class="cls-5" d="M758.3,14s-8.6,7,2.22,10.82l11.52-2s-.7,2.76-3.25-11Z"/></g><rect class="cls-8" x="318.15" y="27.13" width="172.68" height="53.23"/><path class="cls-5" d="M746.37,14.5s-6,5-2,10.67l23.5-3.5s-3.33-5.67-1.33-8Z"/><path class="cls-5" d="M766.2,21.5,747,24.83s11.67,16.83.33,28.33,5,61,5,61l2-14.83,14.33,12.33s-14-47-3.67-57.33S766.2,21.5,766.2,21.5Z"/><path class="cls-9" d="M748.95,52.91s-5,3.92-4.92,15.17c0,0,9.67-7.33,16.5-5,0,0,.42-7.33,4.08-9.75C764.62,53.33,754.12,56.58,748.95,52.91Z"/><polygon class="cls-9" points="747.2 15 745.37 17.66 764.03 16.16 764.87 14.33 747.2 15"/><path class="cls-6" d="M747.87,24.66l18-2.5,1.08,3.92s-13.58-.25-15.83,4.92C751.12,31,749.28,26.33,747.87,24.66Z"/><path class="cls-5" d="M63.57,14.5s6,5,2,10.67l-23.5-3.5s3.33-5.67,1.33-8Z"/><path class="cls-5" d="M43.74,21.5l19.17,3.33s-11.67,16.83-.33,28.33-5,61-5,61l-2-14.83L41.24,111.66s14-47,3.67-57.33S43.74,21.5,43.74,21.5Z"/><path class="cls-9" d="M61,52.91s5,3.92,4.92,15.17c0,0-9.67-7.33-16.5-5,0,0-.42-7.33-4.08-9.75C45.32,53.33,55.82,56.58,61,52.91Z"/><polygon class="cls-9" points="62.74 15 64.57 17.66 45.91 16.16 45.07 14.33 62.74 15"/><path class="cls-6" d="M62.07,24.66l-18-2.5L43,26.08S56.57,25.83,58.82,31C58.82,31,60.66,26.33,62.07,24.66Z"/></g></g></svg>