<svg id="Layer_1" data-name="Layer 1" xmlns="http://www.w3.org/2000/svg" viewBox="0 0 484.53 424.09"><defs><style>.cls-1{fill:#23362b;}.cls-2{fill:#ffae5f;}.cls-3{fill:#05ce7c;}.cls-4{fill:#218649;}.cls-5{fill:none;}</style></defs><title>peggy</title><path class="cls-1" d="M374.15,221.9s-7.75,1.82-17.37,23.75c0,0-.3,3.27-4.41,4.94-5.13,5.69-12.84,10-23.25,4.83,0,0-10.67-3.92,9.58-21.43h10.67s3.19,1.19,5-3.37c0,0,6.57-12.59,8.39-25.72l15.33,8.72Z"/><path class="cls-2" d="M340,234.75s1.67,1.14,2.58,6.76l10-1.86s-1-4.3-1.56-4.75Z"/><path class="cls-2" d="M356.76,245.69s8.51-20.06,17.81-23.23a35,35,0,0,0,3.65-7.79l-1.28.26a44.13,44.13,0,0,1-3,6.43C373.81,221.34,363,227,356.76,245.69Z"/><path class="cls-3" d="M338.62,235.66l-.08,1.82s-9.37,5.69-9.53,12.91c-.25,8.09,11.64-8.69,11.64-8.69v2S330,260.2,327.8,252.42,338.62,235.66,338.62,235.66Z"/><path class="cls-3" d="M342.88,242.58l-.3,1.67-1.14,1.9,9.82-2.54s.6-1.57,1.91-1.75c0,0-1-.52-2.76.62,0,0,1.23-1.48,2.17-1.62Z"/><path class="cls-1" d="M351.3,235.6s-.34,1.06-2.32.77-2.26,1-2.26,1a2.92,2.92,0,0,1,2.44-.29,3.12,3.12,0,0,0,2.68-.72,1.27,1.27,0,0,1-1,1.33,17.9,17.9,0,0,0-2.15.89s1.86-.75,2.44-.29a2.59,2.59,0,0,0,1.51.4l-.15-2.79Z"/><path class="cls-1" d="M352.81,234.07s-.83.62-1.28-.09-3.42-1.23-3.42-1.23,2.72.94,2.77,1.87,1.3,1.2,1.3,1.2Z"/><path class="cls-3" d="M349.42,232.66a2.73,2.73,0,0,1,2,1.77c.35,1.43,1.07.89,1.07.89l1.62-2.9L356.9,226l.42-1.75L353.55,232,352,233.49A3,3,0,0,0,349.42,232.66Z"/><path class="cls-3" d="M363.74,230.48s-5.13,8.11-7,13.46-4.54,1.47-4.54,1.47,3,2.36,4.12-1.71,7.19-13.43,7.19-13.43Z"/><path class="cls-3" d="M356.71,245.89a2.16,2.16,0,0,1-.48,2.05,2.38,2.38,0,0,0-.8,1.73,2.32,2.32,0,0,1,.21-2.09c.68-.91.48-1.41.48-1.41l.32.32Z"/><path class="cls-3" d="M355.61,246.63a4.8,4.8,0,0,0-1.09,1.78c-.22.89-1.94,1.29-1.94,1.29s1.92-1.2,1.15-2.23A3.67,3.67,0,0,0,355.61,246.63Z"/><path class="cls-3" d="M352.57,243.43a3,3,0,0,1,2-1.56c1.56-.6,2.85-3.83,2.85-3.83a6.58,6.58,0,0,1-2.56,4.33C352.49,244,352.57,243.43,352.57,243.43Z"/><path class="cls-3" d="M355.06,243.42s-.05,1-1.52,1c0,0,1.16,1.55,2-.27l1.09-2.42A4.78,4.78,0,0,0,355.06,243.42Z"/><path class="cls-3" d="M353.3,248s-.56,1.3-1.33,1.56-1.77,2-1.77,2,.13-2.19,1.41-2.75a2.18,2.18,0,0,0,1.36-1.74Z"/><path class="cls-3" d="M375.95,215.35l-2.46,5.18s-5,2.87-7,5.13-4.53,0-4.53,0a3.62,3.62,0,0,0,4.17-1.11c1.71-2.16,5.23-4.38,6.74-4.43l1.36-3.82Z"/><path class="cls-1" d="M392.46,93.58S378.37,113.3,380.79,125s10.86,6,9.66,35.41,17.7,31.78,17.7,31.78,23.34.8,11.27,27.36c0,0-11.67,4.83-18.91,33.8,0,0,1.21,4.43-5.63,6.84a95.78,95.78,0,0,1-14.08,3.62s-12.07,2.82-9.66-13.28S380,238.42,380,238.42l11.67,2,8.85-14.89,6-17.7s-.8-6-8-.8-32.19,16.09-43.85-5.63c0,0-4.43,24.94-82.48,39l-13.28,34.2s.8,42.65-25.75,57.94c0,0-20.12,34.6-11.27,63.17,0,0,12.87,27-11.27,24.54s-5.23-30.17-5.23-30.17,2-45.46,14.08-66c0,0-3.62-29.37-1.61-37.82,0,0-21.32-22.93-20.52-43l-8.45,48.68s-1.21,8-6,11.27-14.48,18.51-14.48,18.51-2,34.2-14.08,51.5c0,0-3.22,7.24,3.22,16.09s-9.25,14.08-9.25,14.08-14.48,4.83-15.69-17.7c0,0-1.61-6.84,11.27-18.91s10.46-34.2,10.46-34.2l-3.22-8.45s-4.83-7.24,4-19.71,12.87-34.6,8.45-49.49S139,190.54,178.82,165.6a41,41,0,0,1,29-9.25c17.7,1.21,94.95,3.22,133.17-83.28,0,0,9.66-39.43,51.9-46.27l6.84-18.1s6-10.46,10.46,1.21l.4,14.89s6,1.21,8.45,2.82l23.74-13.28s6.84,9.25-14.89,26.15l3.22,13.28s12.47,7.64,6,26.55v23.34a7.64,7.64,0,0,0,2.41,6.84c3.22,2.82,16.29,21.12-3,30,0,0-3.62,2.21-3.62-3l-1.21,3.82S422,146.29,417,136c0,0-2.21-11.27-6-14.48S393.26,109.67,392.46,93.58Z"/><path class="cls-1" d="M433.53,57.79l41-51.1-48.28,34.2S417.44,52.16,433.53,57.79Z"/><path class="cls-2" d="M380.57,239.75s2.64,1.13,2.72,9.35l10.71-3s-1.36-4.22-2.11-4.68Z"/><path class="cls-2" d="M400.54,253.32s7.39-27.91,18.91-33.8c0,0,7.29-14.79,1.26-21.12s-11.54-6.19-11.54-6.19,9.28,3.77,10.56,7.39,4,4.83-1.36,18.56C418.37,218.17,405.12,227.6,400.54,253.32Z"/><path class="cls-3" d="M374.9,243.82l1.12,1.05s-6.46,9.55-.84,15.24c6.32,6.4,5.24-13.65,5.24-13.65l1.66-.23s2.09,20.9-6.48,16.13S374.9,243.82,374.9,243.82Z"/><path class="cls-3" d="M383.54,251l-.15,3.7,9.51-3.09s.53-2.19,2.11-2.72c0,0-1.43-.53-3.47,1.28,0,0,1.36-2.11,2.49-2.49Z"/><path class="cls-1" d="M391.59,241.1s-.3,1.47-2.87,1.47-2.75,1.7-2.75,1.7a3.61,3.61,0,0,1,3.13-.83,3.6,3.6,0,0,0,3.32-1.4,1.81,1.81,0,0,1-1.13,1.92,15,15,0,0,0-2.64,1.62s2.3-1.32,3.17-.79a3.1,3.1,0,0,0,2.07.23l-.72-3.58Z"/><path class="cls-1" d="M393.17,238.8s-1,1-1.74.08-4.71-1-4.71-1,3.73.68,4,1.89,1.92,1.28,1.92,1.28Z"/><path class="cls-3" d="M388.5,237.63s2.34.11,3,1.89,1.58.91,1.58.91l1.62-4.07,6.37-10.11-.52-.68-6.31,10.52-1.58,3.28S390.57,237,388.5,237.63Z"/><path class="cls-3" d="M406.83,232.13s-5.24,11.62-6.6,19-5.66,2.75-5.66,2.75,4.3,2.49,5.05-3,6.83-18.93,6.83-18.93Z"/><path class="cls-3" d="M400.64,253.55a2.93,2.93,0,0,1-.3,2.79,3.18,3.18,0,0,0-.75,2.41,3.4,3.4,0,0,1-.11-2.83c.68-1.32.38-2,.38-2l.53.34Z"/><path class="cls-3" d="M399.28,254.8a5.56,5.56,0,0,0-1.06,2.53c0,1.17-2.3,2.07-2.3,2.07s2.3-1.92,1.13-3.13A5.08,5.08,0,0,0,399.28,254.8Z"/><path class="cls-3" d="M394.71,251.21a4.33,4.33,0,0,1,2.26-2.46c2-1.11,3-5.58,3-5.58a8.62,8.62,0,0,1-2.56,6.19C394.66,251.82,394.71,251.21,394.71,251.21Z"/><path class="cls-3" d="M398,250.61s.15,1.31-1.81,1.61c0,0,1.86,1.81,2.51-.75s1-3.42,1-3.42A7,7,0,0,0,398,250.61Z"/><path class="cls-3" d="M396.49,256.95s-.53,1.81-1.51,2.34-2,3-2,3-.23-2.87,1.28-3.92a3.16,3.16,0,0,0,1.43-2.56Z"/><path class="cls-3" d="M406.71,231.56l.3.19s5.21-11.39,10.56-13.69c0,0,3.47-7.2,3.43-11.32,0,0-1.77.26-3.09,2.9,0,0,1.74-1.85,2.38-1.81,0,0-1.92,8.07-3,9.13s-1.13-2.56-1.13-2.56a3.22,3.22,0,0,0-.41,3.62A38.54,38.54,0,0,0,406.71,231.56Z"/><path class="cls-3" d="M406.15,203.39a13.64,13.64,0,0,0,4,2.11c2,.53,4,3.85,2.11,6.26,0,0,4.07-3-.15-6.71s-2.26-4.45-2.26-4.45-2.72.53.3,4.15A18.43,18.43,0,0,1,406.15,203.39Z"/><path class="cls-2" d="M414.62,195.89l-5.63-3a25.88,25.88,0,0,1-4.22-1S411.4,195.19,414.62,195.89Z"/><path class="cls-3" d="M383.74,210.33s12.9-2,18-5.81c0,0,5.73-1.13,4.55,4,0,0,.5-4.88-4.4-2.46s-13,7.32-19.69,7.77C382.23,213.87,384.65,212.21,383.74,210.33Z"/><path class="cls-3" d="M383.52,206.55a4.91,4.91,0,0,0-1.06,3.85,4.38,4.38,0,0,1-1.36,3.77s-8.75.68-9.35,3.47c0,0,2-5.13,8.45-4.6a6.41,6.41,0,0,0-6.79,1.28s-6.26-.23-10.18-4.07c0,0-1.58-.3-2.34,1.81,0,0-.91-2.11,2-3.17,0,0,6.56,4.68,10.33,4.15,0,0,4.75-2.49,7.62-.68a3.26,3.26,0,0,0,.45-2C381.1,209.42,383.52,206.55,383.52,206.55Z"/><path class="cls-4" d="M383.94,209.17a5.9,5.9,0,0,1,2.26-4.17s-1.86,3-1.11,3.92Z"/><path class="cls-4" d="M380.62,211s-1.41-2.11,1.56-5.08,2.72-5.53,2.72-5.53-2.21,4.53-3.82,5.13-2.77,3.92-1.91,5.38Z"/><path class="cls-4" d="M375.44,211.48a7.34,7.34,0,0,0-2.31.91,3.48,3.48,0,0,1-2.87-2.77c-.65-2.56-3.62-3.17-3.62-3.17a3.87,3.87,0,0,1,4.48,3C372,213,375.44,211.48,375.44,211.48Z"/><path class="cls-4" d="M367.8,210.88s-3.62-1.76-4.17-2.82.45-4-1.46-4.88c0,0,2.82-.3,2.16,4.68,0,0,2.21,2.16,3.77,2.11Z"/><polygon class="cls-4" points="368.86 210.18 368.61 211.18 371.12 212.24 368.86 210.18"/><path class="cls-3" d="M273.6,240s1.81-3.82,1.41-4.83c0,0,12.67.4,23.84-5,0,0-1.31,3.82-3.12,4.93C295.73,235.12,285,237.94,273.6,240Z"/><path class="cls-3" d="M297.14,235s3.72-3.82,3.62-6a13.47,13.47,0,0,0,7.54.7c3.82-.91,2.31,1.51,2.31,1.51S299.15,234.72,297.14,235Z"/><path class="cls-3" d="M311.93,230.69s.5-2.51-3.92-2.11c0,0,21-5.93,28.06-11.67,0,0,.3,3.72-.91,4.22C335.16,221.14,318.26,229.69,311.93,230.69Z"/><path class="cls-3" d="M337,216.51s.5,3.12-.6,4c0,0,13.33-6.84,18.56-18.51a16.47,16.47,0,0,1-2.36-6.74s-1.41,1.71.4,7c0,0-6.74,12-14.48,15,0,0-.7-4.73-5.13-4.93C333.35,212.39,336.57,213.9,337,216.51Z"/><path class="cls-3" d="M355.18,200.12a28.06,28.06,0,0,1-1.91-7.64s-2.21,1.31-2.51,4.93a6.48,6.48,0,0,1,2.51-6.64,11.81,11.81,0,0,1-4.33-.3s6.44-1.21,7.34-4.43c0,0,.91,3.82-1.91,5.83A21.5,21.5,0,0,0,355.18,200.12Z"/><path class="cls-3" d="M357.29,190.71a5.07,5.07,0,0,1-1.86,1.91s-.4,6.89,2.06,11.57c0,0,.65,2.56-.45,3.07,0,0,2.65.71,1.11-3.77S356.08,197.75,357.29,190.71Z"/><path class="cls-3" d="M359.8,204.44s.65,3.37-.8,4.27c0,0,2.51,1.51,3-1.76,0,0,.5-2.31-.25-2.62,0,0,.05,2.41-1.06,3.22C360.66,207.56,361,204.69,359.8,204.44Z"/><path class="cls-3" d="M361.09,204.44s.48-1.43-1.53-3.12c-2.69-2.25.43-10.23.43-10.23s-4.27,8.92-1,11C361,203.36,361.09,204.44,361.09,204.44Z"/><path class="cls-3" d="M357.89,193.38s1-4.33.25-5.93C358.14,187.44,360.48,189.68,357.89,193.38Z"/><path class="cls-3" d="M398.83,189.86a5.28,5.28,0,0,1-2,1.46c-1.26.4-2.82,3.77-2.82,3.77s-.91,3.32-3.42,3.72c0,0,2.77.18,4.25-3.72,0,0,1.36-3,2.49-3.22S398.83,189.86,398.83,189.86Z"/><path class="cls-3" d="M399.06,190.54a3,3,0,0,1-.88,1.51c-.63.45,1,.1,1.26-1.21Z"/><path class="cls-3" d="M402,192.9l1,.65s-2.41-1.08-3.37,2.49-2.72,4.2-2.72,4.2,2-3,2-4.53S400.51,192.42,402,192.9Z"/><path class="cls-2" d="M397.75,192.85s-1.53,1-.75,3.57-2.59,5.13-2.59,5.13,2.41-2.94,1.86-4.9S396.21,192.85,397.75,192.85Z"/><path class="cls-3" d="M395.91,187s1.46,1.33-1,3a11.38,11.38,0,0,0-3.6,4.22l-.68,0s1.21-4.25,3.75-4.65.53-2.14.53-2.14Z"/><polygon class="cls-3" points="391.19 194.56 390.58 194.63 390.68 195.44 391.19 194.56"/><path class="cls-3" d="M392.14,196.29l-.68.35a2.82,2.82,0,0,0,.68,1.08l.58-.53Z"/><path class="cls-3" d="M393.1,195.44s-.53.33-.45.38.43.58.43.5a3.19,3.19,0,0,1,.38-.53Z"/><polygon class="cls-3" points="393.83 193.93 393.6 194.38 393.85 194.48 394.15 194.03 393.83 193.93"/><path class="cls-3" d="M394.83,192.5l-.63.78s.25.25.25.18a8,8,0,0,1,.53-.83Z"/><path class="cls-3" d="M394.33,187.82s1.16.63.2,1.11-1.71.5-2.41,1.31a1.89,1.89,0,0,1,1.16-1.71l.3.5.5-.2-.43-.68Z"/><path class="cls-3" d="M393.3,183.47s.55,2.26-1.21,3.17-2.82,4.07-2.82,4.07.18-3.32,2-4.43c0,0,1.56-1.81.73-2.39C392,183.9,393.1,183.77,393.3,183.47Z"/><path class="cls-3" d="M391.59,184s.45.75-.1,1.18-2.41,1.74-3.32,1.71a1.7,1.7,0,0,1,.58-1.16S390.91,185.08,391.59,184Z"/><path class="cls-3" d="M386.63,185.71l-.43,1.11s-2.31.18-3.24-1.06C383,185.76,385.68,186.64,386.63,185.71Z"/><path class="cls-3" d="M391.79,180.58a1.57,1.57,0,0,1-1,1.38,6.51,6.51,0,0,0-4.07,3s-1.21,1-1.63.38,3.22-4,5.28-3.85C390.33,181.48,391.19,180.48,391.79,180.58Z"/><path class="cls-3" d="M391.09,177.49s-2.14,1-3.17-.45c0,0,1.21.05,1.56-.4,0,0,.75.33,1.11-.1C390.58,176.53,391.21,177,391.09,177.49Z"/><path class="cls-3" d="M390.63,178.21a4.39,4.39,0,0,1-4-1.08s-.91.15-1.06.85a4,4,0,0,0,2.46,1.56S390.38,178.84,390.63,178.21Z"/><path class="cls-3" d="M387.06,179.95l-1.08,1s-1.63.43-2-.05c0,0,1.08-.73,1.06-1.36C385,179.5,385.45,180.2,387.06,179.95Z"/><path class="cls-3" d="M385.38,181.51a9.32,9.32,0,0,0-1.56,4,2,2,0,0,1-1.28-.68s.91-2.92,1.53-3.34A2.4,2.4,0,0,0,385.38,181.51Z"/><path class="cls-3" d="M382.51,183.27l-.33,1a3.39,3.39,0,0,0-2.49-1.11A2.1,2.1,0,0,1,382.51,183.27Z"/><path class="cls-3" d="M389.27,187.39l-1.18.2s-.18,4.85-3.37,6.11C384.72,193.7,388,194.21,389.27,187.39Z"/><path class="cls-3" d="M393.37,198l-.63.4s1.48,2.46-.45,3.44C392.29,201.85,394.73,201.65,393.37,198Z"/><path class="cls-3" d="M385.35,175.73a2.07,2.07,0,0,0-1,.75,3.45,3.45,0,0,0-3-1.16A3.79,3.79,0,0,1,385.35,175.73Z"/><path class="cls-3" d="M383.67,178.77a2,2,0,0,1-1,1.08,4.22,4.22,0,0,0-2.44-1.38A3.53,3.53,0,0,1,383.67,178.77Z"/><path class="cls-3" d="M388.39,175.07a2.31,2.31,0,0,1-1.13.35,1.62,1.62,0,0,0-1.61-.13S386.53,173.94,388.39,175.07Z"/><path class="cls-3" d="M382.41,185.86a4.4,4.4,0,0,0,1.23.8,5.48,5.48,0,0,0,0,2c.2,1-1.16,1.68-1.16,1.68s.8-.45.35-1.86A8.47,8.47,0,0,1,382.41,185.86Z"/><path class="cls-3" d="M384.07,187.32l0,.55s1.41.45,1.81.18l.15-.63S384.47,187.62,384.07,187.32Z"/><path class="cls-3" d="M382.11,186.31l.13.7a8.23,8.23,0,0,1-1.31-.48Z"/><path class="cls-3" d="M388.85,171.07s.38.78,0,1.06a3.49,3.49,0,0,1-1.28.28v-1.06Z"/><path class="cls-3" d="M387,171.17l.05,1.26s-1.18.05-1.38-.23c0,0-.05-1.91.45-2.31C386.11,169.89,386.46,170.95,387,171.17Z"/><path class="cls-3" d="M385.53,170.12a4.89,4.89,0,0,0-.45,3.07c.38,1.51,0,1.81,0,1.81a4.88,4.88,0,0,1-1-.3c0-.08.53-1.13.23-1.63a4.43,4.43,0,0,1-.13-1.91Z"/><path class="cls-3" d="M389.75,173.81l-1.43.55.45.5S389.78,174.54,389.75,173.81Z"/><path class="cls-3" d="M383.79,172.1a5.67,5.67,0,0,1-.85.78c-.25.13-.25-.73-.25-.73a5.62,5.62,0,0,1-2.36.83s2.59.93,3.65.15Z"/><path class="cls-3" d="M388.82,168.31s-.55.88-1.26.93C387.56,169.24,388.62,169.92,388.82,168.31Z"/><path class="cls-3" d="M387.84,165.29a2.5,2.5,0,0,1-.88,2.24s.35-1.66-.15-1.84Z"/><path class="cls-3" d="M386.53,166.09a1.34,1.34,0,0,1-1.66.6s1.26.88,1.66.8C386.53,167.5,386.73,166.35,386.53,166.09Z"/><path class="cls-3" d="M385.83,168.06a7.31,7.31,0,0,1-1.53-.91,4.18,4.18,0,0,0-.4,1.63A4.31,4.31,0,0,1,385.83,168.06Z"/><path class="cls-3" d="M383.21,166.27a6.75,6.75,0,0,0-.33,2l-.8-.05a7.56,7.56,0,0,1,.68-2Z"/><path class="cls-3" d="M383.39,168.81l.2,1.08a2.44,2.44,0,0,1-2.09.55,4.6,4.6,0,0,0,.43-1.48A2.08,2.08,0,0,0,383.39,168.81Z"/><path class="cls-3" d="M380.42,168.53l-.28,1.26a7.86,7.86,0,0,0-3.17,0A4.78,4.78,0,0,1,380.42,168.53Z"/><path class="cls-2" d="M392.59,179.7l0,.13C392.67,179.75,392.59,179.7,392.59,179.7Z"/><path class="cls-2" d="M402.15,189.76c-.44-1.26-4-2.76-7.15-8.23a5.29,5.29,0,0,1-1,2.58,2.66,2.66,0,0,1-1.18,2.78,8.08,8.08,0,0,0-2.92,4.53s2-3.22,4-4.07,2-1.51,2-1.51,1.91,2.16.25,3.72a18.44,18.44,0,0,0-3.77,4.43c-.85,1.56-3.67,3.52-3.67,3.52s3.92-1.11,4.63-3.37,3.67-3.77,3.67-3.77,1.36-.6,1.61-1.26c0,0,2.62,1.31.4,3.07s-1.46,3.72-1.46,3.72,1.21-3,3.07-3.32,1.56-.1,1.56-.1,3.07,2,5.23,1.61C407.38,194.08,403,192.07,402.15,189.76Z"/><path class="cls-1" d="M393.72,178.48l0,0Z"/><path class="cls-5" d="M392.64,179.82c0-.07,0-.13,0-.13Z"/><path class="cls-2" d="M394.21,180A29,29,0,0,1,391,169.69l-.73.13c1-1.84-.45-4-.45-4a6.93,6.93,0,0,0,.15-2.07c.21,0,.44-.5.6-.89-.08-1.8-.1-3.72,0-5.79,0,0-3,5.13-6.74,6.54A5.39,5.39,0,0,0,381,168a5.52,5.52,0,0,1-2,4.33s2.11-.15,2.67-4.22,2.56-3.77,2.56-3.77,3.92-1.36,5.08-3.82a6.37,6.37,0,0,1-4.58,4.68s-1.61.35-1.31,3A2.66,2.66,0,0,1,385,166c1.41-.5,3.22-1.11,3.62-1.71,0,0,.2,3.42-2.36,4.27a5.68,5.68,0,0,0-3.32,3.67s2.26-3.07,3.87-3.17,2.31-2.21,2.31-2.21,1.21,2.41-.65,3-1.81-.05-1.81-.05-.25,1.61,2.46.91c0,0,1.71,1.46-.8,2s-2.92-.1-2.92-.1a2.88,2.88,0,0,0,3.82,1s2-.6.85.8-3.72,1.51-3.72,1.51-2.31.05-2.16,2-2.46,3-2.46,3,2.21.75,3.27-2.87c0,0-.1-1.46,2-1.36a7,7,0,0,0,3.92-1.26s2.11,2.82-1,4-4.63,2.62-5,4.17c0,0,2.87-3.22,5.58-3.32,1.73-.06,2.11-.25,2.16-.38l0-.13s.08.05,0,.13c.15.42.44,1.82-1.81,2.54a7.23,7.23,0,0,0-4.48,5.43,5.45,5.45,0,0,1-3.72,4.07s3.32.45,4.53-3.92,4.48-4.58,4.48-4.58,1.46,0,1.81-.7A3.22,3.22,0,0,0,394.21,180Z"/><path class="cls-4" d="M388.57,192.37s-1.81,2.36-4.17,2.56-3.57,4.63-3.57,4.48,2.11-3.27,4.17-3.67a6.49,6.49,0,0,0,3.32-1.81Z"/><path class="cls-4" d="M382.89,181.51l-.65.85a10.72,10.72,0,0,1-1.61-.4C380.78,181.91,382.89,181.51,382.89,181.51Z"/><path class="cls-4" d="M382.94,177.69a7.21,7.21,0,0,0-6.09,1.41,6.46,6.46,0,0,1,6.39-2.41Z"/><path class="cls-4" d="M389,194.74l.55,1.06a3.23,3.23,0,0,0-2.36,1.86A2.55,2.55,0,0,1,389,194.74Z"/><path class="cls-4" d="M381.28,184.88S379,182.82,375,186c0,0,4.38-1.66,5.43-.05l1.11-.4Z"/><path class="cls-2" d="M381.43,161.19s7.74-.91,9.66-6.54l-.1-1.11s-.45-5.73-.6-7.44c0,0-.65,4.22-5.83,3.62S372.83,154,372.83,154s8.65-4.68,11.92-3.52a4.08,4.08,0,0,0,4.88-1.26s1.21,4-3.77,4.73-5.83,2.36-5.83,2.36,3.87-1.76,6.24-1.51a4.34,4.34,0,0,0,3.47-.85s1.56,1.41-2.26,2.36-3.32,1.71-3.32,1.71a5.32,5.32,0,0,1,4-.8S387.67,159.43,381.43,161.19Z"/><path class="cls-3" d="M389.17,150.58a2.87,2.87,0,0,1-1.86,2.46,14.68,14.68,0,0,1-5,.45,17.79,17.79,0,0,1,4.33-.91c1.86-.05,1.31-1.31,1.31-1.31Z"/><path class="cls-3" d="M388,155.61s-4.07.91-6.34,3A5.61,5.61,0,0,1,388,155.61Z"/><path class="cls-3" d="M386.61,157.87a7.3,7.3,0,0,0-3.32,1.61S386,159.23,386.61,157.87Z"/><path class="cls-3" d="M387.11,160.14a8.66,8.66,0,0,1-4.78,3.12s-.15-.88-3.37-.83C379,162.42,384.85,161.74,387.11,160.14Z"/><path class="cls-2" d="M384.57,148.54s4.68.45,5.36-3-2.41-9-2.41-9-1.51-5.36-6.49,2.56c0,0-1.58,3.09-1.58,4.6s-3.55,3.7-3.55,3.7,3.09.08,4.53-4a17.54,17.54,0,0,1,3.24-6s2.11-2.72,3.09-.23,2.79,6.41,2,8.15S388,147.71,384.57,148.54Z"/><path class="cls-3" d="M387.89,143.07a3.72,3.72,0,0,1-2.72,4.68c-3.73,1-6.22,1-9.09,3.43a12.68,12.68,0,0,1,8.71-4s2.87-.41,1.92-4.19-.08-3.32-.08-3.32Z"/><path class="cls-2" d="M386.35,138.77s-1.7.3-.49,3.92-1.4,3.89-1.4,3.89,1.77-1.06.83-3.81-.64-4.94.6-5.28Z"/><path class="cls-3" d="M385.1,137.11s-1.4.72-1.28,3.92-3.51,5.39-3.51,5.39,2.79-2.68,2.75-5.43A4.39,4.39,0,0,1,385.1,137.11Z"/><path class="cls-2" d="M382.27,141.38a7,7,0,0,0-1.66,3.77S382.57,142.81,382.27,141.38Z"/><path class="cls-2" d="M383.54,144s.72,2.21-2.66,3.06c0,0,3.09,0,3.55-1.4a4.05,4.05,0,0,0,.28-2s-.19,1.38-.83,1.83A1.89,1.89,0,0,0,383.54,144Z"/><path class="cls-2" d="M380,139.6s2.23-5.66,6-5.24c0,0-.26-1.51-1.4-1.24S381.06,136.06,380,139.6Z"/><path class="cls-2" d="M384.91,132.59a8.72,8.72,0,0,0-4.79,5c-1.4,3.77-7.69,5.05-7.69,5.05s5.51-1.81,7.13-5.47,3.73-4.6,3.73-4.6-2.15-.45-6.34,2.11-6.37,1.89-6.37,1.89,5.21-1.21,6.15-2.68,6-3.09,7-2.6A2.32,2.32,0,0,1,384.91,132.59Z"/><path class="cls-2" d="M383.33,130.66s-4.11.26-6.3,1.92-3.47,1.62-3.47,1.62a11.15,11.15,0,0,0,3.21-2.23,5.92,5.92,0,0,1,4.11-1.92,5.79,5.79,0,0,0-3.88.11,3.88,3.88,0,0,1,3.55-1.21s.74-3.47-3.49-2.45a9,9,0,0,0-5.79,4s-1,2.68-4.71,2.41a4.47,4.47,0,0,0,4-2.79c.93-2.48,4.91-4.33,6.3-4.49,2.7-.3,3.06-1.28,3.06-1.28s-.75-1.51-3.36-.34-3.7,1-3.7,1a8.91,8.91,0,0,0,3.51-1.55c.92-.8,3.39-1.43,4.34-.41a2.68,2.68,0,0,1,.79,3.06s1.28,1.7.53,2.83C382,129,383.37,129.42,383.33,130.66Z"/><path class="cls-3" d="M379.72,140.3a9.15,9.15,0,0,0-1.18,3.32c-.25,1.86-2.39,2.62-2.39,2.62s2-1.61,1.66-2.69a5.21,5.21,0,0,1,0-2.46Z"/><path class="cls-3" d="M377.2,141.43l-.08,1a4.67,4.67,0,0,1-1.68-.23S377,141.83,377.2,141.43Z"/><path class="cls-3" d="M376.07,140.47a8.08,8.08,0,0,1-1.36.83,1.19,1.19,0,0,0-1-.8s1-.45,1.46.3Z"/><path class="cls-3" d="M377.1,142.83a3.53,3.53,0,0,0,.15,1,1.29,1.29,0,0,1-.78,1.26s.76-.58.38-1.18a1.72,1.72,0,0,1-.31-1.07Z"/><path class="cls-3" d="M376.08,142.71a1.94,1.94,0,0,0,0,1.05c.19.45-.35,1-.95.85,0,0,.89-.28.51-.8a2,2,0,0,1-.25-1.32Z"/><path class="cls-3" d="M375.28,140.5l.65-.22s-.93-1.39-3.47-.73C372.46,139.56,374.68,139.49,375.28,140.5Z"/><path class="cls-3" d="M386.86,151.43s.15.5-.2.6-3.37-1.51-10,1.91c0,0-5.58,3.32-6.49,3.32a55.27,55.27,0,0,0,5.83-3.82C376.85,152.54,383.14,149.88,386.86,151.43Z"/><path class="cls-3" d="M380.37,153.9a14.9,14.9,0,0,0-6,3.37S379.92,155.21,380.37,153.9Z"/><path class="cls-3" d="M379.27,156.26s-3.72,2.16-5.83,2c0,0,4,1.11,5.73-1.06Z"/><path class="cls-3" d="M381.63,156.72a4.61,4.61,0,0,0-2.41,1.66l1.26.25Z"/><path class="cls-3" d="M382.74,160.08s-3.57-.55-4.33-1.31L377,159s3.32,1.61,4.58,1.66Z"/><path class="cls-4" d="M380.42,161.39s-3.52-.75-4.53-1.71-5.93.55-6.14.6,3.82-1.06,5.93.3,2.82,1.36,2.82,1.36Z"/><path class="cls-4" d="M375,151.49s1.76-2.72,3.72-3.22c0,0-3.47.6-4.83,3.17Z"/><path class="cls-4" d="M376.2,148.07s-.65.5-2.51-.15a4.83,4.83,0,0,0-4.73,2.41s3.07-1.91,5.13-1.21C374.09,149.12,375.75,148.72,376.2,148.07Z"/><path class="cls-4" d="M381.53,164a9.12,9.12,0,0,0-6.44-.3s5.43.1,5.78,1.36Z"/><path class="cls-4" d="M372.48,154.85s-5.08,3.17-7.8,3.42C364.68,158.27,368.66,154.5,372.48,154.85Z"/><path class="cls-3" d="M381.29,133.46a8.63,8.63,0,0,0-2.68,4.07C378,140,374.46,139,374.46,139s-3.06-.3-4.45.87c0,0,1.28-1.58,4.56-1.4s3.36-1.13,3.36-1.13S379.41,133.68,381.29,133.46Z"/><path class="cls-3" d="M379,134.32s-1.28,1.77-1.85,2.68-3.09.91-3.09.91l-2.53.34,2.45-.79s2.38-.23,2.79-1.06l.49-1A6.58,6.58,0,0,1,379,134.32Z"/><polygon class="cls-3" points="376.31 136.02 376.09 136.47 374.09 137 376.31 136.02"/><path class="cls-3" d="M375.6,134.13a11.37,11.37,0,0,1-3.85,1.51c-1.74.19-4.3,2.19-4.3,2.19s2.26-2.56,4.34-2.64A14.8,14.8,0,0,0,375.6,134.13Z"/><path class="cls-3" d="M377.52,130.55a6.57,6.57,0,0,0-1.74,1.58c-.53.83-4.45,2.07-4.45,2.07s3.06-1.36,3.85-2.41,1.21-1.21,1.21-1.21Z"/><path class="cls-4" d="M371.75,137.49s-2.79-.64-5.81,2.87c0,0,3.28-2.11,4.75-1.58a2.57,2.57,0,0,0-1.85-.34A6.42,6.42,0,0,1,371.75,137.49Z"/><path class="cls-4" d="M374.84,142.55a38.06,38.06,0,0,1-3.77,1.06s2.79.11,3.58-.34l.19.49a6,6,0,0,1-2,.6,4.5,4.5,0,0,0,1.77.19l.75-.57S374.77,142.92,374.84,142.55Z"/><path class="cls-4" d="M376.12,145.49s-4.75-1.51-6.94.45c0,0,5.36-.72,6.37.91l-.41-1.13Z"/><path class="cls-4" d="M380.16,128.74s-1.58-1.85-5.7,2.9c0,0-1,1.36-4.64,2.34,0,0,3.58-1.58,4.07-2.75S378.42,126.1,380.16,128.74Z"/><path class="cls-3" d="M379.82,127.76s-2.79-1.66-7.2,3.43-9.2,3.58-9.2,3.58,5.66-.11,8.64-3.88S377.93,126.1,379.82,127.76Z"/><path class="cls-2" d="M380.65,122.14s-2-8.22,10.86-27.31c0,0-1.81-2.56.45-7.69,1.32-3-4.53-6.19-4.53-6.19s5,3.92,3.17,6.56-.75,7.39-.75,7.39-6.41,10.33-8.9,17.8c-2.37,7.12-5.13,2.56-5.13,2.56s2.19,4.75,4.53,1.66l-1,4.6Z"/><path class="cls-3" d="M379.29,118.9s-.3,3.32-5.36,3.92-6.26,3.09-6.26,3.09-.15-3.09,6.19-3.92,3.62-3.24,3.62-3.24Z"/><path class="cls-3" d="M380.35,112.11l-.91,2.56s-.83.91-1.36.91l1.43-4.15Z"/><path class="cls-3" d="M379.9,110.3l.75.53s5.66-13.43,8.3-15.92L388.87,93a53.65,53.65,0,0,0-4,6.49c-.75,1.89-3,1.43-3,1.43s1,1.21,1.74.91Z"/><path class="cls-4" d="M392.8,93.4l1.51-1.11s-1.71,15,18.71,29.07c0,0,3.32,2.41,5.83,14.48,0,0,1.21,3.82,3.32,4.43a2.48,2.48,0,0,0,1,2.41s-5.33-1.71-6.34-6.84-2.72-11.67-5.33-13.08S390.18,106.47,392.8,93.4Z"/><path class="cls-3" d="M416.63,117.14c15,21.42,8.75,23.84,8.75,23.84a5.35,5.35,0,0,1-2.72-.4s.8,3.72,4.53,1.91-1.31-13.08-1.31-13.08a122.91,122.91,0,0,0-7.39-11,110.4,110.4,0,0,0-7.8-9.39S414.3,113.8,416.63,117.14Z"/><path class="cls-4" d="M437.9,134.25a6.94,6.94,0,0,1-3.74.82.82.82,0,0,0,.06.45c.42.88,2.51.75,4.66-.29s3.56-2.59,3.13-3.46a1.16,1.16,0,0,0-.92-.53C441,132.13,439.73,133.37,437.9,134.25Z"/><path class="cls-1" d="M437.36,132.06c-1.82.88-3.1,2.12-3.19,3a6.94,6.94,0,0,0,3.74-.82c1.82-.88,3.1-2.12,3.19-3A6.94,6.94,0,0,0,437.36,132.06Z"/><path class="cls-2" d="M433.58,136.85s2,5.13,8.25-1.66-2.87-5.13-2.87-5.13,1.51-2.11,5.23-.91a2.31,2.31,0,0,0,1.21-2.56s1.56.15,1.51,1.46a10.73,10.73,0,0,1-4.48,8.8c-4.83,3.52-8.1,6.89-9.1,3.07S433.58,136.85,433.58,136.85Z"/><path class="cls-3" d="M433.48,135.95s-.91-4.22,4.68-5.68c0,0,1.06-3.27,5.88-1.76,0,0-2.11-3.42-7.34.8C436.7,129.31,429.81,132.73,433.48,135.95Z"/><path class="cls-3" d="M429,136.4s1.56,5.23-1.26,6.44l4.27-1.16s1.06.05.3-1.86a4,4,0,0,1,.2-3.87s-1.86-1.91-1.81-3.47c0,0-3.47-1.36-4.07-2.87Z"/><path class="cls-2" d="M446.36,126s1.36-3-2.56-9.35c-3.55-5.74-6.67-6.69-6.11-16.37l-2.34.38s-1.21,3.73,1.51,9.88c2.87,6.49,5.43,12.45,3,14.71A5.72,5.72,0,0,1,446.36,126Z"/><path class="cls-4" d="M409.79,108.08l-1.41,1.41a7.46,7.46,0,0,1-5.23-.8s5.33.2,5.33-1.81Z"/><path class="cls-4" d="M407.32,106c-1.46,1.3-3.53,1.89-6.37.31a5.8,5.8,0,0,0,5-.33Z"/><path class="cls-3" d="M416.93,102.45s-3.17-1.13-5.13,1a11.86,11.86,0,0,1-2.31,2.34L410.6,107a4.15,4.15,0,0,1,.38-1.06,4.77,4.77,0,0,1,2.69-2.3Z"/><path class="cls-4" d="M409.37,97.87a17.26,17.26,0,0,0-1.68.86s-6.34,3.52-9.15-1.91c0,0,4,4.22,8.45.4,1.23-1.06,3.7-2.39,5.36-2Z"/><path class="cls-3" d="M391.79,92.39s4-4.22,7.34-.5,9.15,2.41,9.15,2.41a14.78,14.78,0,0,1,3.75-.52l.31-.75a9.3,9.3,0,0,0-4.67.47c-6,1.91-8-3-8-3S394.61,86.36,391.79,92.39Z"/><path class="cls-4" d="M397.42,92.59s3,4.53,8.35,3.42C405.77,96,400.54,100.94,397.42,92.59Z"/><path class="cls-3" d="M393,83.84a3.73,3.73,0,0,1-.2,5s4.93-3.52,8.25-.1,9.05-1.61,9.05-1.61-5.53,3.42-8.55.4a6.1,6.1,0,0,0-6.34-1.71s1.11-3.62,7.95-3.32a8.08,8.08,0,0,0-8.65,1.71s-1.61-3.92.2-5.33C394.71,78.91,391.19,79.22,393,83.84Z"/><path class="cls-3" d="M418.14,79.42s-1.41-4.83-8.15-4.73-13.88-3.52-13.88-3.52,7.54,4.63,13.68,5S418.14,79.42,418.14,79.42Z"/><path class="cls-3" d="M418.24,81.93c0-.3-1.71-3.22-5.83-3.82s-5.83,2.41-10.46,1.81c0,0,3.12,3.22,8.85.8s7.85,5.53,7.85,5.53Z"/><path class="cls-4" d="M407.18,77.31a54.39,54.39,0,0,1-5.43-1.71S402.45,79.62,407.18,77.31Z"/><path class="cls-4" d="M417.14,85.86a10.77,10.77,0,0,0,.76,3.7l-1.44,1.08a4.48,4.48,0,0,1-1.24-2.16c-.91-3.42-3.22-4.83-6.24-5.23C409,83.24,416.33,81.63,417.14,85.86Z"/><path class="cls-3" d="M425.48,97.72s5.23,4.33,8.15,3.12l.2,2.72s-7.85-3.22-13.18.5c0,0,3-4.22,7.95-2.62C428.6,101.45,425.58,99.33,425.48,97.72Z"/><path class="cls-3" d="M424.83,99.86a10.07,10.07,0,0,1-1-3.22l-2.31-2.46L420,95.44s1,6.64-1.94,7.54c0,0,3.52.4,4.12-4.83C422.22,98.15,423.22,100.16,424.83,99.86Z"/><path class="cls-2" d="M443.19,13.54s9.45,10.86-16.9,27.36c0,0-2.82,12.07,3,15.49,0,0,4.63,2.82,6.24,2.41l-.2,6.84s-4.43.5-6.84-5.63-10.56-7.64-10.56-7.64,5.83-1.11,7.64,1.81a6.49,6.49,0,0,0-7-4.43l3.32-9S447.71,30,443.19,13.54Z"/><path class="cls-2" d="M437.76,99.28s-8.45,4-15.77-6.34l-5.58,3.92-.68-3.77,5.13-4.45s-1.66-3.24-1.13-9.2a35.77,35.77,0,0,0-1.28-11.16c5.21,7,9.13,5.05,19.16,14.63Z"/><path class="cls-2" d="M414.42,65.14l-.5,3.72s2.62,2.31,3.82,2.51l-.4-3.92Z"/><path class="cls-1" d="M427.55,81c.23-.08,7.22,3.92,8.5,6.41,0,0,2,2.41-1,2.92C431.55,90.86,427.55,81,427.55,81Z"/><path class="cls-2" d="M437.23,81.71l.15-1.74s6.19-14-2.49-22.56l-1.13,1.13,1.58,7.09s4.9.38,2.11,7.92c-1.77,4.8-1.28,7-1.28,7Z"/><path class="cls-3" d="M436.77,71.3s-2.34,5.73-2.19,7.77c0,0-7-5.13-9.2-6.34s-5.73-5.66-5.73-5.66,8.22,6,10.71,6.94,1.81-.53,1.81-.53l-6.64-4.22,7.17,2.79s-7-4.3-9.73-9.35C423,62.7,433.46,72.28,436.77,71.3Z"/><path class="cls-4" d="M428.17,65.71s-5.51-10.41-10.33-10.64C417.84,55.08,424.78,64.13,428.17,65.71Z"/><path class="cls-4" d="M425.76,67.9s-5-7-8.6-7.69C417.16,60.21,419.27,67.52,425.76,67.9Z"/><path class="cls-4" d="M415.7,73.68c.27,0-3.55-3.7-8.15-2.94A9.79,9.79,0,0,0,415.7,73.68Z"/><path class="cls-4" d="M413.11,64.53s-11.57-6.74-9.25-23.64c0,0-3.22,5.63-3.72,7.54,0,0,.1,12.17,12.77,20Z"/><path class="cls-3" d="M415,94c-4.18,4.57-10,9.47-14.23,6.91-5.88-3.59-6.54-2.41-6.54-2.41s-2.21-.5-1.91-2.21l-.8.4.4,3.12s.13,1.64,2.21,1.31c3.12-.5,5.83,2.31,5.83,2.31s5.14,6,15.73-5.9Z"/><path class="cls-4" d="M418.07,97.32l-3.39,3.47a2.41,2.41,0,0,1,2.11-.08C417.84,101.24,418.07,97.32,418.07,97.32Z"/><path class="cls-4" d="M419.2,104.26s-5.43-.91-7.24,4.38c0,0,7.54,7.69,9.2,10.41,0,0-5-9.35-7.39-10.86A7.45,7.45,0,0,1,419.2,104.26Z"/><path class="cls-3" d="M433.38,104.71s-10.11-2.26-17.2,3.77c0,0,6.79,8.15,9.35,14.79,0,0-3.92-11.47-6.49-14.63C419,108.64,423.88,104.71,433.38,104.71Z"/><path class="cls-4" d="M416.15,30.44c-.42-.1,25.93-15,25.93-15S424.86,32.52,416.15,30.44Z"/><path class="cls-3" d="M418.33,36.58l.82,2.46-1.36,9.69,3.27-9.42S441,32.9,442.34,17.07C442.34,17.07,438.8,34,418.33,36.58Z"/><path class="cls-3" d="M434.84,66.64s.91,3.42-2.21,2.11-5.93-7.85-5.93-7.85S432.42,69.46,434.84,66.64Z"/><path class="cls-2" d="M475.57,5.89l-42,51.9s-7.24-2.92-6.14-7.74c0,0,4.43,5,7.85,3.42l5-5.73S437,46.23,436.35,44c0,0,3.92,1.91,5.63,1.11l-.1-1.81,2,.2,5.83-7.24V33.75l1.81.4,4.73-5.93-.6-1.81,1.71.2,3.32-3.82-.5-1.81H462l1.61-1.81-.2-2,1.71-.1Z"/><path class="cls-3" d="M439.16,32,475.57,5.89l-10.76,9-.2,1.21-1-.5-3.22,2.51.1,1.61-2.31-.3-5.33,3.82a3.56,3.56,0,0,0,.2,2.92,3.6,3.6,0,0,1-2.11-1.81l-8,6.44s-1,2.31-.6,3.82A3.61,3.61,0,0,1,439.16,32Z"/><path class="cls-3" d="M427.7,41.9s-1.51,8.35,6.64,10.56l2.11-2s-6.94-4.93-5.83-10.46c0,0-3.12,4.63,2.92,10.76C433.53,50.75,428.7,49,427.7,41.9Z"/><path class="cls-3" d="M434.44,39.39a9.38,9.38,0,0,0,6.44,5.13l-.1-1.51S436.65,42.2,434.44,39.39Z"/><path class="cls-3" d="M388.87,89.68s-4.53,2.92-5.53,4.33-7.85,2.92-7.85,2.92,6.54-2.72,7.74-5,6.64-5,6.64-5S389,89.38,388.87,89.68Z"/><path class="cls-3" d="M389.68,85.55s-4.12,1.31-6,3.72S376,90.88,376,90.88s4.82,0,6.64-2.62c1.71-2.41,5.93-4.33,5.93-4.33Z"/><path class="cls-2" d="M419.15,27.52l-3.82,1.61s-16.09-6.44-29.17,8.45c0,0,3.62-12,22.33-11.47a28,28,0,0,0-14.79,1.81l-.8-1.31s11.27-3.82,17.7-1.71Z"/><path class="cls-2" d="M404.26,4.18s4.53,3.32,3.12,20.32l3.22.4S410.2,10,410,9.71,409.29,4.28,404.26,4.18Z"/><path class="cls-3" d="M406.32,22.94s1.64-9.69-2.46-17.88c0,0,2,12.69-.41,14.6l-8.73,4.91S402.91,21.71,406.32,22.94Z"/><path class="cls-3" d="M414.52,29.73s-22.78-7.24-29.27,19-33.34,33.34-33.34,33.34,27.16-2.26,35-32.89c0,0,3.77-22.18,26.25-18.26Z"/><path class="cls-3" d="M412.26,31.84s-21,2.72-20.52,29.42-19.61,20.67-19.61,20.67S392,84.8,390.23,61.26s16-29.57,16-29.57S410.45,31.09,412.26,31.84Z"/><path class="cls-2" d="M403.66,31.69s-8.25,2.11-14.18,12.17l2.11.55A23.75,23.75,0,0,1,403.66,31.69Z"/><path class="cls-3" d="M388.92,45.42l2.06.7a36.77,36.77,0,0,0-2.16,13.23S387.16,51.71,388.92,45.42Z"/><path class="cls-4" d="M386.86,52.81s.45,5.18,1,6.29l-2.77-.25A39.06,39.06,0,0,0,386.86,52.81Z"/><polygon class="cls-4" points="384.27 60.43 388.34 60.73 388.8 62.09 383.29 61.87 384.27 60.43"/><path class="cls-3" d="M386.46,63s-1.28,12.67-3.17,15.09l2.11-1.51S387.59,74.09,388,63Z"/><path class="cls-3" d="M384.8,81,382.69,82s-1.74,5-3.32,6.41C379.37,88.42,383.29,86.84,384.8,81Z"/><path class="cls-3" d="M385,62.85s-3,11.24-8.45,17.88l-1.89.23s7.32-9.28,8.75-18.26Z"/><path class="cls-4" d="M385.1,65.86s-2.56,11.32-6,14L382,78.39S383.89,76,385.1,65.86Z"/><path class="cls-4" d="M389.55,76.12l-.91,1.28s.3,3.55,2.56,5.21A25.57,25.57,0,0,1,389.55,76.12Z"/><polygon class="cls-4" points="386.23 81.93 384.87 85.03 387.67 83.22 386.23 81.93"/><path class="cls-4" d="M391.59,70.16l-.6,2.19s3.09,5.28,6.86,7.54C397.85,79.9,392.8,74.09,391.59,70.16Z"/><polygon class="cls-4" points="390.91 73.86 390.23 75.22 390.83 77.93 392.49 76.12 390.91 73.86"/><path class="cls-4" d="M393.17,77l-2,1.81.45,1.06S393.32,78.09,394,78Z"/><path class="cls-4" d="M412,32.45c.2-.11-17.65,7.24-15.92,24.67C396,57.11,398.08,40.59,412,32.45Z"/><path class="cls-4" d="M403.88,36.14a26.47,26.47,0,0,0-10.94,20.67S396,41.5,403.88,36.14Z"/><path class="cls-4" d="M394.38,55.76s-3.77,12.82.68,18.78C395.06,74.54,392.57,63.6,394.38,55.76Z"/><path class="cls-4" d="M391.74,26.86l.6,1.06s-15.84-6.34-13.58,6.94-3.47,20.82-3.47,20.82S379.67,43,377,34.86,383.14,22.19,391.74,26.86Z"/><path class="cls-3" d="M392.34,27.92l.5,1.16s-13-3.87-12.07,4.73-.55,20.32-3,23.39c0,0,3-11.64.85-23.08C376.35,21.53,392.34,27.92,392.34,27.92Z"/><path class="cls-2" d="M391.39,29.58l-1.71,1.16s-4.73-.91-4,7-4.27,8-4.27,8,4.58-.91,2.72-7.8C380.73,25.33,391.39,29.58,391.39,29.58Z"/><path class="cls-4" d="M382.33,37.42l-.15,6.29S384,39.94,382.33,37.42Z"/><path class="cls-4" d="M374.84,51.64v4.07s1.51-4.64,1.32-6.41Z"/><path class="cls-1" d="M377.31,63.43s-5.73-1.91-1.51-11.77,1.31-17.4,1.31-17.4-1.11-3.62,1.31-5.83l-2.31.8s-6.24-2.31-6.54,2.92c0,0-9.45.8-11.67,5.13a11.42,11.42,0,0,0-.8,3.72s-4.43-.1-5.23,2.62-.1,2.82-.1,2.82-7,4.12-7.44,8-.5,5.63,3,7.74,17.2,8.65,20.92,17.4c0,0,2.77-2.67-2-7.9,0,0,3.42,2.82,6.09,1.51a19.66,19.66,0,0,1-2.72-2s4.58,1.61,6.59-.7c0,0-6.69,0-8.5-5.18l.8,1.06.05-1.16.45,1.81s2-1.36.91-6.24c0,0,1.81,4.38,4.22,3.92L373,62.32s1.86,2.26,3.62,2.11h1.71Z"/><path class="cls-4" d="M376.35,30.69s-1.47.46.35,6.69c2.36,8.1-3.12,14.84-3.12,14.84s4.78-9.51,2.36-14.48S374.24,31.29,376.35,30.69Z"/><path class="cls-3" d="M375.85,30s-4.25,1.17-1.71,5.63c2.87,5,1.71,8.7,1.71,8.7a17.6,17.6,0,0,0-3.17-7.8C370.42,33.82,369.56,28.22,375.85,30Z"/><path class="cls-4" d="M370.5,32.67l.3,1.21s-13.6,2.13-9.06,9.49,8.3,18.55,7.45,22.36c0,0-2.37-11.77-9.23-21.18C352.44,34.23,370.5,32.67,370.5,32.67Z"/><path class="cls-3" d="M370.77,34.41l.53,1.4s-8.34,1.24-3.41,9c4.26,6.69-.37,9.1-.37,9.1s3.73-2.8-.93-8.2C358,35.75,370.77,34.41,370.77,34.41Z"/><path class="cls-4" d="M364.72,46l2.59,5.73S367.3,47.51,364.72,46Z"/><path class="cls-4" d="M371.56,36.63a14.87,14.87,0,0,1,3.62,9.84l-.72,2.15s-.08-8.07-5-11.35A4.41,4.41,0,0,1,371.56,36.63Z"/><path class="cls-4" d="M369.22,38.1s-3.24,1-1.09,5.58c0,0,1.66-4.15,2.64-4.38Z"/><path class="cls-3" d="M371.14,39.69s-2.26,3.13-2.41,4.87l.87,1.81s1.58-4.45,2.87-4.87Z"/><path class="cls-3" d="M372.65,42.93a7.05,7.05,0,0,0-1.32,2.41,16.27,16.27,0,0,1,1.62,6.3l1.13-2.72S374,45.08,372.65,42.93Z"/><path class="cls-3" d="M374.43,52.47l-1.43,2s-2.07,8,3.06,8.94C376,63.45,371.07,61.07,374.43,52.47Z"/><path class="cls-4" d="M370.88,46a18.34,18.34,0,0,1,1.32,8.79c-.6,4.49-.38,7.69.64,8.52,0,0-3-.19-1.85-8.68,0,0,0-3.28-.6-3.85a6.77,6.77,0,0,0-.19-3.28Z"/><path class="cls-4" d="M370.2,53a7.55,7.55,0,0,1-1.47,1.81l.91,4.15A24.22,24.22,0,0,0,370.2,53Z"/><path class="cls-4" d="M357.2,42s-1.06,1.11,3.55,5.68c6,5.93,4.47,14.49,4.47,14.49s-.43-10.63-5-13.81S355.64,43.58,357.2,42Z"/><path class="cls-3" d="M356.44,41.7s-3.15,3.09,1.24,5.76c4.95,3,5.71,6.78,5.71,6.78a17.6,17.6,0,0,0-6.55-5.28C353.53,47.64,350.06,43.16,356.44,41.7Z"/><path class="cls-3" d="M353,46.6l.85.91S343,56,350.58,60.2s16.26,12.2,17.36,15.94c0,0-7.78-9.14-18.34-14C338,56.72,353,46.6,353,46.6Z"/><path class="cls-3" d="M354.12,48l1.14,1s-6.69,5.13,1.37,9.5c7,3.78,4.09,8.14,4.09,8.14s1.91-4.26-4.79-6.72C343.63,55.34,354.12,48,354.12,48Z"/><path class="cls-4" d="M354.43,61l5,3.76S357.44,61.12,354.43,61Z"/><path class="cls-4" d="M355.89,49.55a14.87,14.87,0,0,1,7.94,6.85l.42,2.23s-4-7-9.86-7.51A4.41,4.41,0,0,1,355.89,49.55Z"/><path class="cls-4" d="M366,61.08l2,3.56s-.93-4.79-2-6.25Z"/><path class="cls-4" d="M354.56,52s-2.36,2.43,1.75,5.41c0,0-.56-4.43.19-5.11Z"/><path class="cls-3" d="M357,52.42s-.46,3.84.25,5.43L358.9,59s-.77-4.66.15-5.65Z"/><path class="cls-3" d="M359.9,54.53a7.05,7.05,0,0,0,0,2.75A16.27,16.27,0,0,1,364.39,62l-.33-2.92S362.13,55.75,359.9,54.53Z"/><path class="cls-3" d="M366.08,62l-.27,2.48s2.06,8,7,6.34C372.82,70.82,367.32,71.16,366.08,62Z"/><path class="cls-4" d="M359.85,58.09a18.34,18.34,0,0,1,5.42,7c1.65,4.22,3.4,6.91,4.69,7.14,0,0-2.7,1.28-5.82-6.69,0,0-1.59-2.87-2.39-3.07A6.77,6.77,0,0,0,360,59.74Z"/><path class="cls-4" d="M362.62,64.49a7.55,7.55,0,0,1-.41,2.3L365,70A24.22,24.22,0,0,0,362.62,64.49Z"/><path class="cls-4" d="M348,64.05a20.74,20.74,0,0,1,4.38,13.05,21.08,21.08,0,0,0,.3,3.77l1.13-.45-.38-3.7s.38-8.3-3.7-12.15Z"/><path class="cls-4" d="M352.21,66s2.19,8,3.47,10a8.41,8.41,0,0,0,2.64,2.79l1.58-.75s-3.62-.6-6.19-11.47Z"/><path class="cls-4" d="M355.15,68.5s1.58,7.24,5.81,8.9l1.66-.75S358,74.77,355.15,68.5Z"/><path class="cls-4" d="M356.36,68.73s2.79,5.05,7.09,7.62l1-1S359.23,68.73,356.36,68.73Z"/><path class="cls-4" d="M360,81s4.75,5.13,2.64,7.54c0,0,3.77-2.49-1.36-8.07Z"/><path class="cls-4" d="M362.92,79.9l.68,2a2.78,2.78,0,0,0,.38-2.64Z"/><polygon class="cls-4" points="364.96 78.84 366.47 80.42 365.64 78.16 364.96 78.84"/><path class="cls-4" d="M353.27,82.76s1.13,3.7,4.38,2.34c0,0-2.87,0-3.39-2.64Z"/><path class="cls-1" d="M358.13,87.18s-6,.71-6.37-10-6.21-16.31-6.21-16.31S343,58,344.26,55l-1.75,1.71s-6.63.56-4.68,5.42c0,0-8.22,4.75-8.38,9.6a11.42,11.42,0,0,0,.85,3.71s-4,1.79-3.62,4.59,1.11,2.59,1.11,2.59-4.62,6.72-3.32,10.45,1.94,5.31,6,5.73,19.25.52,26.33,6.86c0,0,1.37-3.59-5.13-6.31,0,0,4.29,1.1,6.15-1.22a19.66,19.66,0,0,1-3.29-.62s4.83-.49,5.66-3.44c0,0-6.06,2.84-9.89-1.08l1.18.61L351,92.56,352.22,94s1.2-2.06-1.83-6c0,0,3.5,3.19,5.49,1.76L353.75,88s2.65,1.26,4.18.37l1.55-.73Z"/><path class="cls-4" d="M343.36,57.94s-1.13,1,3.16,5.91C352.1,70.18,350,78.61,350,78.61s.29-10.63-4-14.12S341.7,59.39,343.36,57.94Z"/><path class="cls-3" d="M342.62,57.57s-3.35,2.87.85,5.83c4.73,3.33,5.24,7.15,5.24,7.15a17.6,17.6,0,0,0-6.18-5.71C339.32,63.3,336.16,58.6,342.62,57.57Z"/><path class="cls-4" d="M338.91,62.23l.79,1s-11.41,7.71-4.17,12.44,15.4,13.27,16.25,17.08c0,0-7.15-9.65-17.35-15.25C323.22,71.31,338.91,62.23,338.91,62.23Z"/><path class="cls-3" d="M339.88,63.69l1.07,1s-7,4.67.72,9.57c6.7,4.24,3.53,8.4,3.53,8.4s2.19-4.12-4.33-7C328.92,70.32,339.88,63.69,339.88,63.69Z"/><path class="cls-4" d="M339.31,76.72l4.78,4.09S342.31,77,339.31,76.72Z"/><path class="cls-4" d="M341.55,65.36A14.87,14.87,0,0,1,349,72.74l.26,2.25s-3.5-7.27-9.33-8.16A4.41,4.41,0,0,1,341.55,65.36Z"/><path class="cls-4" d="M340.05,67.69s-2.52,2.27,1.38,5.52c0,0-.26-4.46.53-5.08Z"/><path class="cls-3" d="M342.47,68.31s-.72,3.8-.12,5.43L343.91,75s-.46-4.7.53-5.62Z"/><path class="cls-4" d="M345.21,70.6a7.05,7.05,0,0,0-.17,2.75,16.27,16.27,0,0,1,4.14,5l-.13-2.94S347.36,72,345.21,70.6Z"/><path class="cls-3" d="M350.87,78.49l-.43,2.45S352,89.06,357,87.73C357,87.73,351.49,87.7,350.87,78.49Z"/><path class="cls-4" d="M344.92,74.15a18.34,18.34,0,0,1,4.93,7.39c1.36,4.32,2.93,7.13,4.2,7.44,0,0-2.78,1.1-5.36-7.07,0,0-1.39-3-2.18-3.23a6.77,6.77,0,0,0-1.56-2.89Z"/><path class="cls-4" d="M347.26,80.73a7.55,7.55,0,0,1-.56,2.26l2.58,3.37A24.22,24.22,0,0,0,347.26,80.73Z"/><path class="cls-4" d="M330.83,76.35s-.49,1.46,5.63,3.63c7.95,2.83,10.2,11.22,10.2,11.22s-4.91-9.44-10.36-10.4S330.09,78.41,330.83,76.35Z"/><path class="cls-3" d="M330,76.37s-1.54,4.13,3.56,4.68c5.76.62,8.05,3.71,8.05,3.71a17.6,17.6,0,0,0-8.17-2C329.9,83,324.86,80.41,330,76.37Z"/><path class="cls-4" d="M329,82.25l1.16.46S323.94,95,332.56,95.62s19.9,4.14,22.49,7.05c0,0-10.93-5-22.57-4.92C319.7,97.8,329,82.25,329,82.25Z"/><path class="cls-4" d="M330.58,83l1.44.39s-3.87,7.49,5.27,8c7.92.46,7.16,5.63,7.16,5.63s-.08-4.66-7.19-4.05C324.21,94.16,330.58,83,330.58,83Z"/><path class="cls-4" d="M336.4,94.72,342.56,96S339.17,93.53,336.4,94.72Z"/><path class="cls-4" d="M332.85,83.71A14.87,14.87,0,0,1,343,86.54l1.32,1.84s-6.59-4.67-12.12-2.61A4.41,4.41,0,0,1,332.85,83.71Z"/><path class="cls-4" d="M346.94,89.84l3.3,2.39s-2.88-3.94-4.42-4.83Z"/><path class="cls-4" d="M332.67,86.47s-1.1,3.2,3.88,4.16c0,0-2.39-3.78-2-4.7Z"/><path class="cls-3" d="M335.08,85.84s1.21,3.67,2.53,4.81l2,.36s-2.68-3.89-2.27-5.17Z"/><path class="cls-3" d="M338.6,86.51A7.05,7.05,0,0,0,339.78,89a16.27,16.27,0,0,1,6.06,2.37l-1.54-2.51S341.13,86.67,338.6,86.51Z"/><path class="cls-3" d="M347.37,90.67l.81,2.35s5.27,6.36,9,2.76C357.22,95.78,352.37,98.42,347.37,90.67Z"/><path class="cls-4" d="M340.07,89.76a18.34,18.34,0,0,1,7.9,4.08c3.28,3.12,6,4.81,7.29,4.47,0,0-1.9,2.3-8.11-3.58,0,0-2.66-1.92-3.47-1.76a6.77,6.77,0,0,0-2.77-1.77Z"/><path class="cls-4" d="M345.29,94.38a7.55,7.55,0,0,1,.61,2.25l3.89,1.7A24.22,24.22,0,0,0,345.29,94.38Z"/><path class="cls-4" d="M328.07,99.36a41.08,41.08,0,0,1,4.68,15.54c.53,8.22,13.2,8.37,13.2,8.37s-11.54-2.26-11.84-9.43S330,100,330,100Z"/><path class="cls-3" d="M331.24,100.26l2.64.38S335,115.35,350,112C350,112,336.67,118.9,331.24,100.26Z"/><path class="cls-4" d="M335.16,100.94s.08,3.62,2,5.81l-.23-5.88Z"/><polygon class="cls-4" points="338.1 101.02 337.95 107.81 339.24 108.79 339.69 100.94 338.1 101.02"/><path class="cls-4" d="M340.29,103.81s4.38,2.34,4.83,5.88c0,0,.3-5.51-4.6-8Z"/><path class="cls-4" d="M330,107.58s.91,3.92-.45,6.11l-.75,1.13.08,1.81s3.17-1.06,2.79-5.21Z"/><path class="cls-4" d="M331.69,116.41a7,7,0,0,1-2.56,1.28l.6,1.74,2.56-1.58Z"/><path class="cls-4" d="M330.64,119.73s1.51,2.87,4.3,2.34c0,0-2.72-1.06-3-2.87Z"/><path class="cls-4" d="M336.9,111.13a4.77,4.77,0,0,1-1.58,2.94l.6,1.58s2.11-1.81,2.19-3.24Z"/><polygon class="cls-4" points="335.84 110.9 334.94 111.81 334.71 110.22 335.84 110.9"/><path class="cls-4" d="M338.63,113.69l-.83,1.21a6.22,6.22,0,0,0,4.07,4.22A9.87,9.87,0,0,1,338.63,113.69Z"/><path class="cls-1" d="M333.81,123.68s-6-.25-4.7-10.89-3.55-17.08-3.55-17.08-2.06-3.17-.36-6l-2,1.41s-6.63-.5-5.48,4.61c0,0-8.86,3.39-9.8,8.15a11.42,11.42,0,0,0,.26,3.8s-4.28,1.13-4.3,4,.68,2.73.68,2.73-5.63,5.91-4.93,9.79,1.07,5.55,5,6.61,18.92,3.56,24.92,10.94c0,0,1.92-3.33-4.07-7,0,0,4.06,1.76,6.27-.23a19.66,19.66,0,0,1-3.15-1.13s4.84.28,6.14-2.5c0,0-6.43,1.85-9.6-2.63l1.07.79-.27-1.13.94,1.61s1.51-1.85-.85-6.24c0,0,2.95,3.7,5.14,2.6l-1.84-2s2.41,1.66,4.06,1l1.64-.47Z"/><path class="cls-4" d="M323.84,92.48s-1.28.84,2.19,6.33c4.51,7.13,1.1,15.12,1.1,15.12s2-10.46-1.73-14.57S322,93.65,323.84,92.48Z"/><path class="cls-4" d="M323.18,92s-3.77,2.3-.09,5.89c4.14,4,4,7.89,4,7.89a17.6,17.6,0,0,0-5.2-6.62C319,97.14,316.64,92,323.18,92Z"/><path class="cls-3" d="M318.77,96l.62,1.08s-12.48,5.81-6.09,11.63,13.11,15.54,13.34,19.43c0,0-5.53-10.66-14.72-17.8C301.84,102.5,318.77,96,318.77,96Z"/><path class="cls-3" d="M319.5,97.6l.89,1.2s-7.67,3.5-.8,9.56c5.95,5.25,2.16,8.85,2.16,8.85s2.81-3.72-3.16-7.63C307.63,102.42,319.5,97.6,319.5,97.6Z"/><path class="cls-4" d="M316.88,110.38l4.07,4.79S319.79,111.15,316.88,110.38Z"/><path class="cls-4" d="M320.88,99.52a14.87,14.87,0,0,1,6.2,8.46l-.09,2.26s-2.3-7.74-7.92-9.53A4.41,4.41,0,0,1,320.88,99.52Z"/><path class="cls-4" d="M319,101.58s-2.85,1.84.49,5.67c0,0,.45-4.45,1.33-4.93Z"/><path class="cls-3" d="M321.33,102.57s-1.31,3.63-1,5.34l1.33,1.5s.29-4.72,1.41-5.47Z"/><path class="cls-3" d="M323.67,105.27a7.05,7.05,0,0,0-.6,2.68,16.27,16.27,0,0,1,3.3,5.61l.34-2.92S325.57,107,323.67,105.27Z"/><path class="cls-3" d="M328,114l-.81,2.35s.22,8.26,5.41,7.75C332.61,124.06,327.17,123.15,328,114Z"/><path class="cls-4" d="M322.82,108.74a18.34,18.34,0,0,1,3.7,8.08c.66,4.48,1.76,7.5,3,8,0,0-2.92.64-4.17-7.83,0,0-.91-3.15-1.64-3.53a6.77,6.77,0,0,0-1.09-3.1Z"/><path class="cls-4" d="M324.09,115.59a7.55,7.55,0,0,1-.91,2.15l2,3.74A24.22,24.22,0,0,0,324.09,115.59Z"/><path class="cls-4" d="M308.57,108.67s-.71,1.36,5,4.48c7.4,4,8.3,12.69,8.3,12.69s-3.35-10.1-8.58-11.9S307.5,110.59,308.57,108.67Z"/><path class="cls-3" d="M307.75,108.57s-2.18,3.84,2.78,5.19c5.58,1.52,7.37,4.94,7.37,4.94a17.6,17.6,0,0,0-7.76-3.26C306.6,115.09,302,111.74,307.75,108.57Z"/><path class="cls-4" d="M305.84,114.21l1.07.64s-8.1,11.14.32,13.12,19,7.23,21.09,10.52c0,0-10-6.64-21.51-8.43C294.18,128.1,305.84,114.21,305.84,114.21Z"/><path class="cls-3" d="M307.26,115.25l1.36.61s-5,6.78,3.94,8.75c7.75,1.71,6.18,6.69,6.18,6.69s.66-4.62-6.46-5.14C299.21,125.22,307.26,115.25,307.26,115.25Z"/><path class="cls-4" d="M311.16,127.7l5.88,2.22S314.08,127,311.16,127.7Z"/><path class="cls-4" d="M309.39,116.26a14.87,14.87,0,0,1,9.53,4.39l1,2s-5.77-5.65-11.55-4.5A4.41,4.41,0,0,1,309.39,116.26Z"/><path class="cls-4" d="M322.34,124.55l2.88,2.88s-2.22-4.35-3.61-5.46Z"/><path class="cls-4" d="M308.78,119s-1.6,3,3.18,4.72c0,0-1.76-4.11-1.23-5Z"/><path class="cls-4" d="M311.26,118.72s.62,3.81,1.74,5.15l1.89.66s-2-4.27-1.42-5.47Z"/><path class="cls-3" d="M314.62,119.94a7.05,7.05,0,0,0,.78,2.64,16.27,16.27,0,0,1,5.6,3.3l-1.12-2.72S317.1,120.5,314.62,119.94Z"/><path class="cls-3" d="M322.63,125.43l.43,2.45s4.19,7.12,8.49,4.15C331.54,132,326.35,133.88,322.63,125.43Z"/><path class="cls-4" d="M315.56,123.38a18.34,18.34,0,0,1,7.15,5.27c2.75,3.6,5.18,5.7,6.49,5.57,0,0-2.24,2-7.45-4.82,0,0-2.32-2.32-3.15-2.29a6.77,6.77,0,0,0-2.46-2.18Z"/><path class="cls-4" d="M320,128.76a7.55,7.55,0,0,1,.24,2.32l3.58,2.29A24.22,24.22,0,0,0,320,128.76Z"/><path class="cls-3" d="M294.65,131.95s17.28-4.68,27.53,11.32-10.25,30.64-18.1,33.74c-3,1.19-1.82,2.25-1.82,2.25s8.15,13.5,3,38.55l-3-.3s6.64-20.82-3.92-38.32c0,0-4.13-4.19,2.11-6.64,7.32-2.87,24.06-13.43,18-26.55-7.8-17-28.47-9.66-29-10.41C288.92,134.66,286.81,133.46,294.65,131.95Z"/><path class="cls-3" d="M289.67,135.72s-22.4,14.41-39.6,15.92c0,0,21.73-2.41,29.27,9.05s22.46,9,28.36,5.43c12.75-7.62,14.56-23.84-2.26-29.34A52.39,52.39,0,0,0,289.67,135.72Z"/><path class="cls-3" d="M241.72,154.33s.91-5.73,10.46-3.42,22,2.31,25.65,12.87,16.7,9.76,16.7,9.76a5.51,5.51,0,0,0-.1,5.13s-14.58-1.51-20.22-12.47-26.35-12.47-26.35-12.47A18,18,0,0,0,241.72,154.33Z"/><path class="cls-3" d="M302.35,218.93s-.83,4.9,2.56,5c0,0-.68-3.09,0-4.9Z"/><path class="cls-3" d="M310.87,226.24l-5.28,2a17,17,0,0,1-9.66-2.87,10.46,10.46,0,0,0-10-.6s5.58-4.07,12.45.3S310.87,226.24,310.87,226.24Z"/><path class="cls-3" d="M272.4,213.9s8.45,18.91-13.48,60.35c0,0,.4,42.85-25.55,58.34,0,0,24.94-17.3,22.33-58.94C255.7,273.64,275.82,242.26,272.4,213.9Z"/><path class="cls-3" d="M234.53,329.37s-20.52,43-12.67,66.23c0,0,6.79,13.58,2.72,18.71,0,0,4.07-11.16-9.2-13v-5s3.32-.15,4.68,1.06a29.69,29.69,0,0,1-2.87-7.69l2.11,3.62S213.41,372.21,234.53,329.37Z"/><path class="cls-3" d="M196.06,250s-4.07,36.06-7.54,44.21-3.47,7.24-6.34,9.51S168.6,322,168.6,322s-1.51,36.06-14,51.6c0,0-2.72,7.39,3,15.39s-3.17,11.92-3.17,11.92,8-5.88-7.54-19.31l4.83-9.35s-2,.75-4.83,4.53c0,0,0-3.92,5.13-6.34,0,0,13.43-5.43,15.09-48.73,0,0,7.69-17.5,11.92-19.92,0,0-7.24,2.72-10.86,7.54,0,0,4.22-7.54,11-9.05,0,0,3-1.51,3.62-4.38,0,0-3.77,4.22-7.85,3.62,0,0,6.79-2,7.69-6a26.56,26.56,0,0,1,3.62-8s-3.62,11.47-1.36,11.47,6.94-23.39,6.94-23.39S193.49,254.08,196.06,250Z"/><path class="cls-4" d="M201.49,200.22s-12.07,56.73,20.22,83.89C221.7,284.1,197.26,251.21,201.49,200.22Z"/><path class="cls-4" d="M185.19,179.7c.78-.46-17.8,2.72-21.73,6,0,0-13.28,23.23,3,64.27,0,0-4.83-37.11,4.53-55.82A36.94,36.94,0,0,1,185.19,179.7Z"/><path class="cls-4" d="M170.71,263s3.32,26.25-6.34,36.21c0,0,15.39-6,12.37-36.51s-.91-43.15-.91-43.15S168,227.68,170.71,263Z"/><path class="cls-4" d="M200.88,401.63l3,1.66s-4.45,10.59,5.23,12.67c18.23,3.92,5.78-11.92,5.78-11.92l1.28-2c4.67,1.26,13.73,18.88-4.15,16.9C194.45,417,200.88,401.63,200.88,401.63Z"/><path class="cls-4" d="M134.88,386.07l2.66,1.27s-1.94,11,6.1,11.88c15.12,1.64,2.79-12.49,2.79-12.49l.72-2.1c3.91.67,13.81,17-.73,17.21C132.1,402.07,134.88,386.07,134.88,386.07Z"/><path class="cls-4" d="M213.71,400.43l.45-4.83s2.41-.75,3.92-.15a9.12,9.12,0,0,1-2.26-5.73,58.18,58.18,0,0,1,.6-8.75s-2.72,7.54-2,11.92c0,0-2.87-1.81-2.26-5,0,0,.6,4.22-2.72,6,0,0-2.41,2.87-2.56,4.53l2-1.66-.75,3.32S212.5,399.52,213.71,400.43Z"/><path class="cls-4" d="M148.08,377.27l-1.81,3.85s-5.28-1.89-9.05.38c0,0-1.28-3.32,3.32-7.24,0,0,7.09-6.41,7.69-9.2,0,0,1.28,4.6-1.51,7.69a6.11,6.11,0,0,0-1.28,6.41Z"/><g id="Tail"><path class="cls-1" d="M185.7,168.43s-35-7.64-62,33S71,275.86,19.13,280.68c0,0,81.67,27.76,128.75-75.24,0,0,8.85-27.76,38.22-30.17Z"/><path class="cls-3" d="M188.31,168.23s-28-3.42-52.71,22.13c0,0,25.15-23.54,54.31-21.12Z"/><path class="cls-3" d="M192.13,172.66s-43.45-11.87-54.31,46.47l2-2.62S147.68,166.62,192.13,172.66Z"/><path class="cls-3" d="M159.14,177S143,189.25,139.23,208.26s-25.15,45.26-25.15,45.26,22.73-34.1,23.74-45.87S150.89,180.2,159.14,177Z"/><path class="cls-4" d="M190.73,174.67s-22.13-3.52-34.7,12.77c0,0,16.6-14.38,33.59-10.76s18,1.31,18,1.31S193.34,176.48,190.73,174.67Z"/><path class="cls-4" d="M153.51,190.46s-8,9.05-10.26,19.31Z"/><path class="cls-4" d="M149.59,182.11A44.78,44.78,0,0,0,137.42,202c-2.31,8-1.31,11.77-11,27.76,0,0,8.45-15.09,9-25.65S149.59,182.11,149.59,182.11Z"/><path class="cls-3" d="M141.14,188a54.5,54.5,0,0,0-17.3,17.5S139.93,190.16,141.14,188Z"/><path class="cls-3" d="M136.81,194.89s-16.9,16.29-20.12,17.3a5.36,5.36,0,0,0-3.62,4.22S126.86,211.18,136.81,194.89Z"/><path class="cls-3" d="M135,199.51a19.53,19.53,0,0,0-2.31,9.86c0,6.24-15,35.2-15.09,35.41s12.67-27.66,13-35.41l.91-5.73Z"/><path class="cls-3" d="M188.31,168.23s-46.27-9-68.9,41.24l3.22-3.12s17.1-40.13,65.28-37.52Z"/><path class="cls-1" d="M113.08,216.41a2.81,2.81,0,0,0-1.71,3.12c.3,2.41,6.24-3.92,6.24-3.92Z"/><path class="cls-3" d="M109.05,222.65s0-2.51,3.12-2.92,15.59-8.85,18.1-13.68l-.8,5S121.93,221.14,109.05,222.65Z"/><path class="cls-3" d="M136.71,221.24s-11.37,22.63-13.68,25a8.58,8.58,0,0,0,4.53-4.93c1.11-3.52,11.06-21.32,14.48-23.84,0,0,3.12-3.32,2.82-4.93C144.86,212.59,140,219.53,136.71,221.24Z"/><path class="cls-3" d="M142,211.78l-.5,3.52,4-4.53s1.91-3.32,1.31-4.83C146.87,206,145.66,210.58,142,211.78Z"/><path class="cls-1" d="M125.55,242.06s-3.12,8.25-8.25,11.06,0-2.82,0-2.82Z"/><path class="cls-1" d="M109.76,257.35s.91,4.93,3.42-2,2.51-8.25,2.51-8.25Z"/><path class="cls-3" d="M109.56,257.15s3.22,4.43-.91,4c-1.07-.1-2.48-5.46,1-9.05,8.87-9.15,17-36.91,17-36.91l2.11-1.91s-10.66,31.28-16.7,39.33C112.07,252.62,109,256.14,109.56,257.15Z"/><path class="cls-3" d="M124.39,217.87s-35.46,76-105.16,63.37C19.23,281.24,78.07,296.63,124.39,217.87Z"/><path class="cls-3" d="M121.83,225.26s-8.15,20.82-32.69,40C89.14,265.29,112.77,252.92,121.83,225.26Z"/><path class="cls-3" d="M106.24,253.93s-7.85,12.17-30,19.51.1.4.1.4,21.22-4.33,30.17-17.2a9.53,9.53,0,0,1,2.21-5.73Z"/><path class="cls-3" d="M76.56,267.21s25.45-13.78,44.86-47.47l-2.11,1A155.15,155.15,0,0,1,76.56,267.21Z"/><path class="cls-3" d="M100.6,234s-1.81-1.21-3,3.62-26.35,36.11-52.71,42.85c0,0,30.88-2.82,54.52-42.65A8.07,8.07,0,0,1,100.6,234Z"/><path class="cls-3" d="M102.72,231.2s-.1,5.13-1.11,7.54-10.16,13.58-10.16,13.58,11.06-7.34,12.47-15.09.3-8.75.3-8.75A2.64,2.64,0,0,0,102.72,231.2Z"/><polygon class="cls-3" points="108.65 223.55 105.03 228.48 105.33 229.99 109.66 223.85 108.65 223.55"/><polygon class="cls-4" points="111.47 223.45 105.73 231.5 105.43 234.01 113.78 222.75 111.47 223.45"/><path class="cls-4" d="M115.29,222.55l-9.86,13a23.14,23.14,0,0,0-.5,3.22c.2-.3,12.27-16.6,12.27-16.6Z"/><path class="cls-4" d="M96.78,267.31s-14.58,7.74-22.33,8.45-20.72,6.84-20.72,6.84,17.4-2.62,20.62-5.13,5.53-1,5.53-1S93.36,271.43,96.78,267.31Z"/><path class="cls-4" d="M26,280.58c-.45,0,29.67-2,57.23-26.35C83.2,254.23,53.93,283.1,26,280.58Z"/><polygon class="cls-3" points="182.58 170.44 191.43 170.44 193.04 171.85 182.58 170.44"/></g><path class="cls-2" d="M290.9,66.37c.81,1.27,2.67,2.15,4,2.8,1.64.83,3.21,1.86,4.22-.44C300.55,65.34,299,60,297.19,57c-4.06-6.62-13.25-10.19-20.72-10a3.31,3.31,0,0,0-1.6.33,2.66,2.66,0,0,0-1.13,1.9C272.4,57,282.61,54.13,286.15,57,288.88,59.26,289,63.39,290.9,66.37Z"/><path class="cls-3" d="M231.88,58.77q11.33-1.13,22.7-1.84c3.68-.23,7.42-.21,11.08-.49,3.84-.29,7.45-1.31,11.35-.92s7.77,2,10.12,5a6.74,6.74,0,0,0,2.2,2.31c1,.45,2.47-.09,2.41-1.17a2.07,2.07,0,0,0-.22-.73c-2.42-5.38-8.53-8.08-14.34-9.11a86.24,86.24,0,0,0-9.79-1c-13.9-.85-28.19-.67-41.81-3.56-4.52-1-8.07-2.45-12.53-.5A14.74,14.74,0,0,0,210,48.49a8.36,8.36,0,0,0-3.25,6.21,4.19,4.19,0,0,0,.34,2c.62,1.26-4.38,1-3,1.35C211.18,60.16,224.67,59.49,231.88,58.77Z"/><path class="cls-1" d="M290.05,66.87c.81,1.27,2.67,2.15,4,2.8,1.64.83,3.21,1.86,4.22-.44,1.47-3.38-.08-8.72-1.89-11.68-7-11.46-25.32-11.42-36.92-13.85q-25.74-5.4-51.79-9.19a29.64,29.64,0,0,0-9.15-.36c-3,.51-6,2.1-7.47,4.8a9.58,9.58,0,0,0,.38,8.92A18.07,18.07,0,0,0,198,54.31c11.83,7.33,24.74,4.22,37.76,3.25q21-1.56,42-1.76c2.65,0,5.53,0,7.58,1.72C288,59.76,288.16,63.88,290.05,66.87Z"/><g id="Wing"><path class="cls-3" d="M249.82,133.31l-8.66,4.79L234,132.53s-18.82,10.72-12-.37c0,0-12.22,3-5-6.39,0,0-14.37,9.17-7.11-4.18,0,0-16,12.49-10.17-3.38,0,0-13.32,7-5.55-4.23,0,0-24.8,17.57-17.55,1.25,0,0-21,11.55-6.18-6,0,0-37.57,25.7-15.49,1.11,0,0-24.24,15.31-6.23-4.15,0,0-34.19,30.36-19.32,8,0,0-34.65,16.68-6.65-9.81,0,0-49.72,26.52-16.94.38,0,0-44.67,24.4-13.4-3.28,0,0-67.09,34.61-33.8,7.89,0,0-25.18,11-30.53,3.43,0,0,6.35-3.08,8.86-5.08l13.7-9.89s-26.21,9.31-6.92-7.34c0,0-19.58,3.57-3-9,0,0-18.46.78-34.46-8.77,0,0,12.48.75,19.36.29,0,0,128.71-11.74,152.89-25.07,0,0,22.38-12,19.51,1.88,0,0,22.26,27.33,39.29,36.76l7.85-4-.44,7.91.32,34.48,8,5.49Z"/><path class="cls-1" d="M250.55,131.32,242.14,136l-7-5.41S216.9,141,223.5,130.21c0,0-11.87,2.91-4.85-6.21,0,0-14,8.91-6.91-4.06,0,0-16.46,13.18-10.76-2.23,0,0-12.81,5.13-5.25-5.81,0,0-23.34,17.72-16.3,1.86,0,0-21.87,10.48-7.48-6.6,0,0-33.8,25.57-14.27,1.05,0,0-23.93,14.73-6.92-4.22,0,0-34.6,27.78-17.21,8.76,0,0-46,19.19,1.62-15.72,0,0-57.3,30.67-25.45,5.27,0,0-46.81,24.14-12.67-3.21,0,0-61.63,28.74-32.67,7.77,0,0-23.33,9.69-33.35,6.12a304.09,304.09,0,0,0,26-16.13s-25.46,9-6.72-7.13c0,0-19,3.46-2.87-8.75,0,0-41.19-5-14.43-6.79,0,0,56.9-2.35,148-26.41,0,0,22-11.06,19.25,2.43,0,0,21.62,26.54,38.16,35.71L246.07,82l-.42,7.69.31,33.5,7.73,5.34Z"/><path class="cls-3" d="M192.51,42.41C158.72,55.8,70.3,72,25.91,74.5c0,0,90.22-4,159.35-28.34Z"/><path class="cls-2" d="M267.74,132.67s-13.83,1.58-22.14-10.07l.91-34.85s.69-3.55,3.09-5.26-2.37-9-9.69,0S200.5,50,200.5,50c4.21-16.12-15.24-3.83-15.24-3.83s17.16-7.8,13.37,4.27c0,0,30.11,36.08,38.51,36.44,5,.25,7.1-1.86,7.1-1.86a23.2,23.2,0,0,0-1.78,7.08c-.38,3.79.52,32.57.52,32.57S254.38,137.61,267.74,132.67Z"/></g><path class="cls-1" d="M297,63.28s27.93-.2,33.61,8.43,8.43,7.77,8.43,7.77-.21,7.67-9.12,11.64-21.88,3.82-27-1.14l-8.37,64.65s-3,29.11-47,12.78c-58-21.51-12.57-56.62-12.57-56.62s38.56-30.17,44.69-41S297,63.28,297,63.28Z"/><path class="cls-1" d="M280.29,66s-3.06,2.74-1.56,4.45c0,0,1.57-.54,4.23.83l1-4.06Z"/><path class="cls-1" d="M272.73,147.88S332,127.69,322,150.52s-16.38,39.62-16.38,39.62-4.19,24.51-1.55,28.44-3.38,9.93-8.22,4.29,3.9-33.92,3.9-33.92l7-31.62s-34.37,27.32-43,9.66S272.73,147.88,272.73,147.88Z"/><path class="cls-1" d="M290.87,96.27s10.64,25.37,34.93,20,12.45,6.69,12.45,6.69a4.13,4.13,0,0,1-4.68,1c-2.62-1.27-.92-4.2-.92-4.2s-25.34,12.33-41.5-8.27S290.87,96.27,290.87,96.27Z"/><path class="cls-2" d="M313.41,139.1c4.88.22,8.58,1.45,9.38,4.48,0,0,1.92,2.06-1,8.41s-15.66,38.4-15.66,38.4S301.91,211.91,303,216s4.41,3.85.49,8.07c0,0,.57-3.24-.53-4.24s-1.79-3.18-1.87-5.37,4.2-24.39,4.2-24.39l15.4-38.43s4.73-8.08-8-7.72C309,144.07,301.19,138.56,313.41,139.1Z"/><path class="cls-3" d="M281.59,144.39s19.14-5.69,31.37-5.3c10.08,2.35-6,2.39-.17,4.88-3.64.08-8.73.86-15.81,2.74C265.49,155,281.59,144.39,281.59,144.39Z"/><path class="cls-2" d="M284.43,101.9s7.69.6,19.75,10.83c10.06,8.54,29.18,2.78,29.18,2.78s8.38-1.57,7.18,3.25c0,0,2.12-5.92-7.6-4.06s-18.21,4.39-27.28-2.63C295.45,104.16,288.4,100.73,284.43,101.9Z"/><path class="cls-2" d="M302.56,93.14a16.65,16.65,0,0,1-6.2.9,10.48,10.48,0,0,1,.83,10.64s3.53,3.17,3.58,2.79Z"/><path class="cls-2" d="M296.66,141.14l-6.3,1.32s5.56-18.78,4.51-24.13l4,2.77"/><path class="cls-2" d="M330.6,70.71s-3.47,6-30.85,1.33c0,0,20.42,7.06,30.48,1.76,0,0,3.32-1.55,2.08-3.14S330.6,70.71,330.6,70.71Z"/><path class="cls-2" d="M333.5,74.72s-.64,10.63-30.72,3.43c0,0,23.32,7.94,30.39.31,0,0,2.53-2.56,1.46-4.09A.72.72,0,0,0,333.5,74.72Z"/><path class="cls-2" d="M295.55,72.17s9.7,1.88,12.08,4.09C307.63,76.26,299.06,74.82,295.55,72.17Z"/><path class="cls-3" d="M306.7,157.32l5.67-2.51L301.4,190s-7.14,23.16-5,27.74,5.35,4.31,5.35,4.31l-.2,2.72s-5.3,2.75-7.27-5.72,5.38-30.14,5.38-30.14Z"/><path class="cls-3" d="M282.61,71.11a11.37,11.37,0,0,0-2.21,3.26c-1.66,4-42.78,41.27-42.78,41.27s-25.26,21.86-9.29,41.83c0,0-30.9-19.76,3.25-44.79,26-19.05,41.67-36,47.15-42.27A5.4,5.4,0,0,1,282.61,71.11Z"/><path class="cls-3" d="M293.78,114.47s10,11.47,24.46,8.8C318.24,123.27,302,122.2,293.78,114.47Z"/><path class="cls-3" d="M332.65,119.74s5.18-1.85,5.42-.12c0,0-5,2.84-3.58,4.72C334.5,124.34,330.48,124.31,332.65,119.74Z"/><path class="cls-3" d="M299.67,75.35s13.18,4.09,18.52,3.11a3.78,3.78,0,0,0,2.94,1.6S309,80.41,299.67,75.35Z"/><path class="cls-3" d="M307.64,75.28s1,2.08,10.52,2.59a5.08,5.08,0,0,1,2.23-1.43S312.38,77.1,307.64,75.28Z"/><path class="cls-3" d="M327.83,75.72s1.32.42,1.39.89c0,0,3.28-1.17,4-2.78s-.85-1.08-1.38-.49A30.38,30.38,0,0,1,327.83,75.72Z"/><path class="cls-3" d="M332.29,75.55a20,20,0,0,0-2.67,1.57A2.32,2.32,0,0,1,328.35,79S331.91,78.12,332.29,75.55Z"/><path class="cls-4" d="M318.75,78.14s1.69-2.08,5.5-2c0,0-4,.76-4.52,2.22a3.79,3.79,0,0,0,3.33,1.32S320.2,80.47,318.75,78.14Z"/><path class="cls-2" d="M323.85,76.61A10.68,10.68,0,0,0,320,78.3a8.77,8.77,0,0,0,3.87,1.23A2.28,2.28,0,0,1,323.85,76.61Z"/><path class="cls-4" d="M324.32,76.62a2.58,2.58,0,0,0-.43.76,2,2,0,0,0,.52,2.07l.13.15s3.72.45,4.68-2.47A43.47,43.47,0,0,0,324.32,76.62Z"/><ellipse class="cls-1" cx="327.17" cy="77.65" rx="1.1" ry="0.86" transform="translate(-7.54 45.38) rotate(-7.85)"/><path class="cls-2" d="M328.6,77.26c0,.27-.43.44-.9.38s-.81-.32-.78-.58a.38.38,0,0,1,.22-.28l1.37.22A.35.35,0,0,1,328.6,77.26Z"/><path class="cls-2" d="M328.9,76.73s-1-1.3-3.63-.79l-.41.17Z"/><path class="cls-3" d="M279.9,68.43s-7.51-1.57-12.79,3.84C267.11,72.27,278,72.3,279.9,68.43Z"/><path class="cls-3" d="M268.28,57.7s4.09,8.25,12.5,10.67C280.78,68.37,277.7,59.37,268.28,57.7Z"/><path class="cls-3" d="M280.29,66l.85,2a23.82,23.82,0,0,1,9.41,1.71,56.32,56.32,0,0,0,8.33,2.71s-7.32-2.77-8.62-3.88S281.63,64.9,280.29,66Z"/><path class="cls-3" d="M279.95,69.79l.66-.79s10.48.45,16.87,5.54c0,0,3.6,2.62,5.3,3A19.48,19.48,0,0,1,295,74.8C291.71,72.58,279.95,69.79,279.95,69.79Z"/><path class="cls-2" d="M310.12,64s18,2,20.18,5.86c0,0-2.13,3.22-7.71,1.84C322.59,71.73,332.07,68.27,310.12,64Z"/><path class="cls-2" d="M334.91,77.07a5.61,5.61,0,0,0,4.14,2.41s-.51,5.69-4.45,8.7c0,0,3.24-5.18,2.4-7.54A9.84,9.84,0,0,1,334.07,79Z"/><g id="Wing-2" data-name="Wing"><path class="cls-3" d="M320.54,197.77l-13.86-12.28-7.84-7.24s-23.27,10.43-14.11-1.72c0,0-14.7,2.16-5.2-8,0,0-17.87,9.11-7.93-5.62,0,0-20.18,12.78-11.61-5,0,0-16.42,6.72-6.08-5.51,0,0-31,17.74-20.78-.44,0,0-25.92,11.15-6.63-7.68,0,0-46.91,25.81-18.34-.38,0,0-30.13,15.18-6.89-5.5,0,0-43.43,31.59-23.58,7.25,0,0-42.53,15.64-6.78-12.12,0,0-61.3,25.45-20-1.39,0,0-55.13,23.53-15.42-5.26,0,0-82.59,33-40.59,5.52,0,0-30.79,10.09-36.28.69,0,0,7.8-2.89,11-4.95l17.17-10s-31.82,8-7.36-9.28c0,0-23.41,2-2.52-10.78,0,0-21.81-1.09-39.62-13.92,0,0,14.6,2.22,22.75,2.43,0,0,152.67.25,182.52-12.63,0,0,27.59-11.53,22.75,4.29,0,0,23.3,34.15,42.34,47l9.66-3.83-1.35,9.15-3.27,40.1-.42,10.07Z"/><path class="cls-1" d="M326.68,182.7l-5.74,15.59-20.5-22.2s-22.6,10.13-13.7-1.67c0,0-14.28,2.1-5-7.74,0,0-17.36,8.85-7.7-5.46,0,0-20.76,13.54-12.42-3.76,0,0-15.61,4.57-5.57-7.31,0,0-29.33,18.07-19.37.4,0,0-26.84,9.82-8.1-8.47,0,0-42.46,26.07-16.9-.32,0,0-29.71,14.53-7.69-5.65,0,0-43.64,28.54-21.17,8.32,0,0-56.15,17.33,3.57-18.09,0,0-70.65,29.45-30.5,3.38,0,0-57.63,23-14.57-5.1,0,0-75.54,26.74-39.25,5.51,0,0-28.48,8.74-39.88,3.51A359.6,359.6,0,0,0,94.45,117.7s-30.91,7.76-7.15-9c0,0-22.74,2-2.45-10.47,0,0-47.93-10.26-16.26-9.45,0,0,67.19,3.41,176.88-14.71,0,0,27.09-10.47,22.39,4.9,0,0,22.63,33.18,41.12,45.61l9.39-3.72-1.31,8.88-4.39,39,7,9.35Z"/><path class="cls-3" d="M259.55,69.05C218.38,81,112.65,90.22,60.15,88.35c0,0,106.57,5.1,190.47-15.73Z"/><path class="cls-2" d="M326.45,182.67s-13.82-6.92-12.92-14.72l4.75-40.4a11.74,11.74,0,0,0,2-3.72c.42-2.51-2.94-6.41-9.17-3.1-12,6.39-42.94-42-42.94-42,6.65-18.27-17.53-6.1-17.53-6.1s21-7.21,15.28,6.4c0,0,31.61,45.18,41.46,46.5,5.83.83,7.12-.18,7.12-.18s-.47,1.92-1.41,6.81c-.84,4.36-2.83,37.9-2.83,37.9S314.64,182.16,326.45,182.67Z"/></g><path class="cls-3" d="M266.93,68.64c-6.84,4.14-29.24,23.58-36.09,27.72a39.08,39.08,0,0,1-7,3.63,24.57,24.57,0,0,1-6.64,1.28,27.46,27.46,0,0,1-6.68-.34,9.23,9.23,0,0,1-4-1.52c-1.16-.88-.41-4.33-.4-5.79-1.09.47-2.7,6.24-2.86,7.35-.63,4.43.77,9.47,4.54,11.84,12.89,8.11,28.33-10,36-18.23C247,91.19,265.15,73.08,266.93,68.64Z"/><path class="cls-2" d="M292.11,54.43a18.49,18.49,0,0,0-6.89-3.86,24.75,24.75,0,0,0-11.49-.48c-9.71,1.72-18.43,9.57-26.4,15.17,7.69-5.4,19.3-2.84,27.92-5.85,2.49-.87,3.7-3.29,6.66-3.43a8.1,8.1,0,0,1,6.35,3.23c1.86,2.25,2,5.89,4.19,7.9,4,3.67,5.3-1.39,4.4-5A15.16,15.16,0,0,0,292.11,54.43Z"/><path class="cls-1" d="M291.37,55.13a17.49,17.49,0,0,0-6.5-3.62c-5.14-1.55-10.73-.89-15.81.85s-9.72,4.51-14.32,7.27l-12.92,7.76L222.92,78.76c-4.13,2.48-8.3,5-11.78,8.33s-6.28,7.6-7,12.37c-.6,4.15.73,8.87,4.29,11.09,13.06,8.15,30.72-14,38.46-21.79l27.81-28c2-2,4.22-4.09,7-4.22a7.67,7.67,0,0,1,6,3c1.75,2.11,1.89,5.52,4,7.4,3.77,3.43,5-1.3,4.16-4.72A14.18,14.18,0,0,0,291.37,55.13Z"/></svg>