<svg id="Layer_1" data-name="Layer 1" xmlns="http://www.w3.org/2000/svg" xmlns:xlink="http://www.w3.org/1999/xlink" viewBox="0 0 695.06 838.45"><defs><style>.cls-1{fill:#23362b;}.cls-2{fill:#ffae5f;}.cls-3{fill:#218649;}.cls-4{fill:#05ce7c;}</style><symbol id="arrow" data-name="arrow" viewBox="0 0 12.74 11.9"><polygon class="cls-1" points="1.17 1.65 11.43 11.09 11.12 11.3 12.74 11.9 12.14 10.4 11.94 10.66 1.73 1.27 1.73 0.73 0.92 0 0.81 0.77 0 1.04 0.65 1.71 1.17 1.65"/></symbol></defs><title>sils2</title><path class="cls-1" d="M473.08,309.57l10.3-74.69s8.08-15.45-11.17-13.7c-8.3.75-18.8,4-30.34,9.48-1.16.55,1.17,3.94,1.17,3.94l1.75,3.79L443,243.5l-16.58,12.76-3.72-2.43-8.58,6L412,257.35s-5.41-.82-6,.29c-8.17,16,6.13,17.79,6.13,17.79l57.17,35,4.08,8.46-1,1.75,1,1.79,4.56,8.28s4.08-.29,4.52-2l-4.67-10.36-2.19-1.9Z"/><path class="cls-1" d="M473.52,288.13s15.29,21.3,6.13,35.39,9.73,2.89,9.73,2.89,12.58-27.89-9.19-42c0,0,3.06,6.24,2.08,9.74C482.27,294.14,478,289.47,473.52,288.13Z"/><path class="cls-2" d="M480.29,235.78a63.64,63.64,0,0,1-16.43,10.72,37.8,37.8,0,0,0,15-5.25l-.15,5.67s1,1.08,3.34-1.39l1.36-10.65-1-1.72Z"/><path class="cls-2" d="M481.56,247.59s-3.64,2.27-4.81,2.11l-.5,6.94,4.57-2.85Z"/><path class="cls-2" d="M461.6,247.61s-32.41,25.11-53.68,24.44c0,0-1.71,0-2-1.44l1.2,2.46,8.42,4.52-3.3-3.26,8.09-1.64,1.75,1.83,5.84-1.76-1.25-2.07s15.56-6.52,18.23-9.29l1.11,1.53s5.2-2.06,6.1-3.71l-1.64-2.36,9.59-6Z"/><path class="cls-2" d="M462.22,250.36a16.7,16.7,0,0,0,1.44-2.78l4.8-.4Z"/><polygon class="cls-2" points="480.37 255.84 476.58 257.82 473.14 276.92 475.14 277.27 473.01 297.56 468.83 300.46 472.09 308.61 472.93 307.83 480.37 255.84"/><polygon class="cls-2" points="473.34 282.3 473.47 278.83 469.67 282.02 470.18 285.79 473.34 282.3"/><polygon class="cls-3" points="471.82 277.2 472.05 273.43 468.45 276.29 469.11 279.13 471.82 277.2"/><polygon class="cls-2" points="473.95 262.15 474.37 259.02 469.99 262.02 470.9 264.86 473.95 262.15"/><polygon class="cls-3" points="474.27 253.1 474.39 250.61 470.6 253.31 471.61 255.38 474.27 253.1"/><path class="cls-4" d="M470.81,308.74l-4.93-7.09-3.39,1.54-6.87-3.34,3.5-3.3-4.76-4-3.15,2.76L438,288.4l2.57-2.47-4.37-4-4.48,2.8-2.58-1.29,2.16-1.3-3.07-1.54-1.33.77-7.35-3.83,2.6-.42-2.57-2.76s-5.09.79-4.75,1a32.11,32.11,0,0,1,2,4.13l53.74,31.43-1.11-1.77Z"/><polygon class="cls-4" points="451.08 293.8 446.94 291.07 452.98 288.97 454.62 291.34 451.08 293.8"/><polygon class="cls-4" points="443.69 288.89 440.86 287.84 444.84 286.02 447.26 288 443.69 288.89"/><polygon class="cls-4" points="427.03 279.99 422.74 277.95 424.61 277.04 423.31 275.12 427.77 273.79 429.07 276.2 425.63 277.88 427.03 279.99"/><polygon class="cls-4" points="429.09 279.72 427.73 278.19 431.71 276.12 434.28 279.13 429.09 279.72"/><polygon class="cls-4" points="432.98 281.95 431.04 280.71 434.9 280.4 432.98 281.95"/><path class="cls-3" d="M457.93,293.86c.39.3,3.21,2.33,3.21,2.33l-2.91,2.27,1.51,1.09,4.81-1.38,2.9-1.54-1.94-2-2.65,1.3-3.4-2.48Z"/><polygon class="cls-3" points="471.91 271.92 472.85 265.12 468.77 267.24 468.81 274.04 471.91 271.92"/><polygon class="cls-3" points="469.67 265.58 468.96 262.89 465.56 265.4 466.47 268 469.67 265.58"/><polygon class="cls-3" points="473.35 257.94 473.32 255.64 469.74 257.76 469.91 260.35 473.35 257.94"/><polygon class="cls-2" points="476.62 247.69 476.99 244.22 473.85 245.76 473.92 249.38 476.62 247.69"/><polygon class="cls-2" points="472.24 290.51 472.13 286.79 468.05 289.4 469.63 293.13 472.24 290.51"/><path class="cls-2" d="M471.8,296.57a21.56,21.56,0,0,0,.13-3.47l-3,2.32,1,3.14Z"/><polygon class="cls-3" points="468.36 286.81 467.56 283.42 464.41 285.7 465.45 289.08 468.36 286.81"/><polygon class="cls-3" points="467.58 292.67 466.67 290.31 462.15 292.52 463.6 294 467.58 292.67"/><polygon class="cls-4" points="467.86 299.23 467.19 298.1 460.51 300.39 462.41 302.26 467.86 299.23"/><polygon class="cls-3" points="467.11 261.11 467.13 258.67 463.89 260.74 464.64 263.78 467.11 261.11"/><polygon class="cls-3" points="471.66 250.24 471.59 247.11 466.42 250.24 466.64 253.18 471.66 250.24"/><polygon class="cls-2" points="471.64 309.44 470.56 309.72 474.4 318.8 476.07 317.99 471.64 309.44"/><path class="cls-4" d="M478,329.11s2.88.17,4-1l-3.52-.23-2.93-6.48,2.42-2.52-4.07,1.63Z"/><path class="cls-4" d="M490.56,319.11s3.14-9.57-.13-19.13c0,0-.21,5.85-.89,7.25,0,0-.29-4.92-1.84-7.28,0,0,.33,7.56-.43,9.4,0,0-1.48-7.21-2.84-8.83,0,0,.41,5,.33,7.56a36.1,36.1,0,0,0-2.49-5.57s2.68,11.82.75,17.08c0,0,3-5.16,2.49-9,0,0,2.08,4,2,6.61a77.39,77.39,0,0,0,1.28-9.16A33.92,33.92,0,0,1,490.56,319.11Z"/><path class="cls-2" d="M489.33,299.77a12,12,0,0,0-6.28-11.1s1.92,4.64,1.09,6.92l-.69,1.28s-4.58-5.12-6.78-5.77c0,0,5.07,6.39,4.78,9.28l2.25,2.18-.49-4.57s3.33,3.39,3.83,5.86l-.67-7.41Z"/><polygon class="cls-4" points="463.46 242.62 463.31 244.52 469.88 241.16 468.27 238.54 463.46 242.62"/><polygon class="cls-4" points="473.67 235.47 470.46 237.81 471.77 240 477.61 235.62 473.67 235.47"/><polygon class="cls-4" points="477.31 231.39 475.42 233.14 478.77 233.43 481.25 229.93 477.31 231.39"/><path class="cls-4" d="M477.17,226.72s-.15,2.77.29,2.48,5.1-1.75,5.1-1.75l-1.31-2.92Z"/><polygon class="cls-4" points="474.83 222.35 478.33 223.37 474.98 226.43 471.77 225.7 474.83 222.35"/><path class="cls-4" d="M466.67,223.22s4.52-.73,4.08-.58-.88,3.5-.88,3.5l-4.08.58-2-2.77Z"/><polygon class="cls-4" points="461.27 224.97 462.58 227.45 457.04 228.47 456.75 226.43 461.27 224.97"/><polygon class="cls-4" points="453.54 227.89 455 230.22 450.62 231.68 449.46 228.91 453.54 227.89"/><polygon class="cls-4" points="446.98 230.08 448.44 232.41 443.77 233.87 442.46 231.39 446.98 230.08"/><polygon class="cls-4" points="408.91 264.35 405.41 265.38 404.83 268.58 409.06 266.1 408.91 264.35"/><polygon class="cls-4" points="411.24 266.69 407.31 269.17 411.97 270.19 413.72 267.56 411.24 266.69"/><polygon class="cls-4" points="416.79 266.54 414.6 269.61 420.43 268 420.72 265.81 416.79 266.54"/><polygon class="cls-4" points="423.93 264.35 423.35 266.83 429.48 264.94 428.89 262.75 423.93 264.35"/><polygon class="cls-4" points="433.12 261.14 432.25 263.63 437.93 260.85 437.5 259.39 433.12 261.14"/><polygon class="cls-4" points="440.71 257.5 440.85 259.25 446.39 256.04 444.5 254 440.71 257.5"/><polygon class="cls-4" points="447.56 252.69 448.73 254.58 452.67 251.37 450.48 249.91 447.56 252.69"/><path class="cls-4" d="M454.27,248.16a7,7,0,0,0,1.17,1.75l3.79-3.06-2.33-1.17Z"/><path class="cls-4" d="M461.71,243.21c-.44,0-2,1.31-2,1.31l1.75,1.75,1.17-1Z"/><path class="cls-4" d="M406.72,259l-1.17,3.5s4.38,0,4.23-.44a15.89,15.89,0,0,1,.58-3.21Z"/><polygon class="cls-4" points="422.75 253.82 422.18 256.92 425.39 258.08 426.46 256.25 422.75 253.82"/><path class="cls-4" d="M414.16,259.83l-1.31,3.5s-2.19-.73-2.19-1.17,1.31-4.81,1.31-4.81Z"/><polygon class="cls-4" points="444.79 238.39 443.04 243.5 446.39 242.77 447.42 238.39 444.79 238.39"/><path class="cls-4" d="M411,236.2l-2.48,3.35s2.48,2.48,2.63,1.75a31,31,0,0,1,2.33-4.08Z"/><path class="cls-2" d="M414.45,237.66l-2.33,3.94s2.63,1.9,2.63,1.46a33,33,0,0,1,1.6-3.79Z"/><path class="cls-2" d="M423.35,227.16c-.44-.15-4.23-.15-4.23-.15l-.15,3.35,3.79.15Z"/><polygon class="cls-2" points="449.02 217.24 446.98 219.43 449.75 222.35 451.64 218.85 449.02 217.24"/><polygon class="cls-4" points="448 216.22 446.25 218.26 444.06 217.24 445.08 215.2 448 216.22"/><path class="cls-2" d="M461.42,214.76l-2.19,2.48.73,2s2.92-.15,2.77-.58Z"/><path class="cls-2" d="M460.69,233l-3.21,1.46s.15,4.52.73,4.23,4.08-.88,4.08-1.46A32.74,32.74,0,0,0,460.69,233Z"/><polygon class="cls-2" points="451.06 198.57 447.71 199.16 449.02 204.26 452.08 203.97 451.06 198.57"/><polygon class="cls-2" points="459.52 191.14 456.75 194.34 459.23 196.53 461.56 193.76 459.52 191.14"/><polygon class="cls-2" points="458.5 190.41 455.87 193.62 453.83 191.28 455.87 189.39 458.5 190.41"/><polygon class="cls-4" points="450.62 197.26 446.39 197.7 446.98 202.37 443.62 196.1 450.62 197.26"/><polygon class="cls-4" points="456.02 234.75 456.31 239.12 453.1 236.5 453.69 234.16 456.02 234.75"/><polygon class="cls-1" points="511.8 223.25 509.34 225.94 505.99 224.97 508.25 222.3 511.8 223.25"/><polygon class="cls-2" points="511.15 228.62 509.34 225.94 511.8 223.25 513.35 225.65 511.15 228.62"/><polygon class="cls-4" points="505.99 224.97 507.28 227.54 511.15 228.62 509.34 225.94 505.99 224.97"/><polygon class="cls-1" points="654.16 676.46 658.42 691.12 659.37 691.33 660.07 690.68 655.36 675.14 654.16 676.46"/><path class="cls-1" d="M650.84,675l.77,2.48,2.55-.84,4.19-.4a4.52,4.52,0,0,0-1.68-4.45l-3.17,2.59Z"/><polygon class="cls-1" points="658.97 683.35 659.3 684.99 657.88 685.97 657 685.75 652.55 690.35 651.13 687.54 656.42 684.52 656.57 683.46 658.97 683.35"/><path class="cls-1" d="M645.41,697.57c.33-.33,4.38-3.61,4.38-3.61l.44-1.53,2.19.51,2.08-3.79-2.19-3.39-1.75.66-2-3.06a11.29,11.29,0,0,0,.88,3.39l-2.63-.55,2.63,1.42-1.2.77-.11,1.09-4.7,2.41-2.63,3.83Z"/><polygon class="cls-1" points="643.66 693.52 639.39 692.32 637.86 687.83 633.92 688.38 634.36 689.58 636.66 689.58 637.86 693.63 641.03 696.15 643.66 693.52"/><path class="cls-1" d="M643.18,693.59l-2.66-2-.15-2.66-2.77.26.07,1.06.88.18.66,2.44a17.43,17.43,0,0,0,1.42,1.42C640.74,694.32,643.18,693.59,643.18,693.59Z"/><polygon class="cls-1" points="683.87 827.55 668.87 824.72 668.25 825.46 668.52 826.38 684.5 829.22 683.87 827.55"/><path class="cls-1" d="M686.71,825.27l-2.56-.44-.41,2.66-1.54,3.92a4.52,4.52,0,0,0,4.73.52l-.87-4Z"/><polygon class="cls-1" points="671.99 825.93 670.72 827.02 669.16 826.27 668.92 825.4 662.74 823.78 664.48 821.16 669.72 824.28 670.71 823.89 671.99 825.93"/><path class="cls-1" d="M652.94,821.1c.45.12,5.29,2,5.29,2l1.55-.37.63,2.16,4.32-.05,1.88-3.57-1.43-1.2,1.7-3.22a11.29,11.29,0,0,0-2.52,2.43l-.81-2.56.05,3-1.26-.67-1,.44-4.41-2.92-4.62-.41Z"/><path class="cls-1" d="M652.94,821.1l-2.13,5.15-4.74-.44-1.9,1.39-1-1.46L646,823l2.7-.07a56.9,56.9,0,0,1,.88-5.69c.22-.15,2.74-1.09,2.74-1.09Z"/><polygon class="cls-1" points="654.16 820.7 652.34 826.25 650.51 829.16 649.42 831.06 647.89 830.48 648.54 827.92 650.08 824.28 651.9 820.05 654.16 820.7"/><polygon class="cls-4" points="591.81 403.53 609.78 420.05 609.22 420.42 612.06 421.47 611.01 418.86 610.66 419.3 592.79 402.88 592.79 401.93 591.37 400.65 591.19 402 589.77 402.48 590.9 403.64 591.81 403.53"/><polygon class="cls-4" points="604.77 404.54 624.39 419.07 623.87 419.5 626.81 420.24 625.49 417.75 625.18 418.23 605.68 403.78 605.58 402.84 604.03 401.72 604 403.08 602.63 403.7 603.88 404.74 604.77 404.54"/><polygon class="cls-4" points="521.2 399.95 544.9 405.78 544.59 406.37 547.59 405.92 545.41 404.14 545.31 404.7 521.74 398.9 521.28 398.07 519.42 397.64 519.91 398.91 518.9 400.01 520.45 400.49 521.2 399.95"/><polygon class="cls-4" points="529.36 409.87 553.07 415.69 552.76 416.29 555.75 415.84 553.58 414.05 553.48 414.61 529.91 408.82 529.45 407.99 527.59 407.56 528.08 408.83 527.06 409.93 528.62 410.4 529.36 409.87"/><polygon class="cls-4" points="597.27 416.78 611.19 436.83 610.57 437.07 613.11 438.72 612.66 435.94 612.21 436.29 598.37 416.36 598.58 415.43 597.47 413.87 597 415.15 595.51 415.3 596.35 416.69 597.27 416.78"/><use id="arrow-3" data-name="arrow" width="12.74" height="11.9" transform="translate(626.89 485.77) rotate(15.6) scale(1.75)" xlink:href="#arrow"/><use width="12.74" height="11.9" transform="matrix(1.45, 0.99, -0.99, 1.45, 638.49, 554.63)" xlink:href="#arrow"/><path class="cls-1" d="M479.81,75s6.29,5.31,29.09,13.73a96.1,96.1,0,0,1-30.18-13.45Z"/><path class="cls-1" d="M508.9,88.77s9.47,10.76,12.78,12.14A35.38,35.38,0,0,1,508.9,88.77Z"/><path class="cls-1" d="M508.49,87.32a3.73,3.73,0,0,0,.57-2.25,3.19,3.19,0,0,1,.29,2.6Z"/><path class="cls-1" d="M473.74,75.64l.31,9.22-4.32,9.27s5.17-8.71,5.16-9-.34-9.9-.34-9.9Z"/><polygon class="cls-1" points="495.02 92.52 496.78 105.84 495.18 109.23 497.54 105.86 495.6 92.08 495.02 92.52"/><path class="cls-1" d="M475.87,74.49s14.54,14,18.8,15.74l-.59.9s-14.58-10.89-18.9-16.35Z"/><path class="cls-1" d="M471.2,69.37s-6.7,12.34-15.69,12.79-28.14,18.35-32.73,24.48l3.5,11.75s9-16.84,21.61-16.43c11.4.37,14.93-16.6,14.93-16.6s6.32-3.81,8.45-7.31S476,73.94,476,73.94a2.89,2.89,0,0,0,2.59.53C480,74,488.41,70,488.41,70V68.84l1-.46-.61-1.68-16.22.91-7.31,1Z"/><path class="cls-1" d="M454.23,90.62s7.39,3.58,1.07,9.22-5.66,7.22-5.66,7.22.1,2.12,1.09,2.88-.31,2.7-.31,2.7a2,2,0,0,1-1.68-1.9c-.23-1.75-1.29-3.5-.3-6s3.66-8.38-2.89-8.53C445.55,96.18,452.1,90.39,454.23,90.62Z"/><path class="cls-1" d="M446.34,90.33s7.82.53,2.85,6.2-3.81,6.52-3.81,6.52.06,1.34,1.17,1.6.47,2.2.47,2.2a1.86,1.86,0,0,1-2-.89c-.57-1.17-1.94-2.12-1.48-4.15s1.87-6.89-4.47-5.22C439.07,96.58,444.24,90.74,446.34,90.33Z"/><path class="cls-1" d="M436.62,107.35s10.37,4.7,2.24,9.81-8.46,6.6-8.46,6.6-1.13,5.34-3.63,4.83c0,0,.14.45-.06-.65a4.64,4.64,0,0,1-3.1.29s4.41-1.76,4.82-5.37a2.29,2.29,0,0,1,1.57-1.3c1.25-.36,2.3-4.45,2.3-4.45S433,108.59,436.62,107.35Z"/><ellipse class="cls-1" cx="430.14" cy="112.67" rx="9.71" ry="5.45" transform="translate(-14.49 116.72) rotate(-15.2)"/><path class="cls-1" d="M426.32,102.23s6.13,6.43,2.13,12.78-4.52,7.73-4.52,7.73-1.23,6.48-2.46,5.85c0,0-.07.32-.17-1,0,0-.64,2-1.86.49a9,9,0,0,0,2.85-6.55,2.81,2.81,0,0,1,.77-1.62c.61-.44,1.13-5.52,1.13-5.52S424.52,103.76,426.32,102.23Z"/><path class="cls-1" d="M427.74,105.67c.39,3.6-1.36,7.94-3.91,9.68s-4.92.24-5.31-3.36,1.36-7.94,3.91-9.68S427.36,102.06,427.74,105.67Z"/><path class="cls-1" d="M428.78,112l-.3.44-.85,1.19c-.75,1-1.85,2.49-3.35,4.27a82,82,0,0,1-5.74,6.16,58.12,58.12,0,0,1-8.63,6.91,33.87,33.87,0,0,1-12.47,5.14,22.47,22.47,0,0,1-7.63,0,20.94,20.94,0,0,1-3.82-1l-.94-.33-.12,0-.21-.09,0,0-.2-.1-.4-.19-1.6-.78a16.09,16.09,0,0,1-1.64-.84l-1.72-1.09a25.65,25.65,0,0,1-3.2-2.37,57.2,57.2,0,0,1-5.5-5.41c-3.35-3.7-6.64-7.1-11.06-8.79-1.13-.34-2.23-.78-3.38-1.05l-3.55-.64a54.53,54.53,0,0,0-7.31-.17c-1.22.07-2.44.05-3.65.19l-3.62.43c-2.41.22-4.76.72-7.09,1.13s-4.64.86-6.88,1.32-4.52.77-6.7,1c-4.36.45-8.62.53-12.4-.58a9.16,9.16,0,0,1-4.68-3,7.39,7.39,0,0,1-1.39-4.79,20.23,20.23,0,0,1,2.18-7.71,38.43,38.43,0,0,1,2.54-4.48c.65-1,1-1.5,1-1.5s-.37.51-1,1.52a38.34,38.34,0,0,0-2.44,4.53,18.82,18.82,0,0,0-1.94,7.64,6.9,6.9,0,0,0,1.47,4.43,8.47,8.47,0,0,0,4.45,2.61c3.61.91,7.75.67,12,.05,2.14-.31,4.3-.75,6.52-1.24l6.82-1.65c2.33-.55,4.68-1.18,7.14-1.55l3.68-.65c1.24-.21,2.51-.27,3.78-.41a57.3,57.3,0,0,1,7.75-.24l4,.48c1.32.24,2.62.66,3.94,1,1.27.49,2.55,1,3.77,1.64a29.15,29.15,0,0,1,3.42,2.23l1.59,1.24,1.45,1.32c1,.88,1.85,1.77,2.77,2.64a52.65,52.65,0,0,0,5.34,4.7,20.89,20.89,0,0,0,2.76,1.82l1.36.78a13.92,13.92,0,0,0,1.58.71l1.64.69.41.17.2.09.05,0-.1,0,.09,0,.73.21a15.43,15.43,0,0,0,2.92.59,16.65,16.65,0,0,0,5.71-.36,26.87,26.87,0,0,0,9.81-4.78,51.18,51.18,0,0,0,7.16-6.53,74.47,74.47,0,0,0,4.82-5.88c1.25-1.7,2.16-3.08,2.76-4l.66-1.06.2-.34Z"/><path class="cls-2" d="M420.8,121.64l-1.53-.07s-15.53,20.09-34.78,13C384.48,134.53,400.89,144.17,420.8,121.64Z"/><path class="cls-2" d="M442,113s-1,1.17-1.75-.58a3,3,0,0,0-1.24,2.26c-.15,1.6-5.32,5.91-5.32,5.91S443.4,115.51,442,113Z"/><path class="cls-2" d="M431.64,108.89s-.62,1.42-1.84,0a3,3,0,0,0-.49,2.53c.35,1.57-3.27,7.25-3.27,7.25S433.74,110.9,431.64,108.89Z"/><path class="cls-2" d="M487.14,69.57s.55-.27.77,0,.6.71-.38.88-6.4,3.17-6.4,3.17-2.79,1.91-4.16.93c0,0,4.38-.82,3.39-2.35s-3.66-.82-3.66-.82.16-1.2,3.77-.71A12.39,12.39,0,0,0,487.14,69.57Z"/><path class="cls-2" d="M475.71,73.89A10.31,10.31,0,0,0,471.5,78c-1.2,2.63-7.11,6.67-8.59,7.49a30.62,30.62,0,0,1-6.29,13.18l-5.91,6.13,5.41-6.34s6.07-9.57,5-12.74c0,0-.49-1.37,1.09-1.31s8.09-5.31,8.59-6.84S475.71,73.89,475.71,73.89Z"/><path class="cls-2" d="M445.41,102.17s2.73-6.73,6.67-8.09,2.57-6.34,2.57-6.34.22,5.09-2.9,5.85S445.41,102.17,445.41,102.17Z"/><path class="cls-1" d="M452.63,83.24s-24.94-6.13-25-32.93l-1.2-1S408,53.6,366.9,40.91c0,0,32.34,11.89,59.47,9.84,0,0,.22,29.32,25.16,34.24Z"/><path class="cls-1" d="M366.9,40.91s-18.85,4.38-24.32,3.17A47.71,47.71,0,0,0,366.9,40.91Z"/><path class="cls-1" d="M368.18,39.6a4.35,4.35,0,0,1,.22-3.06,2.89,2.89,0,0,0-1.64,2.73Z"/><path class="cls-1" d="M427,51.19l-7.42,14.61,2,14.29s-3.49-14.37-3.35-14.67,7.93-15.11,7.93-15.11Z"/><polygon class="cls-1" points="385.41 56.92 376.63 70.73 377.39 75.98 375.52 70.12 384.77 55.92 385.41 56.92"/><path class="cls-1" d="M422.44,52.18S394,56.22,387,54.58l.44,1.53s26.36-.22,35.22-2.84Z"/><polygon class="cls-1" points="423.53 51.41 423.86 53.05 425.17 52.83 426.38 50.76 423.42 50.65 423.53 51.41"/><path class="cls-1" d="M76.34,6.1S94.74,9.79,92,23.15s7.68,14.51,7.68,14.51,10.5,4.38,12.55,16,6.3,12.52,6.3,12.52-2,2.16-5.72-.79L109,61l1.25-4.47s-2.91-9.16-6.27-9.78a7.68,7.68,0,0,1-8.81-1.81c-4.13-4.2-10.4-11.19-5.77-21.36C94.84,11.74,76.34,6.1,76.34,6.1Z"/><path class="cls-1" d="M100.55,41.92l-8,11.27L78.3,51.46S64.47,55,60.69,65.66L48.44,63.52l10.88.14S66.39,50.38,77.74,50l12.86.54,7-9Z"/><path class="cls-1" d="M105.55,41.87l6.81.93s-.07-7.25,12-13.53l-2.2-4.79-.27,4.42s-11.24,6.34-11.36,11.93l-8.06-.48Z"/><polygon class="cls-1" points="112.45 58.57 115.62 59.3 115.81 64.97 112.45 58.57"/><path class="cls-1" d="M87,39.27s4.21,3.9,7.5,3.06l-1.06-3.67S91.77,40.6,87,39.27Z"/><path class="cls-1" d="M119.72,269.07s17-9.58,40,3.7S189.16,278,189.16,278l3.53,4a44.06,44.06,0,0,1-33.79-7.73C142.59,262.35,119.72,269.07,119.72,269.07Z"/><path class="cls-1" d="M229,279.83l-7.06,4.88L217.4,281s-8.41-.84-12.44,1.34-8.57,2.69-15.63-1,10.26-7.9,17.65-3.19c0,0,3,2,11.6.34S229,279.83,229,279.83Z"/><polygon class="cls-1" points="222.61 278.82 216.39 275.13 220.43 279.67 222.61 278.82"/><path class="cls-1" d="M202.27,277.14s2.19-5.21,5.38-7.06c0,0-28.08-12.44-36.82-33.29l-8.24-2,7.06,2.86s10.93,23.87,32.78,32.78l-1.85,6.89Z"/><path class="cls-1" d="M196.22,276.64l.67-6.56S174.36,257.3,167,245.37L152.34,247l13.79-.34s10.59,15.47,27.4,24.71l.84,6.22Z"/><path class="cls-1" d="M195,283s-1.85,3.7-4.71,3.87c0,0,7.06-1,7.4-3.87Z"/><path class="cls-1" d="M470.95,201.79,467.26,203l-.31,2.65L464.9,204l-.16-2.91s1-2.52,1-2.6-1.32-1.53-1.32-1.53l-.36.34.44,1.4-1,2.21-.13,2.91-2.13.36v-2.08l-1.66-.52,1,.94-.31,2.81.62.57,2.65-.42,1.22,2.29-1.84.36-1.38,1.17-.65.6.73.1.36.42.21-.62,1.09-.91,2.52-.1.6-.48.05.07s-.23.57-.26.65a3.4,3.4,0,0,0,.7.81c.08,0,1.19-.1,1.19-.1l.6-.75-.23-1.4-.72-.35.28-.23.29-3.19,2-.7.39.21v-.49l.68-.23Z"/><use id="arrow-8" data-name="arrow" width="12.74" height="11.9" transform="translate(664.2 715.76) rotate(15.6)" xlink:href="#arrow"/><use width="12.74" height="11.9" transform="translate(670.83 755.11) rotate(34.31)" xlink:href="#arrow"/><use id="arrow-13" data-name="arrow" width="12.74" height="11.9" transform="matrix(1, 0.09, -0.09, 1, 503.55, 230.97)" xlink:href="#arrow"/><use width="12.74" height="11.9" transform="translate(523.64 247.19) rotate(34.31)" xlink:href="#arrow"/><path class="cls-1" d="M623.75,63.57a.8.8,0,0,1-.47-.82,1.22,1.22,0,0,1,.66-.76,7.45,7.45,0,0,1,.8-.36,6.57,6.57,0,0,0,1.34-.78,6.24,6.24,0,0,1,1.26-.83.43.43,0,0,1,.47,0,.38.38,0,0,1,.09.17,1.74,1.74,0,0,1-.09.94,5.54,5.54,0,0,1-.6,1.42,2.42,2.42,0,0,1-1.16,1,3.75,3.75,0,0,1-1.39.15A2.27,2.27,0,0,1,623.75,63.57Z"/><path class="cls-1" d="M624.74,67.21a1.27,1.27,0,0,0,1-1.12,3.39,3.39,0,0,0-1.1-2.31,5,5,0,0,0-1.89-1.2,2.65,2.65,0,0,0-1.93.06,3.06,3.06,0,0,0-1.17,1.11,2.24,2.24,0,0,0-.35.8,2.71,2.71,0,0,0,.06,1,2,2,0,0,0,.64,1c1.2,1.08,3.27,1,4.71.61Z"/><path class="cls-1" d="M624.49,64.5a.57.57,0,0,1,0,.32.24.24,0,0,1-.26.15.46.46,0,0,1-.09.52,1.13,1.13,0,0,1-.48.28c.27.34-.18.5-.46.49a.2.2,0,0,1-.07.26.54.54,0,0,1-.28.08.17.17,0,0,0-.1,0,.24.24,0,0,0,0,.06.29.29,0,0,1-.35.11s-.32.26-.42.24a.77.77,0,0,0-.16,0,.46.46,0,0,0-.14,0c-.42.14-1.11-.33-1.46-.52a1.81,1.81,0,0,1-.92-1.22,2.09,2.09,0,0,1,.45-1.59,3.28,3.28,0,0,1,1-1,3,3,0,0,1,1.79-.29,2.44,2.44,0,0,1,.56.14,2.13,2.13,0,0,1,1,.75A2.78,2.78,0,0,1,624.49,64.5Z"/><path class="cls-1" d="M620,64.22a.72.72,0,0,0-.09-.78c-.26-.2-.72-.08-1,0a6.16,6.16,0,0,1-1.38.09c-.16,0-.36,0-.44.11-.18.32.68.78.89.9a1.76,1.76,0,0,0,1.37.27A1.1,1.1,0,0,0,620,64.22Z"/><path class="cls-1" d="M619.76,63.43a1.08,1.08,0,0,0-.77,0,5.48,5.48,0,0,1-.89.16H618a2.18,2.18,0,0,1-.32,0l-.29,0a.85.85,0,0,0-.25,0s-.1.07-.06.09h0a3.31,3.31,0,0,1,.36,0l.37,0a2.73,2.73,0,0,0,.74,0c.15,0,.28-.08.43-.11a.93.93,0,0,1,.44,0,.36.36,0,0,0,.21,0c.07,0,.1-.14,0-.16s0,0,0,0"/><path class="cls-1" d="M625.16,65.88a1.11,1.11,0,0,1,.84-.5.17.17,0,0,1,.14,0s0,.11,0,.12a.3.3,0,0,1,.36.2l-.08,0a.44.44,0,0,1,.2.19.44.44,0,0,1,0,.1l0,.2a.33.33,0,0,1,0,.15.11.11,0,0,1-.11.08.56.56,0,0,1,0,.31.2.2,0,0,1-.25.13.08.08,0,0,1,0,.11.23.23,0,0,1-.13,0,.17.17,0,0,1-.17.13.51.51,0,0,1-.22-.07v.12a.55.55,0,0,1-.3,0l-.14-.08a.62.62,0,0,1-.28-.39A1.1,1.1,0,0,1,625.16,65.88Z"/><path class="cls-1" d="M623.62,62.47a.92.92,0,0,0-.15.31c0,.05,0,.28-.13.15s.1-.47.16-.54a1.32,1.32,0,0,1,.36-.3,4.24,4.24,0,0,1,.72-.33,5,5,0,0,0,1-.52c.2-.12.43-.27.61-.41a7.34,7.34,0,0,1,1.19-.84.57.57,0,0,1-.17.37,5.72,5.72,0,0,1-1.89,1.39,4.13,4.13,0,0,1-.8.32C624.23,62.16,623.84,62.2,623.62,62.47Z"/><path class="cls-1" d="M619.58,64.4a.29.29,0,0,0-.2-.52,1.76,1.76,0,0,0-.35.07,2.36,2.36,0,0,1-.37.1,2.75,2.75,0,0,1-.74-.1s-.12,0-.13,0a.09.09,0,0,0,0,.06.65.65,0,0,0,.45.28l.43.12a2,2,0,0,0,.46.09A.66.66,0,0,0,619.58,64.4Z"/><path class="cls-1" d="M622.82,62.46a2.33,2.33,0,0,0-1.4.14c-.16.08-.75.66-.71.89a.51.51,0,0,0-.44-.18c-.52,0-.75.35-.93.8a1.4,1.4,0,0,0,0,.56c0,.45.56,0,.78.21,0,0,0,.07,0,.1a.14.14,0,0,1-.09,0c-.05,0-.14-.06-.13,0a.42.42,0,0,0,.06.14.85.85,0,0,0,.21.28,1.4,1.4,0,0,0,1.11.14c.51-.16,1.16-.56,1.09-1.17a.37.37,0,0,1-.2,0c-.07,0-.13-.07-.12-.14a1.7,1.7,0,0,0,1.29-1.12A.57.57,0,0,0,622.82,62.46Z"/><path class="cls-1" d="M621,65.69l.24,0a2.16,2.16,0,0,0,.78-.43.92.92,0,0,0,.35-.79v-.06l-.06,0a.33.33,0,0,1-.17,0,.1.1,0,0,1-.07,0h0a1.75,1.75,0,0,0,1.28-1.15.61.61,0,0,0-.5-.81h0a2.39,2.39,0,0,0-1.44.15,2.25,2.25,0,0,0-.73.83.59.59,0,0,0-.4-.12c-.53,0-.77.33-1,.83a1.47,1.47,0,0,0-.05.58.27.27,0,0,0,.09.21.45.45,0,0,0,.35,0c.13,0,.27-.06.34,0l0,0h0L620,65h0a.12.12,0,0,0-.11,0,.08.08,0,0,0,0,.08.35.35,0,0,0,.05.13v0a.88.88,0,0,0,.22.29A1.38,1.38,0,0,0,621,65.69Zm1.28-1.19c0,.35-.27.81-1.07,1.05a1.36,1.36,0,0,1-1.07-.13.8.8,0,0,1-.19-.26v0a.38.38,0,0,1,0-.08H620a.18.18,0,0,0,.12,0,.11.11,0,0,0,0-.08.12.12,0,0,0,0-.09c-.11-.11-.28-.07-.43,0s-.22,0-.28,0a.19.19,0,0,1-.06-.14,1.42,1.42,0,0,1,0-.54c.19-.48.41-.78.88-.77a.46.46,0,0,1,.4.16l.11.13,0-.17c0-.2.52-.76.69-.85a2.28,2.28,0,0,1,1.37-.14.52.52,0,0,1,.44.69A1.65,1.65,0,0,1,622,64.29h0v0a.14.14,0,0,0,0,.11.2.2,0,0,0,.13.08A.33.33,0,0,0,622.28,64.5Z"/><path class="cls-1" d="M622.26,63.1a.75.75,0,0,1,.1.51.56.56,0,0,1-.3.41.45.45,0,0,1-.49-.07C621,63.43,621.81,62.35,622.26,63.1Z"/><path class="cls-1" d="M621.91,64.08l.15,0a.59.59,0,0,0,.32-.43.77.77,0,0,0-.11-.53h0c-.14-.24-.3-.28-.41-.26a.61.61,0,0,0-.46.44.65.65,0,0,0,.14.7A.46.46,0,0,0,621.91,64.08Zm0-1.21h0a.4.4,0,0,1,.37.24h0a.72.72,0,0,1,.1.49A.54.54,0,0,1,622,64a.43.43,0,0,1-.47-.07.61.61,0,0,1-.13-.65A.58.58,0,0,1,621.87,62.87Z"/><path class="cls-1" d="M619.75,64.22a1.19,1.19,0,0,1,.11-.44c.08-.15.33-.24.44-.06a.6.6,0,0,1,.09.22,1.12,1.12,0,0,1-.07.45.52.52,0,0,1-.1.19.29.29,0,0,1-.31,0C619.77,64.56,619.74,64.37,619.75,64.22Z"/><path class="cls-1" d="M620.09,64.66a.24.24,0,0,0,.16-.07.54.54,0,0,0,.1-.2,1,1,0,0,0,0-.17v0a.86.86,0,0,0,0-.25.61.61,0,0,0-.1-.23.22.22,0,0,0-.2-.11.34.34,0,0,0-.28.17,1.2,1.2,0,0,0-.11.45h0c0,.08,0,.34.19.42A.41.41,0,0,0,620.09,64.66Zm0-1h0a.17.17,0,0,1,.16.09.57.57,0,0,1,.09.21.81.81,0,0,1,0,.24v0a1,1,0,0,1,0,.16.5.5,0,0,1-.09.18.27.27,0,0,1-.28,0c-.17-.06-.16-.3-.15-.37a1.16,1.16,0,0,1,.11-.43A.3.3,0,0,1,620.1,63.64Z"/><path class="cls-1" d="M621.62,64.84c.09-.12.09-.34-.08-.4s-.57.09-.77.16a.71.71,0,0,0-.3.16.25.25,0,0,0,0,.31.34.34,0,0,0,.3.09,2.09,2.09,0,0,0,.55-.11A.67.67,0,0,0,621.62,64.84Z"/><path class="cls-1" d="M620.83,65.18a2.11,2.11,0,0,0,.47-.11.7.7,0,0,0,.34-.22h0a.34.34,0,0,0,.05-.29.22.22,0,0,0-.14-.14,1.14,1.14,0,0,0-.67.12l-.12,0a.72.72,0,0,0-.31.17.28.28,0,0,0,0,.34.35.35,0,0,0,.32.1Zm.78-.36a.66.66,0,0,1-.32.2,2.06,2.06,0,0,1-.55.11.31.31,0,0,1-.28-.08.23.23,0,0,1,0-.28.69.69,0,0,1,.29-.16l.12,0a1.13,1.13,0,0,1,.64-.12.17.17,0,0,1,.11.11.29.29,0,0,1,0,.25Z"/><path class="cls-1" d="M621,64.06h0a.07.07,0,0,1,0,0,.18.18,0,0,1,0,.06.52.52,0,0,1,0,.14.17.17,0,0,1-.13.12.12.12,0,0,1-.1,0l-.09-.08a.21.21,0,0,1-.07-.09.12.12,0,0,1,0-.09.17.17,0,0,1,.1,0l.13,0Z"/><path class="cls-1" d="M620.9,64.46h0a.19.19,0,0,0,.15-.13.55.55,0,0,0,0-.15.19.19,0,0,0,0-.07A.09.09,0,0,0,621,64h-.14l-.11,0h0a.19.19,0,0,0-.11.06.14.14,0,0,0,0,.11.21.21,0,0,0,.07.1h0l.1.08A.14.14,0,0,0,620.9,64.46Zm.09-.38h0a0,0,0,0,1,0,0,.16.16,0,0,1,0,.06.5.5,0,0,1,0,.13c0,.07-.06.1-.11.11a.09.09,0,0,1-.08,0l-.09-.08h0a.18.18,0,0,1-.06-.08.1.1,0,0,1,0-.08.15.15,0,0,1,.09,0h0l.1,0H621Z"/><path class="cls-1" d="M620.93,64.14c.1,0,0,.14,0,.16l0,0h0a.24.24,0,0,1-.1-.08v0a0,0,0,0,1,0,0l.06,0Z"/><path class="cls-1" d="M624.68,63.39c-.2,0-.73,0-.64-.34s.33-.28.49-.33.57-.13.84-.23a3,3,0,0,0,1.19-.89c.33-.38.62-.79,1-1.13.1.08.06.25,0,.37a7.24,7.24,0,0,1-.8,1.53,2.43,2.43,0,0,1-1.39,1A3.62,3.62,0,0,1,624.68,63.39Z"/><path class="cls-1" d="M621.24,64.66a.59.59,0,0,0-.19,0,.63.63,0,0,0-.26.1.69.69,0,0,0-.12.12s0,.07,0,.1.06,0,.09,0l.11-.09a.77.77,0,0,1,.27-.08.51.51,0,0,1,.17,0s.12,0,.12,0S621.28,64.66,621.24,64.66Z"/><path class="cls-1" d="M626,65.43h0s0,.06,0,.1,0,.06.06.06l.1,0a.18.18,0,0,1,.16.06s-.09.05-.08.1l0,0a1.09,1.09,0,0,1,.36.54,1.53,1.53,0,0,0-.49-.48l-.2-.13a.19.19,0,0,1-.11-.16C625.8,65.45,625.9,65.43,626,65.43Z"/><polygon class="cls-1" points="623.4 63.56 623.45 63.61 623.56 63.59 623.48 63.67 623.56 63.76 623.43 63.73 623.34 63.84 623.37 63.68 623.26 63.63 623.37 63.62 623.4 63.56"/><polygon class="cls-1" points="623.05 64.58 623.03 64.41 622.86 64.42 622.99 64.31 622.89 64.14 623.09 64.21 623.26 64.06 623.19 64.31 623.35 64.42 623.16 64.41 623.05 64.58"/><polygon class="cls-1" points="620.49 62.93 620.58 62.95 620.66 62.86 620.65 62.98 620.81 63.05 620.64 63.07 620.61 63.21 620.56 63.08 620.44 63.08 620.53 63 620.49 62.93"/><polygon class="cls-1" points="619.55 65.53 619.5 65.45 619.38 65.46 619.47 65.38 619.4 65.22 619.54 65.32 619.65 65.24 619.6 65.36 619.69 65.45 619.57 65.45 619.55 65.53"/><path class="cls-1" d="M622.13,63.06a.53.53,0,0,1,.08.31.49.49,0,0,1-.08.28.26.26,0,0,1-.26.11.52.52,0,0,1-.22-.68A.29.29,0,0,1,622.13,63.06Z"/><path class="cls-1" d="M620.25,63.75a.53.53,0,0,1,.08.18.35.35,0,0,1,0,.27c-.06.09-.23.17-.31.06a.33.33,0,0,1,0-.15.68.68,0,0,1,0-.21.28.28,0,0,1,.1-.18A.15.15,0,0,1,620.25,63.75Z"/><path class="cls-1" d="M621.59,63.33a.14.14,0,0,1,.19-.17c.11,0,.08.2,0,.25a.13.13,0,0,1-.17,0A.15.15,0,0,1,621.59,63.33Z"/><path class="cls-1" d="M621.73,63.47l.08,0a.23.23,0,0,0,.08-.21.14.14,0,0,0-.1-.11.2.2,0,0,0-.19,0,.19.19,0,0,0-.05.18h0a.19.19,0,0,0,0,.08A.17.17,0,0,0,621.73,63.47Zm0-.28h.05a0,0,0,0,1,0,0,.14.14,0,0,1,0,.12.08.08,0,0,1-.1,0l0,0h0a.1.1,0,0,1,0-.1Z"/><path class="cls-1" d="M619.94,63.95a.15.15,0,0,1,0-.09.09.09,0,0,1,.09,0,.1.1,0,0,1,.07.08.13.13,0,0,1,0,.12.09.09,0,0,1-.11,0A.12.12,0,0,1,619.94,63.95Z"/><path class="cls-1" d="M620,64.11a.15.15,0,0,0,.09,0,.18.18,0,0,0,0-.17.14.14,0,0,0-.11-.11.13.13,0,0,0-.13,0,.2.2,0,0,0,0,.12h0a.16.16,0,0,0,.06.15A.12.12,0,0,0,620,64.11Zm0-.23h0s0,0,0,0a.09.09,0,0,1,0,.08.05.05,0,0,1-.05,0,.08.08,0,0,1,0-.07.11.11,0,0,1,0-.06Z"/><path class="cls-1" d="M651.66,82.33a1.4,1.4,0,0,1-.82-1.43A2.14,2.14,0,0,1,652,79.57a13,13,0,0,1,1.4-.63,11.5,11.5,0,0,0,2.34-1.37,10.93,10.93,0,0,1,2.2-1.45.76.76,0,0,1,.82,0,.67.67,0,0,1,.16.3,3,3,0,0,1-.15,1.64,9.69,9.69,0,0,1-1,2.49,4.23,4.23,0,0,1-2,1.74,6.57,6.57,0,0,1-2.43.25A4,4,0,0,1,651.66,82.33Z"/><path class="cls-1" d="M653.4,88.7a2.22,2.22,0,0,0,1.75-2,5.93,5.93,0,0,0-1.93-4,8.66,8.66,0,0,0-3.31-2.1,4.64,4.64,0,0,0-3.37.11,5.36,5.36,0,0,0-2,1.94,3.92,3.92,0,0,0-.62,1.39,4.74,4.74,0,0,0,.11,1.79,3.47,3.47,0,0,0,1.12,1.82c2.11,1.89,5.72,1.74,8.24,1.07Z"/><path class="cls-1" d="M653,83.95a1,1,0,0,1,0,.56.41.41,0,0,1-.45.27.81.81,0,0,1-.16.91,2,2,0,0,1-.83.49c.48.6-.31.87-.81.85a.35.35,0,0,1-.13.45,1,1,0,0,1-.5.13.3.3,0,0,0-.17,0,.42.42,0,0,0-.08.11.51.51,0,0,1-.61.19c-.06,0-.56.46-.74.43a1.35,1.35,0,0,0-.28-.06.81.81,0,0,0-.24.07c-.73.25-1.94-.57-2.55-.9a3.17,3.17,0,0,1-1.61-2.13,3.66,3.66,0,0,1,.8-2.78,5.74,5.74,0,0,1,1.72-1.68,5.23,5.23,0,0,1,3.14-.5,4.27,4.27,0,0,1,1,.25A3.72,3.72,0,0,1,652.15,82,4.86,4.86,0,0,1,653,83.95Z"/><path class="cls-1" d="M645.07,83.46a1.26,1.26,0,0,0-.15-1.37c-.46-.35-1.27-.14-1.78-.08a10.77,10.77,0,0,1-2.42.15c-.28,0-.63-.06-.77.19-.31.55,1.19,1.37,1.55,1.57a3.07,3.07,0,0,0,2.4.47A1.93,1.93,0,0,0,645.07,83.46Z"/><path class="cls-1" d="M644.67,82.09a1.89,1.89,0,0,0-1.34,0,9.59,9.59,0,0,1-1.55.29h-.15a3.81,3.81,0,0,1-.55,0l-.51,0a1.49,1.49,0,0,0-.43,0c-.08,0-.17.12-.1.16h.05a5.79,5.79,0,0,1,.63.08l.66.07a4.79,4.79,0,0,0,1.29-.08c.26,0,.5-.14.75-.19a1.63,1.63,0,0,1,.77,0,.62.62,0,0,0,.37,0c.12,0,.17-.24.05-.28,0,0,.06,0,.05.06"/><path class="cls-1" d="M654.13,86.38a2,2,0,0,1,1.48-.88.29.29,0,0,1,.24.08c.06.07,0,.2,0,.22a.53.53,0,0,1,.63.34l-.15.06a.77.77,0,0,1,.36.34.77.77,0,0,1,0,.17l.05.35a.57.57,0,0,1,0,.26.2.2,0,0,1-.19.15,1,1,0,0,1,0,.55.35.35,0,0,1-.44.23.14.14,0,0,1-.09.19.41.41,0,0,1-.23,0,.3.3,0,0,1-.3.22.89.89,0,0,1-.39-.12v.22a1,1,0,0,1-.52-.06,1.91,1.91,0,0,1-.25-.13,1.08,1.08,0,0,1-.49-.69A1.92,1.92,0,0,1,654.13,86.38Z"/><path class="cls-1" d="M651.43,80.4a1.6,1.6,0,0,0-.26.55c0,.09-.09.48-.23.27s.17-.81.28-.95a2.31,2.31,0,0,1,.63-.52,7.43,7.43,0,0,1,1.26-.58,8.74,8.74,0,0,0,1.82-.91c.34-.21.75-.48,1.07-.72a12.84,12.84,0,0,1,2.08-1.47,1,1,0,0,1-.29.65,10,10,0,0,1-3.31,2.42,7.23,7.23,0,0,1-1.39.57C652.49,79.86,651.81,79.93,651.43,80.4Z"/><path class="cls-1" d="M644.36,83.79a.5.5,0,0,0-.35-.92,3.07,3.07,0,0,0-.62.12,4.12,4.12,0,0,1-.64.18,4.82,4.82,0,0,1-1.3-.18c-.09,0-.2,0-.22.08a.16.16,0,0,0,0,.1,1.14,1.14,0,0,0,.79.49l.76.21a3.44,3.44,0,0,0,.8.15A1.16,1.16,0,0,0,644.36,83.79Z"/><path class="cls-1" d="M650,80.39a4.08,4.08,0,0,0-2.45.25c-.28.14-1.31,1.15-1.25,1.56a.88.88,0,0,0-.76-.31c-.91,0-1.3.61-1.62,1.4a2.45,2.45,0,0,0-.08,1c.07.79,1,0,1.36.36.05.05.08.12,0,.18a.24.24,0,0,1-.16,0c-.09,0-.25-.1-.23,0a.74.74,0,0,0,.11.24,1.48,1.48,0,0,0,.36.48,2.46,2.46,0,0,0,1.94.24c.89-.28,2-1,1.92-2a.65.65,0,0,1-.34.08c-.12,0-.23-.13-.21-.24a3,3,0,0,0,2.25-2A1,1,0,0,0,650,80.39Z"/><path class="cls-1" d="M646.84,86a2.24,2.24,0,0,0,.42-.08,3.79,3.79,0,0,0,1.37-.75,1.6,1.6,0,0,0,.6-1.38v-.11l-.1,0a.58.58,0,0,1-.3.08.18.18,0,0,1-.12-.07v0a3.07,3.07,0,0,0,2.25-2,1.07,1.07,0,0,0-.88-1.41h0a4.18,4.18,0,0,0-2.51.26A3.94,3.94,0,0,0,646.27,82a1,1,0,0,0-.7-.21c-.92,0-1.35.58-1.7,1.46a2.58,2.58,0,0,0-.09,1,.48.48,0,0,0,.17.37.79.79,0,0,0,.62,0c.23-.05.47-.1.6,0s0,0,0,0l0,0a.17.17,0,0,1-.11,0l-.07,0a.21.21,0,0,0-.2,0,.15.15,0,0,0,0,.14.62.62,0,0,0,.09.23l0,0a1.53,1.53,0,0,0,.38.51A2.42,2.42,0,0,0,646.84,86ZM649.08,84c0,.61-.47,1.41-1.87,1.84a2.38,2.38,0,0,1-1.87-.23,1.4,1.4,0,0,1-.34-.46l0,0a.67.67,0,0,1-.07-.14h0l.11,0a.32.32,0,0,0,.22-.07.19.19,0,0,0,.07-.14.22.22,0,0,0-.07-.16c-.19-.19-.49-.13-.75-.07s-.39.08-.49,0a.33.33,0,0,1-.1-.25,2.49,2.49,0,0,1,.08-.94c.34-.84.71-1.36,1.55-1.35a.8.8,0,0,1,.7.28l.19.23,0-.29c-.05-.34.91-1.32,1.21-1.48a4,4,0,0,1,2.4-.24.91.91,0,0,1,.76,1.21,2.89,2.89,0,0,1-2.19,1.91h-.05v.05a.25.25,0,0,0,0,.2.35.35,0,0,0,.23.14A.57.57,0,0,0,649.08,84Z"/><path class="cls-1" d="M649,81.5a1.31,1.31,0,0,1,.18.89,1,1,0,0,1-.53.72.79.79,0,0,1-.86-.13C646.9,82.08,648.27,80.2,649,81.5Z"/><path class="cls-1" d="M648.45,83.22a.85.85,0,0,0,.26-.07,1,1,0,0,0,.56-.75,1.34,1.34,0,0,0-.18-.92h0c-.25-.42-.53-.48-.72-.46a1.07,1.07,0,0,0-.8.77A1.14,1.14,0,0,0,647.8,83,.81.81,0,0,0,648.45,83.22Zm-.08-2.12h0a.69.69,0,0,1,.65.42h0a1.26,1.26,0,0,1,.17.86.94.94,0,0,1-.51.69.75.75,0,0,1-.82-.12,1.06,1.06,0,0,1-.22-1.14A1,1,0,0,1,648.36,81.1Z"/><path class="cls-1" d="M644.67,83.46a2.08,2.08,0,0,1,.19-.78c.14-.26.57-.42.77-.11a1.06,1.06,0,0,1,.17.39,2,2,0,0,1-.12.78.9.9,0,0,1-.17.33.51.51,0,0,1-.54.08C644.69,84.05,644.64,83.73,644.67,83.46Z"/><path class="cls-1" d="M645.26,84.23a.43.43,0,0,0,.28-.13.94.94,0,0,0,.18-.34,1.73,1.73,0,0,0,.08-.3V83.4a1.5,1.5,0,0,0,0-.45,1.07,1.07,0,0,0-.17-.4.39.39,0,0,0-.35-.19.6.6,0,0,0-.48.3,2.1,2.1,0,0,0-.2.79h0c0,.14,0,.6.32.73A.72.72,0,0,0,645.26,84.23Zm0-1.78h0a.31.31,0,0,1,.28.15,1,1,0,0,1,.16.37,1.42,1.42,0,0,1,0,.42v.06a1.67,1.67,0,0,1-.08.28.88.88,0,0,1-.16.31.48.48,0,0,1-.5.07c-.3-.11-.28-.52-.27-.64a2,2,0,0,1,.19-.76A.53.53,0,0,1,645.28,82.45Z"/><path class="cls-1" d="M647.94,84.55c.16-.22.16-.6-.14-.7s-1,.16-1.35.29a1.25,1.25,0,0,0-.52.28.44.44,0,0,0-.07.54.6.6,0,0,0,.53.16,3.65,3.65,0,0,0,1-.2A1.17,1.17,0,0,0,647.94,84.55Z"/><path class="cls-1" d="M646.54,85.14a3.69,3.69,0,0,0,.83-.19,1.22,1.22,0,0,0,.6-.39h0a.6.6,0,0,0,.09-.51.38.38,0,0,0-.25-.25,2,2,0,0,0-1.17.21l-.21.08a1.27,1.27,0,0,0-.54.29.48.48,0,0,0-.07.6.62.62,0,0,0,.57.17Zm1.36-.62a1.15,1.15,0,0,1-.56.36,3.61,3.61,0,0,1-1,.2.55.55,0,0,1-.5-.14.4.4,0,0,1,.07-.49,1.2,1.2,0,0,1,.5-.27l.21-.08a2,2,0,0,1,1.12-.21.3.3,0,0,1,.2.2.51.51,0,0,1-.08.44Z"/><path class="cls-1" d="M646.84,83.18h0a.12.12,0,0,1,.07.08.31.31,0,0,1,0,.11.91.91,0,0,1-.06.24.3.3,0,0,1-.23.21.21.21,0,0,1-.17,0l-.17-.14a.37.37,0,0,1-.12-.17.21.21,0,0,1,0-.17.3.3,0,0,1,.17-.08l.23,0Z"/><path class="cls-1" d="M646.67,83.88h0a.33.33,0,0,0,.26-.24,1,1,0,0,0,.06-.25.34.34,0,0,0,0-.13.15.15,0,0,0-.1-.11h-.24l-.19,0h0a.34.34,0,0,0-.2.1.25.25,0,0,0,0,.2.37.37,0,0,0,.12.18h0l.17.14A.24.24,0,0,0,646.67,83.88Zm.16-.66h0a.08.08,0,0,1,0,.05.27.27,0,0,1,0,.1.88.88,0,0,1-.05.23c0,.11-.11.17-.19.19a.16.16,0,0,1-.14,0l-.16-.13h0a.32.32,0,0,1-.1-.13.17.17,0,0,1,0-.13.27.27,0,0,1,.15-.07h0l.18,0h.16Z"/><path class="cls-1" d="M646.73,83.33c.17,0,0,.24,0,.28a.1.1,0,0,1,0,0h-.06a.41.41,0,0,1-.17-.14.08.08,0,0,1,0,0,.07.07,0,0,1,0-.05l.11,0Z"/><path class="cls-1" d="M653.28,82c-.36,0-1.29,0-1.12-.6.09-.33.58-.49.86-.58.48-.17,1-.23,1.48-.4a5.21,5.21,0,0,0,2.07-1.56c.58-.66,1.09-1.38,1.72-2,.18.15.1.43,0,.64a12.67,12.67,0,0,1-1.4,2.68,4.26,4.26,0,0,1-2.43,1.7A6.33,6.33,0,0,1,653.28,82Z"/><path class="cls-1" d="M647.26,84.23a1,1,0,0,0-.34,0,1.11,1.11,0,0,0-.46.17,1.21,1.21,0,0,0-.2.2s-.08.13,0,.18.11,0,.16-.07a1,1,0,0,1,.18-.15,1.35,1.35,0,0,1,.47-.14.9.9,0,0,1,.3,0s.22.07.21,0S647.34,84.24,647.26,84.23Z"/><path class="cls-1" d="M655.56,85.59a.08.08,0,0,1,.06,0c0,.05-.07.1-.09.17s0,.11.11.11a.85.85,0,0,0,.17,0,.31.31,0,0,1,.29.11c0,.08-.16.1-.14.17a.09.09,0,0,0,0,0,1.91,1.91,0,0,1,.63,1,2.68,2.68,0,0,0-.86-.83,3,3,0,0,0-.35-.23.33.33,0,0,1-.2-.28C655.24,85.61,655.41,85.58,655.56,85.59Z"/><polygon class="cls-1" points="651.05 82.31 651.14 82.39 651.32 82.36 651.19 82.5 651.32 82.66 651.1 82.61 650.95 82.8 650.99 82.51 650.81 82.43 651 82.41 651.05 82.31"/><polygon class="cls-1" points="650.44 84.1 650.4 83.8 650.09 83.82 650.33 83.62 650.15 83.33 650.5 83.44 650.79 83.18 650.68 83.63 650.96 83.81 650.63 83.8 650.44 84.1"/><polygon class="cls-1" points="645.94 81.2 646.11 81.24 646.26 81.08 646.24 81.3 646.51 81.42 646.22 81.45 646.16 81.71 646.08 81.48 645.87 81.47 646.02 81.33 645.94 81.2"/><polygon class="cls-1" points="644.32 85.76 644.22 85.62 644.01 85.63 644.16 85.49 644.05 85.22 644.28 85.39 644.49 85.25 644.4 85.47 644.55 85.61 644.35 85.62 644.32 85.76"/><path class="cls-1" d="M648.83,81.43A.93.93,0,0,1,649,82a.85.85,0,0,1-.14.5.45.45,0,0,1-.46.19.9.9,0,0,1-.39-1.19A.5.5,0,0,1,648.83,81.43Z"/><path class="cls-1" d="M645.53,82.65a.92.92,0,0,1,.13.31.61.61,0,0,1-.08.48c-.11.16-.4.31-.54.11a.57.57,0,0,1-.08-.26,1.19,1.19,0,0,1,0-.37.5.5,0,0,1,.18-.31A.27.27,0,0,1,645.53,82.65Z"/><path class="cls-1" d="M647.88,81.9a.24.24,0,0,1,.33-.29c.19.05.13.34,0,.43a.22.22,0,0,1-.29,0A.26.26,0,0,1,647.88,81.9Z"/><path class="cls-1" d="M648.12,82.16a.3.3,0,0,0,.15-.06.41.41,0,0,0,.14-.38.24.24,0,0,0-.18-.2.35.35,0,0,0-.34.07.34.34,0,0,0-.09.32h0a.34.34,0,0,0,.06.14A.29.29,0,0,0,648.12,82.16Zm0-.48h.09a.08.08,0,0,1,.06.07.25.25,0,0,1-.08.21.14.14,0,0,1-.18,0,.18.18,0,0,1,0-.07h0a.17.17,0,0,1,0-.17A.16.16,0,0,1,648.09,81.68Z"/><path class="cls-1" d="M645,83a.26.26,0,0,1,0-.15.15.15,0,0,1,.15,0,.17.17,0,0,1,.13.13.23.23,0,0,1-.06.22.17.17,0,0,1-.2,0A.21.21,0,0,1,645,83Z"/><path class="cls-1" d="M645.17,83.28a.27.27,0,0,0,.16-.08.31.31,0,0,0,.08-.3.25.25,0,0,0-.2-.19.23.23,0,0,0-.23.07.34.34,0,0,0-.07.2h0a.28.28,0,0,0,.11.26A.22.22,0,0,0,645.17,83.28Zm0-.41h0s.06.05.06.07a.15.15,0,0,1,0,.14.09.09,0,0,1-.1,0,.14.14,0,0,1,0-.12.18.18,0,0,1,0-.11Z"/><path class="cls-1" d="M15.44,325.1a1.4,1.4,0,0,0,.82-1.43,2.14,2.14,0,0,0-1.16-1.34,13,13,0,0,0-1.4-.63,11.5,11.5,0,0,1-2.34-1.37,10.93,10.93,0,0,0-2.2-1.45.76.76,0,0,0-.82,0,.67.67,0,0,0-.16.3,3,3,0,0,0,.15,1.64,9.69,9.69,0,0,0,1,2.49,4.23,4.23,0,0,0,2,1.74,6.57,6.57,0,0,0,2.43.25A4,4,0,0,0,15.44,325.1Z"/><path class="cls-1" d="M13.71,331.47a2.22,2.22,0,0,1-1.75-2,5.93,5.93,0,0,1,1.93-4,8.67,8.67,0,0,1,3.31-2.1,4.64,4.64,0,0,1,3.37.11,5.36,5.36,0,0,1,2,1.94,3.92,3.92,0,0,1,.62,1.39,4.74,4.74,0,0,1-.11,1.79A3.47,3.47,0,0,1,22,330.41c-2.11,1.89-5.72,1.74-8.24,1.07Z"/><path class="cls-1" d="M14.15,326.72a1,1,0,0,0,0,.56.41.41,0,0,0,.45.27.81.81,0,0,0,.16.91,2,2,0,0,0,.83.49c-.48.6.31.87.81.85a.35.35,0,0,0,.13.45,1,1,0,0,0,.5.13.3.3,0,0,1,.17,0,.42.42,0,0,1,.08.11.51.51,0,0,0,.61.19c.06,0,.56.46.74.43a1.35,1.35,0,0,1,.28-.06.81.81,0,0,1,.24.07c.73.25,1.94-.57,2.55-.9a3.17,3.17,0,0,0,1.61-2.13,3.67,3.67,0,0,0-.8-2.78,5.74,5.74,0,0,0-1.72-1.68,5.24,5.24,0,0,0-3.14-.5,4.28,4.28,0,0,0-1,.25A3.72,3.72,0,0,0,15,324.74,4.86,4.86,0,0,0,14.15,326.72Z"/><path class="cls-1" d="M22,326.23a1.26,1.26,0,0,1,.15-1.37c.46-.35,1.27-.14,1.78-.08a10.78,10.78,0,0,0,2.42.15c.28,0,.63-.06.77.19.31.55-1.19,1.37-1.55,1.57a3.07,3.07,0,0,1-2.4.47A1.93,1.93,0,0,1,22,326.23Z"/><path class="cls-1" d="M22.44,324.86a1.89,1.89,0,0,1,1.35,0,9.6,9.6,0,0,0,1.55.29h.15a3.82,3.82,0,0,0,.55,0l.51,0a1.5,1.5,0,0,1,.43,0c.08,0,.17.12.1.16H27a5.79,5.79,0,0,0-.63.08l-.66.07a4.79,4.79,0,0,1-1.29-.08c-.26,0-.5-.14-.75-.19a1.64,1.64,0,0,0-.77,0,.62.62,0,0,1-.37,0c-.12,0-.17-.24-.05-.28,0,0-.06,0-.05.06"/><path class="cls-1" d="M13,329.15a2,2,0,0,0-1.48-.88.29.29,0,0,0-.24.08c-.06.07,0,.2,0,.22a.53.53,0,0,0-.63.34l.15.06a.78.78,0,0,0-.36.34.77.77,0,0,0,0,.17l-.05.35a.57.57,0,0,0,0,.26.2.2,0,0,0,.19.15,1,1,0,0,0,0,.55A.35.35,0,0,0,11,331a.14.14,0,0,0,.09.19.41.41,0,0,0,.23,0,.3.3,0,0,0,.31.22.89.89,0,0,0,.39-.12v.22a1,1,0,0,0,.52-.06,1.91,1.91,0,0,0,.25-.13,1.08,1.08,0,0,0,.49-.69A1.92,1.92,0,0,0,13,329.15Z"/><path class="cls-1" d="M15.68,323.17a1.6,1.6,0,0,1,.26.55c0,.09.09.48.23.27s-.17-.81-.28-.95a2.31,2.31,0,0,0-.63-.52,7.43,7.43,0,0,0-1.26-.58,8.74,8.74,0,0,1-1.82-.91c-.34-.21-.75-.48-1.07-.72A12.85,12.85,0,0,0,9,318.83a1,1,0,0,0,.29.65,10,10,0,0,0,3.31,2.42,7.23,7.23,0,0,0,1.39.57C14.61,322.63,15.3,322.69,15.68,323.17Z"/><path class="cls-1" d="M22.75,326.55a.5.5,0,0,1,.35-.92,3.08,3.08,0,0,1,.62.12,4.12,4.12,0,0,0,.64.18,4.82,4.82,0,0,0,1.3-.18c.09,0,.2,0,.22.08a.16.16,0,0,1,0,.1,1.14,1.14,0,0,1-.79.49l-.76.21a3.44,3.44,0,0,1-.8.15A1.16,1.16,0,0,1,22.75,326.55Z"/><path class="cls-1" d="M17.07,323.16a4.08,4.08,0,0,1,2.45.25c.28.14,1.31,1.15,1.25,1.56a.88.88,0,0,1,.76-.31c.91,0,1.31.61,1.62,1.4a2.45,2.45,0,0,1,.08,1c-.07.79-1,0-1.36.36-.05.05-.08.12,0,.18a.24.24,0,0,0,.16,0c.09,0,.25-.1.23,0a.74.74,0,0,1-.11.24,1.48,1.48,0,0,1-.36.48,2.46,2.46,0,0,1-1.94.24c-.89-.28-2-1-1.92-2a.65.65,0,0,0,.34.08c.12,0,.23-.13.21-.24a3,3,0,0,1-2.25-2A1,1,0,0,1,17.07,323.16Z"/><path class="cls-1" d="M20.27,328.8a2.24,2.24,0,0,1-.42-.08,3.79,3.79,0,0,1-1.37-.75,1.6,1.6,0,0,1-.61-1.38v-.11l.1,0a.58.58,0,0,0,.3.08.18.18,0,0,0,.12-.07v0a3.07,3.07,0,0,1-2.25-2,1.07,1.07,0,0,1,.88-1.41h0a4.18,4.18,0,0,1,2.51.26,4,4,0,0,1,1.27,1.46,1,1,0,0,1,.7-.21c.92,0,1.35.58,1.7,1.46a2.58,2.58,0,0,1,.09,1,.48.48,0,0,1-.17.37.79.79,0,0,1-.62,0c-.23-.05-.47-.1-.6,0s0,0,0,0l0,0a.17.17,0,0,0,.11,0l.07,0a.21.21,0,0,1,.2,0,.15.15,0,0,1,0,.14.62.62,0,0,1-.09.23l0,0a1.53,1.53,0,0,1-.38.51A2.42,2.42,0,0,1,20.27,328.8ZM18,326.72c0,.61.47,1.41,1.87,1.84a2.38,2.38,0,0,0,1.87-.23,1.4,1.4,0,0,0,.34-.46l0,0a.67.67,0,0,0,.07-.14h0l-.11,0a.32.32,0,0,1-.22-.07.19.19,0,0,1-.07-.14.22.22,0,0,1,.07-.16c.19-.19.49-.13.75-.07s.39.08.49,0a.33.33,0,0,0,.1-.25,2.49,2.49,0,0,0-.08-.94c-.34-.84-.72-1.36-1.55-1.35a.81.81,0,0,0-.7.28l-.19.23,0-.29c.05-.34-.91-1.32-1.21-1.48a4,4,0,0,0-2.4-.24.91.91,0,0,0-.76,1.21,2.89,2.89,0,0,0,2.19,1.91h.05v.05a.25.25,0,0,1,0,.2.35.35,0,0,1-.23.14A.57.57,0,0,1,18,326.72Z"/><path class="cls-1" d="M18.07,324.27a1.31,1.31,0,0,0-.18.89,1,1,0,0,0,.53.72.79.79,0,0,0,.86-.13C20.21,324.85,18.84,323,18.07,324.27Z"/><path class="cls-1" d="M18.66,326a.85.85,0,0,1-.26-.07,1,1,0,0,1-.56-.75,1.34,1.34,0,0,1,.18-.92h0c.25-.42.53-.48.72-.46a1.07,1.07,0,0,1,.8.77,1.14,1.14,0,0,1-.24,1.22A.81.81,0,0,1,18.66,326Zm.08-2.12h0a.69.69,0,0,0-.65.42h0a1.26,1.26,0,0,0-.17.86.94.94,0,0,0,.51.69.75.75,0,0,0,.82-.12,1.06,1.06,0,0,0,.22-1.14A1,1,0,0,0,18.75,323.87Z"/><path class="cls-1" d="M22.44,326.23a2.08,2.08,0,0,0-.19-.78c-.14-.26-.57-.42-.77-.11a1.06,1.06,0,0,0-.17.39,2,2,0,0,0,.12.78.9.9,0,0,0,.17.33.51.51,0,0,0,.54.08C22.42,326.82,22.47,326.5,22.44,326.23Z"/><path class="cls-1" d="M21.85,327a.43.43,0,0,1-.28-.13.94.94,0,0,1-.18-.34,1.73,1.73,0,0,1-.08-.3v-.06a1.5,1.5,0,0,1,0-.45,1.07,1.07,0,0,1,.17-.4.39.39,0,0,1,.35-.19.6.6,0,0,1,.48.3,2.1,2.1,0,0,1,.2.79h0c0,.14,0,.6-.32.73A.72.72,0,0,1,21.85,327Zm0-1.78h0a.31.31,0,0,0-.28.15,1,1,0,0,0-.16.37,1.42,1.42,0,0,0,0,.42v.06a1.67,1.67,0,0,0,.08.28.88.88,0,0,0,.16.31.48.48,0,0,0,.5.07c.3-.11.28-.52.27-.64a2,2,0,0,0-.19-.76A.53.53,0,0,0,21.83,325.22Z"/><path class="cls-1" d="M19.17,327.31c-.16-.22-.16-.6.14-.7s1,.16,1.35.29a1.25,1.25,0,0,1,.52.28.44.44,0,0,1,.07.55.6.6,0,0,1-.53.16,3.66,3.66,0,0,1-1-.2A1.18,1.18,0,0,1,19.17,327.31Z"/><path class="cls-1" d="M20.57,327.91a3.69,3.69,0,0,1-.83-.19,1.22,1.22,0,0,1-.6-.39h0a.6.6,0,0,1-.09-.51.38.38,0,0,1,.25-.25,2,2,0,0,1,1.17.21l.21.08a1.27,1.27,0,0,1,.54.29.48.48,0,0,1,.07.6.62.62,0,0,1-.57.17Zm-1.36-.62a1.15,1.15,0,0,0,.56.36,3.61,3.61,0,0,0,1,.2.55.55,0,0,0,.5-.14.4.4,0,0,0-.07-.49,1.2,1.2,0,0,0-.5-.27l-.21-.08a2,2,0,0,0-1.12-.21.3.3,0,0,0-.2.2.51.51,0,0,0,.08.44Z"/><path class="cls-1" d="M20.27,325.95h0a.12.12,0,0,0-.07.08.31.31,0,0,0,0,.11.91.91,0,0,0,.06.24.3.3,0,0,0,.23.21.21.21,0,0,0,.17,0l.17-.14a.37.37,0,0,0,.12-.17.21.21,0,0,0,0-.17.3.3,0,0,0-.17-.08l-.23,0Z"/><path class="cls-1" d="M20.44,326.65h0a.33.33,0,0,1-.26-.24,1,1,0,0,1-.06-.25.34.34,0,0,1,0-.13.15.15,0,0,1,.1-.11h.24l.19,0h0a.34.34,0,0,1,.2.1.25.25,0,0,1,0,.2.37.37,0,0,1-.12.18h0l-.17.14A.24.24,0,0,1,20.44,326.65Zm-.16-.66h0a.08.08,0,0,0,0,.05.27.27,0,0,0,0,.1.88.88,0,0,0,.05.23c0,.11.11.17.19.19a.16.16,0,0,0,.14,0l.16-.13h0a.32.32,0,0,0,.1-.13.17.17,0,0,0,0-.13.27.27,0,0,0-.15-.07h0l-.18,0h-.16Z"/><path class="cls-1" d="M20.38,326.1c-.17,0,0,.24,0,.28a.1.1,0,0,0,0,0h.06a.41.41,0,0,0,.17-.14.08.08,0,0,0,0,0,.07.07,0,0,0,0-.05l-.11,0Z"/><path class="cls-1" d="M13.82,324.79c.36,0,1.29,0,1.12-.6-.09-.33-.58-.49-.86-.58-.48-.17-1-.23-1.48-.4a5.21,5.21,0,0,1-2.08-1.56c-.58-.66-1.09-1.38-1.72-2-.18.15-.1.43,0,.64A12.67,12.67,0,0,0,10.2,323a4.26,4.26,0,0,0,2.43,1.7A6.33,6.33,0,0,0,13.82,324.79Z"/><path class="cls-1" d="M19.85,327a1,1,0,0,1,.34,0,1.11,1.11,0,0,1,.46.17,1.21,1.21,0,0,1,.2.2s.08.13,0,.18-.11,0-.16-.07a1,1,0,0,0-.18-.15,1.35,1.35,0,0,0-.47-.14.9.9,0,0,0-.3,0s-.22.07-.21,0S19.77,327,19.85,327Z"/><path class="cls-1" d="M11.54,328.36a.08.08,0,0,0-.06,0c0,.05.07.1.09.17s0,.11-.11.11a.85.85,0,0,1-.17,0,.31.31,0,0,0-.29.11c0,.08.16.1.14.17a.09.09,0,0,1,0,0,1.91,1.91,0,0,0-.63,1,2.68,2.68,0,0,1,.86-.83,3,3,0,0,1,.35-.23.33.33,0,0,0,.2-.28C11.87,328.38,11.69,328.35,11.54,328.36Z"/><polygon class="cls-1" points="16.06 325.07 15.97 325.16 15.79 325.13 15.92 325.26 15.79 325.43 16.01 325.38 16.16 325.56 16.13 325.28 16.3 325.19 16.11 325.18 16.06 325.07"/><polygon class="cls-1" points="16.67 326.87 16.71 326.57 17.02 326.59 16.78 326.39 16.96 326.1 16.61 326.21 16.32 325.95 16.43 326.4 16.15 326.58 16.47 326.57 16.67 326.87"/><polygon class="cls-1" points="21.17 323.97 21 324.01 20.86 323.85 20.87 324.06 20.6 324.18 20.89 324.22 20.95 324.47 21.03 324.24 21.25 324.24 21.09 324.1 21.17 323.97"/><polygon class="cls-1" points="22.8 328.53 22.89 328.38 23.1 328.4 22.95 328.26 23.06 327.99 22.83 328.16 22.62 328.01 22.71 328.24 22.56 328.38 22.76 328.38 22.8 328.53"/><path class="cls-1" d="M18.28,324.2a.93.93,0,0,0-.14.55.85.85,0,0,0,.14.5.45.45,0,0,0,.46.19.9.9,0,0,0,.39-1.19A.5.5,0,0,0,18.28,324.2Z"/><path class="cls-1" d="M21.58,325.42a.92.92,0,0,0-.13.31.61.61,0,0,0,.08.48c.11.16.4.31.54.11a.57.57,0,0,0,.08-.26,1.19,1.19,0,0,0,0-.37.5.5,0,0,0-.18-.31A.27.27,0,0,0,21.58,325.42Z"/><path class="cls-1" d="M19.23,324.67a.24.24,0,0,0-.33-.29c-.19.05-.13.34,0,.43a.22.22,0,0,0,.29,0A.26.26,0,0,0,19.23,324.67Z"/><path class="cls-1" d="M19,324.93a.3.3,0,0,1-.15-.06.41.41,0,0,1-.14-.38.24.24,0,0,1,.18-.2.35.35,0,0,1,.34.07.34.34,0,0,1,.09.32h0a.34.34,0,0,1-.06.14A.29.29,0,0,1,19,324.93Zm0-.48h-.09a.08.08,0,0,0-.06.07.25.25,0,0,0,.08.21.14.14,0,0,0,.18,0,.18.18,0,0,0,0-.07h0a.17.17,0,0,0,0-.17A.16.16,0,0,0,19,324.45Z"/><path class="cls-1" d="M22.11,325.76a.26.26,0,0,0,0-.15.15.15,0,0,0-.15,0,.17.17,0,0,0-.13.13.23.23,0,0,0,.06.22.17.17,0,0,0,.2,0A.21.21,0,0,0,22.11,325.76Z"/><path class="cls-1" d="M21.94,326a.27.27,0,0,1-.16-.08.31.31,0,0,1-.08-.3.25.25,0,0,1,.2-.19.23.23,0,0,1,.23.07.34.34,0,0,1,.07.2h0a.28.28,0,0,1-.11.26A.22.22,0,0,1,21.94,326Zm0-.41h0s-.06.05-.06.07a.15.15,0,0,0,0,.14.09.09,0,0,0,.1,0,.14.14,0,0,0,0-.12.18.18,0,0,0,0-.11Z"/><polygon class="cls-1" points="461.55 332.24 459.1 334.93 455.75 333.96 458 331.29 461.55 332.24"/><polygon class="cls-2" points="460.91 337.61 459.1 334.93 461.55 332.24 463.11 334.64 460.91 337.61"/><polygon class="cls-4" points="455.75 333.96 457.04 336.54 460.91 337.61 459.1 334.93 455.75 333.96"/><polygon class="cls-1" points="453.29 365.38 454.14 368.93 451.44 371.15 450.51 367.78 453.29 365.38"/><polygon class="cls-2" points="457.37 368.94 454.14 368.93 453.29 365.38 456.16 365.45 457.37 368.94"/><polygon class="cls-4" points="451.44 371.15 454.3 371.54 457.37 368.94 454.14 368.93 451.44 371.15"/><polygon class="cls-1" points="466.85 353.92 464.39 356.62 461.04 355.64 463.3 352.97 466.85 353.92"/><polygon class="cls-2" points="466.2 359.3 464.39 356.62 466.85 353.92 468.4 356.33 466.2 359.3"/><polygon class="cls-4" points="461.04 355.64 462.33 358.22 466.2 359.3 464.39 356.62 461.04 355.64"/></svg>