<svg id="Layer_1" data-name="Layer 1" xmlns="http://www.w3.org/2000/svg" xmlns:xlink="http://www.w3.org/1999/xlink" viewBox="0 0 677 308.35"><defs><style>.cls-1{fill:#23362b;}.cls-2{fill:#ffae5f;}.cls-3{fill:#05ce7c;}</style><symbol id="arrow" data-name="arrow" viewBox="0 0 12.74 11.9"><polygon class="cls-1" points="1.17 1.65 11.43 11.09 11.12 11.3 12.74 11.9 12.14 10.4 11.94 10.66 1.73 1.27 1.73 0.73 0.92 0 0.81 0.77 0 1.04 0.65 1.71 1.17 1.65"/></symbol></defs><title>sils1</title><path class="cls-2" d="M315.4,257l-14.23,20.15-26.65-3.45s-24.24,6.09-31,25.17L224,294.73l17.66,1.18s12.65-23.75,32.94-24.41l23,1,12.51-16Z"/><polygon class="cls-2" points="337.51 284.3 343.17 285.59 343.5 295.74 337.51 284.3"/><path class="cls-2" d="M324.83,256.44l12.19,3s-.14-14.24,21.36-25.46l-5.53-9.54,1.12,8.88s-20.1,11.33-20.3,21.33l-14.4-.86Z"/><path class="cls-2" d="M271.35,191.9s34.49,5.61,29.55,29.49,13.73,25.94,13.73,25.94,18.78,7.82,22.44,28.66,11.27,22.38,11.27,22.38-3.66,3.86-10.23-1.42l-6.7-7.9,2.23-8s-5.19-16.38-11.2-17.48a13.74,13.74,0,0,1-15.75-3.24c-7.38-7.51-18.59-20-10.31-38.19C306,201,271.35,191.9,271.35,191.9Z"/><path class="cls-1" d="M270.94,191.66s32.9,6.59,28,30.48,13.73,25.94,13.73,25.94,18.78,7.82,22.44,28.66,11.27,22.38,11.27,22.38-3.66,3.86-10.23-1.42l-6.7-7.9,2.23-8s-5.19-16.38-11.2-17.48a13.74,13.74,0,0,1-15.75-3.24c-7.38-7.51-18.59-20-10.31-38.19C304,201.75,270.94,191.66,270.94,191.66Z"/><path class="cls-1" d="M314.23,255.7,300,275.85l-25.55-3.11s-24.73,6.31-31.49,25.38l-21.91-3.81,19.45.26s12.65-23.75,32.94-24.41l23,1,12.51-16Z"/><path class="cls-1" d="M323.16,255.61l12.17,1.67s-.12-13,21.39-24.18l-3.93-8.56-.48,7.9s-20.1,11.33-20.3,21.33l-14.4-.86Z"/><polygon class="cls-1" points="335.51 285.47 341.17 286.76 341.5 296.9 335.51 285.47"/><path class="cls-1" d="M290,251s7.53,7,13.41,5.46l-1.9-6.56S298.53,253.33,290,251Z"/><polygon class="cls-3" points="406.06 173.31 391.51 186.28 391.95 186.58 389.66 187.39 390.54 185.31 390.81 185.67 405.28 172.77 405.29 172.02 406.44 171.01 406.57 172.09 407.7 172.49 406.79 173.41 406.06 173.31"/><polygon class="cls-3" points="439.8 182.86 420.87 187.51 421.11 187.99 418.72 187.63 420.46 186.2 420.54 186.65 439.36 182.02 439.73 181.36 441.21 181.01 440.82 182.03 441.63 182.9 440.39 183.29 439.8 182.86"/><path class="cls-1" d="M9.2,285.89s9.39-9.63,27.2-5.28,20.48-2.24,20.48-2.24l3.12,2a30.39,30.39,0,0,1-23.86,1.41C23,277,9.2,285.89,9.2,285.89Z"/><path class="cls-1" d="M83.62,271.89l-3.73,4.59-3.72-1.57s-5.73,1.07-8,3.29-5.16,3.44-10.55,2.35,5.26-7.21,11.07-5.53c0,0,2.39.75,7.74-2S83.62,271.89,83.62,271.89Z"/><polygon class="cls-1" points="79.2 272.46 74.37 271.21 77.91 273.44 79.2 272.46"/><path class="cls-1" d="M65.41,275.27s.44-3.87,2.2-5.71c0,0-21-2.81-30.81-14.92L31,254.9l5.23.53s11.85,13.69,28,15.37l.11,4.92Z"/><path class="cls-1" d="M61.3,276.11l-.82-4.47s-17.38-4.1-24.59-10.58L26.54,265l9.06-2.89s10,8.19,22.92,11.06l1.76,4Z"/><path class="cls-1" d="M61.76,280.57s-.51,2.81-2.37,3.47c0,0,4.48-2,4.15-4Z"/><path class="cls-1" d="M429.23,27.08l1,1.6,4.89,1.24s2.49,1.24,3.55.27,4-3.63,4-3.63L438.47,26l-.66-1,2.63-1.5-5.52.76s-3.29,1.87-4.89,1.51S429.23,27.08,429.23,27.08Z"/><path class="cls-1" d="M453.44,44.94s-2-2-7.25-7.37-1.12-5.5-8.75-8.12l.13-2.25s13.63-.87,16.63,5.25S453.44,44.94,453.44,44.94Z"/><path class="cls-1" d="M446.07,37.51s.11.08.37.33.62.62,1.07,1.11a17.33,17.33,0,0,1,1.42,1.86,6.69,6.69,0,0,1,1,2.23c0,.3.07.43,0,.58s-.07.14-.42.41-.47.35-.77.55c-1.16.79-2.55,1.58-3.91,2.55a18.08,18.08,0,0,0-2,1.65A9,9,0,0,0,441.09,51a5.55,5.55,0,0,0-.72,2.82,6.75,6.75,0,0,0,.67,2.73,15.45,15.45,0,0,0,3.17,4.16c1.18,1.17,2.4,2.3,3.59,3.35,2.39,2.11,4.73,3.93,6.61,5.63a13.27,13.27,0,0,1,2.32,2.54,3.93,3.93,0,0,1,.69,2.51,5,5,0,0,1-.48,1.64l-.28.54.29-.53a5.07,5.07,0,0,0,.51-1.64,4,4,0,0,0-.65-2.56,14.31,14.31,0,0,0-2.25-2.64c-1.84-1.76-4.1-3.68-6.34-5.92-1.13-1.11-2.26-2.27-3.38-3.51a13.35,13.35,0,0,1-2.63-4,4.17,4.17,0,0,1,.44-4.12,9.21,9.21,0,0,1,3.49-2.63c1.35-.67,2.75-1.19,4.16-1.76.35-.14.72-.3,1.11-.5a4.44,4.44,0,0,0,1.24-.85,4.74,4.74,0,0,0,1.38-3,10.44,10.44,0,0,0-.8-4.4A23.21,23.21,0,0,0,452,36c-.38-.73-.71-1.29-.94-1.68l-.28-.45-.11-.17Z"/><path class="cls-1" d="M451.19,33.44l7.63-2.62s17.88,4.63,25.25,3.25l-4.87,14.13-7.25,3.88,6.25-4.75,3.13-11.75s-15.12-.62-22.37-3.87l-6.22,2.85Z"/><path class="cls-1" d="M451.56,30.44c0-.62-1.37-8-1.37-8l2.13-15H439.56l-2,5.75,3-4.37h10l-1.37,13.75.25,8Z"/><polygon class="cls-1" points="475.44 35.19 476.94 38.31 473.44 42.56 478.06 38.81 476.94 34.94 475.44 35.19"/><polygon class="cls-1" points="448.69 8.56 445.06 11.44 444.31 15.19 445.94 11.69 451.31 9.06 448.69 8.56"/><path class="cls-1" d="M449.44,40.5s-1.25.44-1.62,2.69a3.13,3.13,0,0,1,1-3.94Z"/><path class="cls-1" d="M446,41s.94-2,2-2.06l-.69-1.19-.81-.19S445.25,38.63,446,41Z"/><polygon class="cls-1" points="101.23 235.22 98.79 243.59 98.25 243.72 97.85 243.34 100.54 234.47 101.23 235.22"/><path class="cls-1" d="M103.12,234.36l-.44,1.42-1.46-.48-2.4-.23a2.59,2.59,0,0,1,1-2.54L101.6,234Z"/><polygon class="cls-1" points="98.48 239.15 98.29 240.09 99.1 240.65 99.6 240.53 102.14 243.15 102.96 241.55 99.94 239.82 99.85 239.22 98.48 239.15"/><path class="cls-1" d="M106.23,247.28c-.19-.19-2.5-2.06-2.5-2.06l-.25-.87-1.25.29L101,242.47l1.25-1.94,1,.38,1.13-1.75a6.45,6.45,0,0,1-.5,1.94l1.5-.31-1.5.81.69.44.06.63,2.69,1.38,1.5,2.19Z"/><polygon class="cls-1" points="107.23 244.97 109.66 244.28 110.54 241.72 112.79 242.03 112.54 242.72 111.23 242.72 110.54 245.03 108.73 246.47 107.23 244.97"/><path class="cls-1" d="M107.5,245l1.52-1.12.08-1.52,1.58.15,0,.6-.5.1-.37,1.4a10,10,0,0,1-.81.81C108.89,245.42,107.5,245,107.5,245Z"/><use id="arrow-3" data-name="arrow" width="12.74" height="11.9" transform="translate(608.69 244.85) rotate(-158.92) scale(1.21)" xlink:href="#arrow"/><path class="cls-1" d="M587.57,236.37c1.54.4,2.86.8,4.25,1.28s2.72,1,4.07,1.56,2.69,1.2,4,1.9a41.43,41.43,0,0,1,4,2.36,29.63,29.63,0,0,1,3.95,3.15,17.51,17.51,0,0,1,3.62,4.8,11.74,11.74,0,0,1,1.09,7.38,12.76,12.76,0,0,1-2.94,5.89,24.14,24.14,0,0,1-1.91,1.92c-.65.51-1.3,1.06-2,1.51l-1,.64-.49.32-.25.16-.12.08.08-.06h0l0,0-.05,0-1.73,1-1.73,1-1.53,1c-.52.33-1,.63-1.56,1l-1.51,1.08c-.52.35-1,.73-1.47,1.11s-1,.75-1.43,1.15l-1.32,1.22c-.38.42-.8.85-1.19,1.29a10.52,10.52,0,0,0-1.71,2.85,3.58,3.58,0,0,0,.09,2.86l.3.57a22,22,0,0,1,1.72,3.81,16.52,16.52,0,0,1,1.1,4.34,7.6,7.6,0,0,1-.84,4.55,6,6,0,0,1-.72,1,5.84,5.84,0,0,1-.88.81,6.68,6.68,0,0,1-1,.63,10.41,10.41,0,0,1-1.06.48A.6.6,0,0,1,587,300l.09,0a9.25,9.25,0,0,0,.91-.41,5.48,5.48,0,0,0,.83-.52,4.64,4.64,0,0,0,.71-.65,4.82,4.82,0,0,0,.57-.77,6.41,6.41,0,0,0,.68-3.83,15.38,15.38,0,0,0-1.31-3.92,25.44,25.44,0,0,0-2.07-3.26,7.94,7.94,0,0,1-1.61-4.77,12.18,12.18,0,0,1,.74-4.69c.27-.71.58-1.4.89-2.11s.73-1.29,1.1-1.95.81-1.21,1.22-1.83l.63-.91.69-.83,1.39-1.66c.48-.54,1-1.06,1.49-1.59l1.54-1.54,1.47-1.36,2.79-2.58c.38-.38.68-.77,1-1.14s.53-.74.72-1.08a1.8,1.8,0,0,0,.32-1.28c-.1-.11-.12,0-.38-.31a12.91,12.91,0,0,0-1.48-1.28,18.47,18.47,0,0,0-2.5-1.52,50,50,0,0,0-6.32-2.68c-1.13-.4-2.28-.77-3.43-1.14s-2.36-.72-3.39-1l-.08,0a6.68,6.68,0,0,1,3.38-12.92Z"/><path class="cls-1" d="M579.52,233.8s-5.18-1.88-5.35,3.49c0,0-1,2.24-2.38,2.69,0,0-4.17-.65-4,2.37,0,0-3.83,2.58-.82,5.12,0,0,1.43,5.69,11.26,3.09a14.4,14.4,0,0,1,4.14-1.08,7.87,7.87,0,0,1,2.23.21s8.52,1.14,7.88-7.85S579.52,233.8,579.52,233.8Z"/><path class="cls-1" d="M579.57,244.73a10.58,10.58,0,0,0,.33,9.19c2.59,4.51,5.72,1.14,5.72,1.14s2.56-2.57-.37-6.94-1.55-5.13-1.55-5.13Z"/><path class="cls-1" d="M587.61,249.57s-.21,2.62,1,3.59,2.11,1.24,2.39.37-1.4-2.23-1.4-2.23.25-2.31,1-2.66Z"/><path class="cls-1" d="M598.76,254.67s-.21,2.62,1,3.59,2.11,1.24,2.39.37-1.4-2.23-1.4-2.23.25-2.31,1-2.66Z"/><path class="cls-1" d="M596.32,237.16l-2.46,1.56,1,2.61,2.22-.07s1-2,2-2.12c0,0,1-1,.18-1.71a5.52,5.52,0,0,0-2.12-.93Z"/><path class="cls-1" d="M597.35,237.16l.72-.78-.86-.84.26-1.33s2.1-2.3,3.7-1.32c0,0,1.5,2,.61,2.89,0,0,1.34.47,1.36.89a1.84,1.84,0,0,1-1.83-.62l-.11,1.31a1.64,1.64,0,0,1-.53-1.44l-1.28.77-.55,1.22Z"/><path class="cls-1" d="M598,236.94c-.16.19-4-1.26-4-1.26l-2.53-2.07-.13-.7s-1-.63-1.08-.51l-.71.85.77,1h.71l2.42,2.43,4.91,1.9Z"/><path class="cls-1" d="M599.23,237.76a16.67,16.67,0,0,0,3.17,1l2.4-.46.31-.53s.88,0,.91.12l.23,1.08-.86.49-.5-.36-2.44.83-4-.9Z"/><path class="cls-2" d="M612.45,253.87s2.47,6-7.08,12.56c-6.55,4.53-14.8,11.38-14.8,11.38a6.88,6.88,0,0,0-1.36,8.9s3.55,6.54,2.64,9.37c0,0,.71-3.85-2.23-9.77a6,6,0,0,1,1.2-7.52l15.06-10.85S614.83,263.17,612.45,253.87Z"/><path class="cls-1" d="M660.59,78.43a1.4,1.4,0,0,1-.82-1.43,2.14,2.14,0,0,1,1.16-1.34,13,13,0,0,1,1.4-.63,11.5,11.5,0,0,0,2.34-1.37,10.93,10.93,0,0,1,2.2-1.45.76.76,0,0,1,.82,0,.67.67,0,0,1,.16.3,3,3,0,0,1-.15,1.64,9.69,9.69,0,0,1-1,2.49,4.23,4.23,0,0,1-2,1.74,6.57,6.57,0,0,1-2.43.25A4,4,0,0,1,660.59,78.43Z"/><path class="cls-1" d="M662.32,84.8a2.22,2.22,0,0,0,1.75-2,5.93,5.93,0,0,0-1.93-4,8.67,8.67,0,0,0-3.31-2.1,4.64,4.64,0,0,0-3.37.11,5.36,5.36,0,0,0-2,1.94,3.92,3.92,0,0,0-.62,1.39,4.74,4.74,0,0,0,.11,1.79A3.47,3.47,0,0,0,654,83.74c2.11,1.89,5.72,1.74,8.24,1.07Z"/><path class="cls-1" d="M661.88,80a1,1,0,0,1,0,.56.41.41,0,0,1-.45.27.81.81,0,0,1-.16.91,2,2,0,0,1-.83.49c.48.6-.31.87-.81.85a.35.35,0,0,1-.13.45,1,1,0,0,1-.5.13.3.3,0,0,0-.17,0,.42.42,0,0,0-.08.11.51.51,0,0,1-.61.19c-.06,0-.56.46-.74.43a1.35,1.35,0,0,0-.28-.06.81.81,0,0,0-.24.07c-.73.25-1.94-.57-2.55-.9a3.17,3.17,0,0,1-1.61-2.13,3.67,3.67,0,0,1,.8-2.78A5.74,5.74,0,0,1,655.2,77a5.24,5.24,0,0,1,3.14-.5,4.28,4.28,0,0,1,1,.25,3.72,3.72,0,0,1,1.74,1.31A4.86,4.86,0,0,1,661.88,80Z"/><path class="cls-1" d="M654,79.56a1.26,1.26,0,0,0-.15-1.37c-.46-.35-1.27-.14-1.78-.08a10.78,10.78,0,0,1-2.42.15c-.28,0-.63-.06-.77.19-.31.55,1.19,1.37,1.55,1.57a3.07,3.07,0,0,0,2.4.47A1.93,1.93,0,0,0,654,79.56Z"/><path class="cls-1" d="M653.59,78.19a1.89,1.89,0,0,0-1.35,0,9.6,9.6,0,0,1-1.55.29h-.15a3.82,3.82,0,0,1-.55,0l-.51,0a1.5,1.5,0,0,0-.43,0c-.08,0-.17.12-.1.16H649a5.79,5.79,0,0,1,.63.08l.66.07a4.79,4.79,0,0,0,1.29-.08c.26,0,.5-.14.75-.19a1.64,1.64,0,0,1,.77,0,.62.62,0,0,0,.37,0c.12,0,.17-.24.05-.28,0,0,.06,0,.05.06"/><path class="cls-1" d="M663.05,82.48a2,2,0,0,1,1.48-.88.29.29,0,0,1,.24.08c.06.07,0,.2,0,.22a.53.53,0,0,1,.63.34l-.15.06a.78.78,0,0,1,.36.34.77.77,0,0,1,0,.17l.05.35a.57.57,0,0,1,0,.26.2.2,0,0,1-.19.15,1,1,0,0,1,0,.55.35.35,0,0,1-.44.23.14.14,0,0,1-.09.19.41.41,0,0,1-.23,0,.3.3,0,0,1-.31.22.89.89,0,0,1-.39-.12v.22a1,1,0,0,1-.52-.06,1.91,1.91,0,0,1-.25-.13,1.08,1.08,0,0,1-.49-.69A1.92,1.92,0,0,1,663.05,82.48Z"/><path class="cls-1" d="M660.35,76.5a1.6,1.6,0,0,0-.26.55c0,.09-.09.48-.23.27s.17-.81.28-.95a2.31,2.31,0,0,1,.63-.52,7.43,7.43,0,0,1,1.26-.58,8.74,8.74,0,0,0,1.82-.91c.34-.21.75-.48,1.07-.72A12.85,12.85,0,0,1,667,72.17a1,1,0,0,1-.29.65,10,10,0,0,1-3.31,2.42,7.23,7.23,0,0,1-1.39.57C661.42,76,660.73,76,660.35,76.5Z"/><path class="cls-1" d="M653.28,79.88a.5.5,0,0,0-.35-.92,3.08,3.08,0,0,0-.62.12,4.12,4.12,0,0,1-.64.18,4.82,4.82,0,0,1-1.3-.18c-.09,0-.2,0-.22.08a.16.16,0,0,0,0,.1,1.14,1.14,0,0,0,.79.49l.76.21a3.44,3.44,0,0,0,.8.15A1.16,1.16,0,0,0,653.28,79.88Z"/><path class="cls-1" d="M659,76.49a4.08,4.08,0,0,0-2.45.25c-.28.14-1.31,1.15-1.25,1.56a.88.88,0,0,0-.76-.31c-.91,0-1.31.61-1.62,1.4a2.45,2.45,0,0,0-.08,1c.07.79,1,0,1.36.36.05.05.08.12,0,.18a.24.24,0,0,1-.16,0c-.09,0-.25-.1-.23,0a.74.74,0,0,0,.11.24,1.48,1.48,0,0,0,.36.48,2.46,2.46,0,0,0,1.94.24c.89-.28,2-1,1.92-2a.65.65,0,0,1-.34.08c-.12,0-.23-.13-.21-.24a3,3,0,0,0,2.25-2A1,1,0,0,0,659,76.49Z"/><path class="cls-1" d="M655.76,82.13a2.24,2.24,0,0,0,.42-.08,3.79,3.79,0,0,0,1.37-.75,1.6,1.6,0,0,0,.61-1.38v-.11l-.1,0a.58.58,0,0,1-.3.08.18.18,0,0,1-.12-.07v0a3.07,3.07,0,0,0,2.25-2,1.07,1.07,0,0,0-.88-1.41h0a4.18,4.18,0,0,0-2.51.26,4,4,0,0,0-1.27,1.46,1,1,0,0,0-.7-.21c-.92,0-1.35.58-1.7,1.46a2.58,2.58,0,0,0-.09,1,.48.48,0,0,0,.17.37.79.79,0,0,0,.62,0c.23-.05.47-.1.6,0s0,0,0,0l0,0a.17.17,0,0,1-.11,0l-.07,0a.21.21,0,0,0-.2,0,.15.15,0,0,0,0,.14.62.62,0,0,0,.09.23l0,0a1.53,1.53,0,0,0,.38.51A2.42,2.42,0,0,0,655.76,82.13ZM658,80c0,.61-.47,1.41-1.87,1.84a2.38,2.38,0,0,1-1.87-.23,1.4,1.4,0,0,1-.34-.46l0,0a.67.67,0,0,1-.07-.14h0l.11,0a.32.32,0,0,0,.22-.07.19.19,0,0,0,.07-.14.22.22,0,0,0-.07-.16c-.19-.19-.49-.13-.75-.07s-.39.08-.49,0a.33.33,0,0,1-.1-.25,2.49,2.49,0,0,1,.08-.94c.34-.84.72-1.36,1.55-1.35a.81.81,0,0,1,.7.28l.19.23,0-.29c-.05-.34.91-1.32,1.21-1.48a4,4,0,0,1,2.4-.24.91.91,0,0,1,.76,1.21,2.89,2.89,0,0,1-2.19,1.91h-.05v.05a.25.25,0,0,0,0,.2.35.35,0,0,0,.23.14A.57.57,0,0,0,658,80Z"/><path class="cls-1" d="M658,77.6a1.31,1.31,0,0,1,.18.89,1,1,0,0,1-.53.72.79.79,0,0,1-.86-.13C655.82,78.18,657.19,76.3,658,77.6Z"/><path class="cls-1" d="M657.37,79.32a.85.85,0,0,0,.26-.07,1,1,0,0,0,.56-.75,1.34,1.34,0,0,0-.18-.92h0c-.25-.42-.53-.48-.72-.46a1.07,1.07,0,0,0-.8.77,1.14,1.14,0,0,0,.24,1.22A.81.81,0,0,0,657.37,79.32Zm-.08-2.12h0a.69.69,0,0,1,.65.42h0a1.26,1.26,0,0,1,.17.86.94.94,0,0,1-.51.69.75.75,0,0,1-.82-.12,1.06,1.06,0,0,1-.22-1.14A1,1,0,0,1,657.28,77.2Z"/><path class="cls-1" d="M653.59,79.56a2.08,2.08,0,0,1,.19-.78c.14-.26.57-.42.77-.11a1.06,1.06,0,0,1,.17.39,2,2,0,0,1-.12.78.9.9,0,0,1-.17.33.51.51,0,0,1-.54.08C653.61,80.15,653.56,79.83,653.59,79.56Z"/><path class="cls-1" d="M654.18,80.33a.43.43,0,0,0,.28-.13.94.94,0,0,0,.18-.34,1.73,1.73,0,0,0,.08-.3V79.5a1.5,1.5,0,0,0,0-.45,1.07,1.07,0,0,0-.17-.4.39.39,0,0,0-.35-.19.6.6,0,0,0-.48.3,2.1,2.1,0,0,0-.2.79h0c0,.14,0,.6.32.73A.72.72,0,0,0,654.18,80.33Zm0-1.78h0a.31.31,0,0,1,.28.15,1,1,0,0,1,.16.37,1.42,1.42,0,0,1,0,.42v.06a1.67,1.67,0,0,1-.08.28.88.88,0,0,1-.16.31.48.48,0,0,1-.5.07c-.3-.11-.28-.52-.27-.64a2,2,0,0,1,.19-.76A.53.53,0,0,1,654.2,78.55Z"/><path class="cls-1" d="M656.86,80.64c.16-.22.16-.6-.14-.7s-1,.16-1.35.29a1.25,1.25,0,0,0-.52.28.44.44,0,0,0-.07.55.6.6,0,0,0,.53.16,3.66,3.66,0,0,0,1-.2A1.18,1.18,0,0,0,656.86,80.64Z"/><path class="cls-1" d="M655.46,81.24a3.69,3.69,0,0,0,.83-.19,1.22,1.22,0,0,0,.6-.39h0a.6.6,0,0,0,.09-.51.38.38,0,0,0-.25-.25,2,2,0,0,0-1.17.21l-.21.08a1.27,1.27,0,0,0-.54.29.48.48,0,0,0-.07.6.62.62,0,0,0,.57.17Zm1.36-.62a1.15,1.15,0,0,1-.56.36,3.61,3.61,0,0,1-1,.2.55.55,0,0,1-.5-.14.4.4,0,0,1,.07-.49,1.2,1.2,0,0,1,.5-.27l.21-.08A2,2,0,0,1,656.7,80a.3.3,0,0,1,.2.2.51.51,0,0,1-.08.44Z"/><path class="cls-1" d="M655.76,79.28h0a.12.12,0,0,1,.07.08.31.31,0,0,1,0,.11.91.91,0,0,1-.06.24.3.3,0,0,1-.23.21.21.21,0,0,1-.17,0l-.17-.14a.37.37,0,0,1-.12-.17.21.21,0,0,1,0-.17.3.3,0,0,1,.17-.08l.23,0Z"/><path class="cls-1" d="M655.59,80h0a.33.33,0,0,0,.26-.24,1,1,0,0,0,.06-.25.34.34,0,0,0,0-.13.15.15,0,0,0-.1-.11h-.24l-.19,0h0a.34.34,0,0,0-.2.1.25.25,0,0,0,0,.2.37.37,0,0,0,.12.18h0l.17.14A.24.24,0,0,0,655.59,80Zm.16-.66h0a.08.08,0,0,1,0,.05.27.27,0,0,1,0,.1.88.88,0,0,1-.05.23c0,.11-.11.17-.19.19a.16.16,0,0,1-.14,0l-.16-.13h0a.32.32,0,0,1-.1-.13.17.17,0,0,1,0-.13.27.27,0,0,1,.15-.07h0l.18,0h.16Z"/><path class="cls-1" d="M655.65,79.43c.17,0,0,.24,0,.28a.1.1,0,0,1,0,0h-.06a.41.41,0,0,1-.17-.14.08.08,0,0,1,0,0,.07.07,0,0,1,0-.05l.11,0Z"/><path class="cls-1" d="M662.21,78.12c-.36,0-1.29,0-1.12-.6.09-.33.58-.49.86-.58.48-.17,1-.23,1.48-.4A5.21,5.21,0,0,0,665.5,75c.58-.66,1.09-1.38,1.72-2,.18.15.1.43,0,.64a12.67,12.67,0,0,1-1.4,2.68A4.26,4.26,0,0,1,663.4,78,6.33,6.33,0,0,1,662.21,78.12Z"/><path class="cls-1" d="M656.18,80.33a1,1,0,0,0-.34,0,1.11,1.11,0,0,0-.46.17,1.21,1.21,0,0,0-.2.2s-.08.13,0,.18.11,0,.16-.07a1,1,0,0,1,.18-.15,1.35,1.35,0,0,1,.47-.14.9.9,0,0,1,.3,0s.22.07.21,0S656.26,80.34,656.18,80.33Z"/><path class="cls-1" d="M664.49,81.69a.08.08,0,0,1,.06,0c0,.05-.07.1-.09.17s0,.11.11.11a.85.85,0,0,0,.17,0,.31.31,0,0,1,.29.11c0,.08-.16.1-.14.17a.09.09,0,0,0,0,0,1.91,1.91,0,0,1,.63,1,2.68,2.68,0,0,0-.86-.83,3,3,0,0,0-.35-.23.33.33,0,0,1-.2-.28C664.16,81.71,664.34,81.68,664.49,81.69Z"/><polygon class="cls-1" points="659.97 78.41 660.06 78.49 660.24 78.46 660.12 78.59 660.25 78.75 660.02 78.71 659.87 78.89 659.91 78.61 659.73 78.52 659.92 78.51 659.97 78.41"/><polygon class="cls-1" points="659.36 80.2 659.32 79.9 659.02 79.92 659.25 79.72 659.07 79.43 659.43 79.54 659.72 79.28 659.6 79.73 659.88 79.91 659.56 79.9 659.36 80.2"/><polygon class="cls-1" points="654.87 77.3 655.03 77.34 655.18 77.18 655.16 77.39 655.43 77.51 655.14 77.55 655.09 77.8 655 77.57 654.79 77.57 654.94 77.43 654.87 77.3"/><polygon class="cls-1" points="653.24 81.86 653.14 81.71 652.93 81.73 653.08 81.59 652.97 81.32 653.21 81.49 653.41 81.34 653.32 81.57 653.47 81.71 653.27 81.71 653.24 81.86"/><path class="cls-1" d="M657.75,77.53a.93.93,0,0,1,.14.55.85.85,0,0,1-.14.5.45.45,0,0,1-.46.19.9.9,0,0,1-.39-1.19A.5.5,0,0,1,657.75,77.53Z"/><path class="cls-1" d="M654.45,78.75a.92.92,0,0,1,.13.31.61.61,0,0,1-.08.48c-.11.16-.4.31-.54.11a.57.57,0,0,1-.08-.26,1.19,1.19,0,0,1,0-.37.5.5,0,0,1,.18-.31A.27.27,0,0,1,654.45,78.75Z"/><path class="cls-1" d="M656.8,78a.24.24,0,0,1,.33-.29c.19.05.13.34,0,.43a.22.22,0,0,1-.29,0A.26.26,0,0,1,656.8,78Z"/><path class="cls-1" d="M657,78.26a.3.3,0,0,0,.15-.06.41.41,0,0,0,.14-.38.24.24,0,0,0-.18-.2.35.35,0,0,0-.34.07.34.34,0,0,0-.09.32h0a.34.34,0,0,0,.06.14A.29.29,0,0,0,657,78.26Zm0-.48h.09a.08.08,0,0,1,.06.07.25.25,0,0,1-.08.21.14.14,0,0,1-.18,0,.18.18,0,0,1,0-.07h0a.17.17,0,0,1,0-.17A.16.16,0,0,1,657,77.78Z"/><path class="cls-1" d="M653.92,79.09a.26.26,0,0,1,0-.15.15.15,0,0,1,.15,0,.17.17,0,0,1,.13.13.23.23,0,0,1-.06.22.17.17,0,0,1-.2,0A.21.21,0,0,1,653.92,79.09Z"/><path class="cls-1" d="M654.09,79.38a.27.27,0,0,0,.16-.08.31.31,0,0,0,.08-.3.25.25,0,0,0-.2-.19.23.23,0,0,0-.23.07.34.34,0,0,0-.07.2h0a.28.28,0,0,0,.11.26A.22.22,0,0,0,654.09,79.38Zm0-.41h0s.06.05.06.07a.15.15,0,0,1,0,.14.09.09,0,0,1-.1,0,.14.14,0,0,1,0-.12.18.18,0,0,1,0-.11Z"/></svg>